<?xml version="1.0" encoding="utf-8"?>
<svg xmlns="http://www.w3.org/2000/svg" xmlns:xlink="http://www.w3.org/1999/xlink" width="800" height="800" viewBox="0 0 3200 3200">
<defs>
  <clipPath id="clip210">
    <rect x="0" y="0" width="3200" height="3200"/>
  </clipPath>
</defs>
<path clip-path="url(#clip210)" d="M0 3200 L3200 3200 L3200 0 L0 0  Z" fill="#ffffff" fill-rule="evenodd" fill-opacity="1"/>
<defs>
  <clipPath id="clip211">
    <rect x="640" y="320" width="2241" height="2241"/>
  </clipPath>
</defs>
<path clip-path="url(#clip210)" d="M341.626 2914.3 L3152.76 2914.3 L3152.76 47.2441 L341.626 47.2441  Z" fill="#ffffff" fill-rule="evenodd" fill-opacity="1"/>
<defs>
  <clipPath id="clip212">
    <rect x="341" y="47" width="2812" height="2868"/>
  </clipPath>
</defs>
<polyline clip-path="url(#clip212)" style="stroke:#000000; stroke-linecap:round; stroke-linejoin:round; stroke-width:2; stroke-opacity:0.1; fill:none" points="800.045,2914.3 800.045,47.2441 "/>
<polyline clip-path="url(#clip212)" style="stroke:#000000; stroke-linecap:round; stroke-linejoin:round; stroke-width:2; stroke-opacity:0.1; fill:none" points="1747.19,2914.3 1747.19,47.2441 "/>
<polyline clip-path="url(#clip212)" style="stroke:#000000; stroke-linecap:round; stroke-linejoin:round; stroke-width:2; stroke-opacity:0.1; fill:none" points="2694.34,2914.3 2694.34,47.2441 "/>
<polyline clip-path="url(#clip210)" style="stroke:#000000; stroke-linecap:round; stroke-linejoin:round; stroke-width:4; stroke-opacity:1; fill:none" points="341.626,2914.3 3152.76,2914.3 "/>
<polyline clip-path="url(#clip210)" style="stroke:#000000; stroke-linecap:round; stroke-linejoin:round; stroke-width:4; stroke-opacity:1; fill:none" points="800.045,2914.3 800.045,2895.4 "/>
<polyline clip-path="url(#clip210)" style="stroke:#000000; stroke-linecap:round; stroke-linejoin:round; stroke-width:4; stroke-opacity:1; fill:none" points="1747.19,2914.3 1747.19,2895.4 "/>
<polyline clip-path="url(#clip210)" style="stroke:#000000; stroke-linecap:round; stroke-linejoin:round; stroke-width:4; stroke-opacity:1; fill:none" points="2694.34,2914.3 2694.34,2895.4 "/>
<path clip-path="url(#clip210)" d="M701.793 2953.15 L695.45 2970.35 L708.158 2970.35 L701.793 2953.15 M699.154 2948.54 L704.455 2948.54 L717.626 2983.1 L712.765 2983.1 L709.617 2974.23 L694.038 2974.23 L690.89 2983.1 L685.96 2983.1 L699.154 2948.54 Z" fill="#000000" fill-rule="nonzero" fill-opacity="1" /><path clip-path="url(#clip210)" d="M722.487 2947.08 L726.746 2947.08 L726.746 2983.1 L722.487 2983.1 L722.487 2947.08 Z" fill="#000000" fill-rule="nonzero" fill-opacity="1" /><path clip-path="url(#clip210)" d="M752.718 2969.84 Q752.718 2965.21 750.797 2962.66 Q748.899 2960.11 745.45 2960.11 Q742.024 2960.11 740.103 2962.66 Q738.205 2965.21 738.205 2969.84 Q738.205 2974.44 740.103 2976.99 Q742.024 2979.54 745.45 2979.54 Q748.899 2979.54 750.797 2976.99 Q752.718 2974.44 752.718 2969.84 M756.978 2979.88 Q756.978 2986.5 754.038 2989.72 Q751.098 2992.96 745.033 2992.96 Q742.788 2992.96 740.797 2992.61 Q738.806 2992.29 736.931 2991.6 L736.931 2987.45 Q738.806 2988.47 740.635 2988.96 Q742.464 2989.44 744.362 2989.44 Q748.552 2989.44 750.635 2987.24 Q752.718 2985.07 752.718 2980.65 L752.718 2978.54 Q751.399 2980.83 749.339 2981.97 Q747.279 2983.1 744.408 2983.1 Q739.64 2983.1 736.723 2979.47 Q733.807 2975.83 733.807 2969.84 Q733.807 2963.82 736.723 2960.18 Q739.64 2956.55 744.408 2956.55 Q747.279 2956.55 749.339 2957.68 Q751.399 2958.82 752.718 2961.11 L752.718 2957.17 L756.978 2957.17 L756.978 2979.88 Z" fill="#000000" fill-rule="nonzero" fill-opacity="1" /><path clip-path="url(#clip210)" d="M775.797 2960.16 Q772.371 2960.16 770.38 2962.85 Q768.39 2965.51 768.39 2970.16 Q768.39 2974.81 770.357 2977.5 Q772.348 2980.16 775.797 2980.16 Q779.2 2980.16 781.191 2977.47 Q783.181 2974.79 783.181 2970.16 Q783.181 2965.55 781.191 2962.87 Q779.2 2960.16 775.797 2960.16 M775.797 2956.55 Q781.353 2956.55 784.524 2960.16 Q787.695 2963.77 787.695 2970.16 Q787.695 2976.53 784.524 2980.16 Q781.353 2983.77 775.797 2983.77 Q770.218 2983.77 767.047 2980.16 Q763.899 2976.53 763.899 2970.16 Q763.899 2963.77 767.047 2960.16 Q770.218 2956.55 775.797 2956.55 Z" fill="#000000" fill-rule="nonzero" fill-opacity="1" /><path clip-path="url(#clip210)" d="M809.778 2961.16 Q809.061 2960.74 808.204 2960.55 Q807.371 2960.35 806.352 2960.35 Q802.741 2960.35 800.797 2962.71 Q798.876 2965.04 798.876 2969.44 L798.876 2983.1 L794.593 2983.1 L794.593 2957.17 L798.876 2957.17 L798.876 2961.2 Q800.218 2958.84 802.371 2957.71 Q804.524 2956.55 807.602 2956.55 Q808.042 2956.55 808.575 2956.62 Q809.107 2956.66 809.755 2956.78 L809.778 2961.16 Z" fill="#000000" fill-rule="nonzero" fill-opacity="1" /><path clip-path="url(#clip210)" d="M814.246 2957.17 L818.505 2957.17 L818.505 2983.1 L814.246 2983.1 L814.246 2957.17 M814.246 2947.08 L818.505 2947.08 L818.505 2952.48 L814.246 2952.48 L814.246 2947.08 Z" fill="#000000" fill-rule="nonzero" fill-opacity="1" /><path clip-path="url(#clip210)" d="M831.63 2949.81 L831.63 2957.17 L840.403 2957.17 L840.403 2960.48 L831.63 2960.48 L831.63 2974.56 Q831.63 2977.73 832.487 2978.63 Q833.366 2979.54 836.028 2979.54 L840.403 2979.54 L840.403 2983.1 L836.028 2983.1 Q831.098 2983.1 829.223 2981.27 Q827.348 2979.42 827.348 2974.56 L827.348 2960.48 L824.223 2960.48 L824.223 2957.17 L827.348 2957.17 L827.348 2949.81 L831.63 2949.81 Z" fill="#000000" fill-rule="nonzero" fill-opacity="1" /><path clip-path="url(#clip210)" d="M866.19 2962.15 Q867.787 2959.28 870.009 2957.91 Q872.232 2956.55 875.241 2956.55 Q879.292 2956.55 881.491 2959.4 Q883.69 2962.22 883.69 2967.45 L883.69 2983.1 L879.408 2983.1 L879.408 2967.59 Q879.408 2963.86 878.088 2962.06 Q876.769 2960.25 874.06 2960.25 Q870.75 2960.25 868.829 2962.45 Q866.908 2964.65 866.908 2968.45 L866.908 2983.1 L862.625 2983.1 L862.625 2967.59 Q862.625 2963.84 861.306 2962.06 Q859.986 2960.25 857.232 2960.25 Q853.968 2960.25 852.047 2962.47 Q850.125 2964.67 850.125 2968.45 L850.125 2983.1 L845.843 2983.1 L845.843 2957.17 L850.125 2957.17 L850.125 2961.2 Q851.584 2958.82 853.621 2957.68 Q855.658 2956.55 858.459 2956.55 Q861.283 2956.55 863.25 2957.98 Q865.241 2959.42 866.19 2962.15 Z" fill="#000000" fill-rule="nonzero" fill-opacity="1" /><path clip-path="url(#clip210)" d="M902.232 2960.16 Q898.806 2960.16 896.815 2962.85 Q894.824 2965.51 894.824 2970.16 Q894.824 2974.81 896.792 2977.5 Q898.782 2980.16 902.232 2980.16 Q905.634 2980.16 907.625 2977.47 Q909.616 2974.79 909.616 2970.16 Q909.616 2965.55 907.625 2962.87 Q905.634 2960.16 902.232 2960.16 M902.232 2956.55 Q907.787 2956.55 910.958 2960.16 Q914.13 2963.77 914.13 2970.16 Q914.13 2976.53 910.958 2980.16 Q907.787 2983.77 902.232 2983.77 Q896.653 2983.77 893.482 2980.16 Q890.333 2976.53 890.333 2970.16 Q890.333 2963.77 893.482 2960.16 Q896.653 2956.55 902.232 2956.55 Z" fill="#000000" fill-rule="nonzero" fill-opacity="1" /><path clip-path="url(#clip210)" d="M722.256 3030.01 L722.256 3020.73 L714.617 3020.73 L714.617 3016.88 L726.885 3016.88 L726.885 3031.72 Q724.177 3033.64 720.913 3034.64 Q717.649 3035.61 713.946 3035.61 Q705.844 3035.61 701.26 3030.89 Q696.7 3026.14 696.7 3017.69 Q696.7 3009.22 701.26 3004.5 Q705.844 2999.75 713.946 2999.75 Q717.325 2999.75 720.358 3000.59 Q723.413 3001.42 725.982 3003.04 L725.982 3008.02 Q723.39 3005.82 720.473 3004.71 Q717.557 3003.6 714.339 3003.6 Q707.996 3003.6 704.802 3007.14 Q701.631 3010.68 701.631 3017.69 Q701.631 3024.69 704.802 3028.23 Q707.996 3031.77 714.339 3031.77 Q716.816 3031.77 718.76 3031.35 Q720.705 3030.91 722.256 3030.01 Z" fill="#000000" fill-rule="nonzero" fill-opacity="1" /><path clip-path="url(#clip210)" d="M757.417 3020.91 L757.417 3023 L737.834 3023 Q738.112 3027.39 740.473 3029.71 Q742.857 3032 747.093 3032 Q749.547 3032 751.839 3031.4 Q754.154 3030.8 756.422 3029.59 L756.422 3033.62 Q754.13 3034.59 751.723 3035.1 Q749.316 3035.61 746.839 3035.61 Q740.635 3035.61 737.001 3032 Q733.39 3028.39 733.39 3022.23 Q733.39 3015.87 736.816 3012.14 Q740.265 3008.39 746.098 3008.39 Q751.33 3008.39 754.362 3011.77 Q757.417 3015.13 757.417 3020.91 M753.158 3019.66 Q753.112 3016.17 751.191 3014.08 Q749.293 3012 746.144 3012 Q742.58 3012 740.427 3014.01 Q738.297 3016.03 737.973 3019.69 L753.158 3019.66 Z" fill="#000000" fill-rule="nonzero" fill-opacity="1" /><path clip-path="url(#clip210)" d="M785.959 3019.29 L785.959 3034.94 L781.7 3034.94 L781.7 3019.43 Q781.7 3015.75 780.265 3013.92 Q778.829 3012.09 775.959 3012.09 Q772.51 3012.09 770.519 3014.29 Q768.529 3016.49 768.529 3020.29 L768.529 3034.94 L764.246 3034.94 L764.246 3009.01 L768.529 3009.01 L768.529 3013.04 Q770.056 3010.7 772.116 3009.55 Q774.2 3008.39 776.908 3008.39 Q781.376 3008.39 783.667 3011.17 Q785.959 3013.92 785.959 3019.29 Z" fill="#000000" fill-rule="nonzero" fill-opacity="1" /><path clip-path="url(#clip210)" d="M816.63 3020.91 L816.63 3023 L797.047 3023 Q797.325 3027.39 799.686 3029.71 Q802.07 3032 806.306 3032 Q808.76 3032 811.051 3031.4 Q813.366 3030.8 815.635 3029.59 L815.635 3033.62 Q813.343 3034.59 810.936 3035.1 Q808.528 3035.61 806.051 3035.61 Q799.848 3035.61 796.214 3032 Q792.602 3028.39 792.602 3022.23 Q792.602 3015.87 796.028 3012.14 Q799.477 3008.39 805.311 3008.39 Q810.542 3008.39 813.575 3011.77 Q816.63 3015.13 816.63 3020.91 M812.371 3019.66 Q812.325 3016.17 810.403 3014.08 Q808.505 3012 805.357 3012 Q801.792 3012 799.639 3014.01 Q797.51 3016.03 797.186 3019.69 L812.371 3019.66 M808.274 2997.02 L812.88 2997.02 L805.334 3005.73 L801.792 3005.73 L808.274 2997.02 Z" fill="#000000" fill-rule="nonzero" fill-opacity="1" /><path clip-path="url(#clip210)" d="M827.834 3001.65 L827.834 3009.01 L836.607 3009.01 L836.607 3012.32 L827.834 3012.32 L827.834 3026.4 Q827.834 3029.57 828.69 3030.47 Q829.57 3031.38 832.232 3031.38 L836.607 3031.38 L836.607 3034.94 L832.232 3034.94 Q827.301 3034.94 825.426 3033.11 Q823.551 3031.26 823.551 3026.4 L823.551 3012.32 L820.426 3012.32 L820.426 3009.01 L823.551 3009.01 L823.551 3001.65 L827.834 3001.65 Z" fill="#000000" fill-rule="nonzero" fill-opacity="1" /><path clip-path="url(#clip210)" d="M842.209 3009.01 L846.468 3009.01 L846.468 3034.94 L842.209 3034.94 L842.209 3009.01 M842.209 2998.92 L846.468 2998.92 L846.468 3004.32 L842.209 3004.32 L842.209 2998.92 Z" fill="#000000" fill-rule="nonzero" fill-opacity="1" /><path clip-path="url(#clip210)" d="M874.037 3010.01 L874.037 3013.99 Q872.232 3013 870.403 3012.51 Q868.597 3012 866.746 3012 Q862.602 3012 860.31 3014.64 Q858.019 3017.25 858.019 3022 Q858.019 3026.75 860.31 3029.38 Q862.602 3032 866.746 3032 Q868.597 3032 870.403 3031.51 Q872.232 3031 874.037 3030.01 L874.037 3033.94 Q872.255 3034.78 870.334 3035.19 Q868.435 3035.61 866.283 3035.61 Q860.426 3035.61 856.977 3031.93 Q853.528 3028.25 853.528 3022 Q853.528 3015.66 857 3012.02 Q860.496 3008.39 866.56 3008.39 Q868.528 3008.39 870.403 3008.81 Q872.278 3009.2 874.037 3010.01 Z" fill="#000000" fill-rule="nonzero" fill-opacity="1" /><path clip-path="url(#clip210)" d="M891.491 3012 Q888.065 3012 886.074 3014.69 Q884.083 3017.35 884.083 3022 Q884.083 3026.65 886.051 3029.34 Q888.042 3032 891.491 3032 Q894.894 3032 896.884 3029.31 Q898.875 3026.63 898.875 3022 Q898.875 3017.39 896.884 3014.71 Q894.894 3012 891.491 3012 M891.491 3008.39 Q897.046 3008.39 900.218 3012 Q903.389 3015.61 903.389 3022 Q903.389 3028.37 900.218 3032 Q897.046 3035.61 891.491 3035.61 Q885.912 3035.61 882.741 3032 Q879.593 3028.37 879.593 3022 Q879.593 3015.61 882.741 3012 Q885.912 3008.39 891.491 3008.39 Z" fill="#000000" fill-rule="nonzero" fill-opacity="1" /><path clip-path="url(#clip210)" d="M1690.3 2948.54 L1694.98 2948.54 L1694.98 2979.16 L1711.81 2979.16 L1711.81 2983.1 L1690.3 2983.1 L1690.3 2948.54 Z" fill="#000000" fill-rule="nonzero" fill-opacity="1" /><path clip-path="url(#clip210)" d="M1725.74 2960.16 Q1722.32 2960.16 1720.33 2962.85 Q1718.34 2965.51 1718.34 2970.16 Q1718.34 2974.81 1720.3 2977.5 Q1722.3 2980.16 1725.74 2980.16 Q1729.15 2980.16 1731.14 2977.47 Q1733.13 2974.79 1733.13 2970.16 Q1733.13 2965.55 1731.14 2962.87 Q1729.15 2960.16 1725.74 2960.16 M1725.74 2956.55 Q1731.3 2956.55 1734.47 2960.16 Q1737.64 2963.77 1737.64 2970.16 Q1737.64 2976.53 1734.47 2980.16 Q1731.3 2983.77 1725.74 2983.77 Q1720.17 2983.77 1716.99 2980.16 Q1713.85 2976.53 1713.85 2970.16 Q1713.85 2963.77 1716.99 2960.16 Q1720.17 2956.55 1725.74 2956.55 Z" fill="#000000" fill-rule="nonzero" fill-opacity="1" /><path clip-path="url(#clip210)" d="M1763.36 2958.17 L1763.36 2962.15 Q1761.55 2961.16 1759.73 2960.67 Q1757.92 2960.16 1756.07 2960.16 Q1751.92 2960.16 1749.63 2962.8 Q1747.34 2965.41 1747.34 2970.16 Q1747.34 2974.91 1749.63 2977.54 Q1751.92 2980.16 1756.07 2980.16 Q1757.92 2980.16 1759.73 2979.67 Q1761.55 2979.16 1763.36 2978.17 L1763.36 2982.1 Q1761.58 2982.94 1759.66 2983.35 Q1757.76 2983.77 1755.61 2983.77 Q1749.75 2983.77 1746.3 2980.09 Q1742.85 2976.41 1742.85 2970.16 Q1742.85 2963.82 1746.32 2960.18 Q1749.82 2956.55 1755.88 2956.55 Q1757.85 2956.55 1759.73 2956.97 Q1761.6 2957.36 1763.36 2958.17 Z" fill="#000000" fill-rule="nonzero" fill-opacity="1" /><path clip-path="url(#clip210)" d="M1782.55 2970.07 Q1777.39 2970.07 1775.4 2971.25 Q1773.41 2972.43 1773.41 2975.28 Q1773.41 2977.54 1774.89 2978.89 Q1776.39 2980.21 1778.96 2980.21 Q1782.5 2980.21 1784.63 2977.71 Q1786.79 2975.18 1786.79 2971.02 L1786.79 2970.07 L1782.55 2970.07 M1791.04 2968.31 L1791.04 2983.1 L1786.79 2983.1 L1786.79 2979.16 Q1785.33 2981.53 1783.15 2982.66 Q1780.98 2983.77 1777.83 2983.77 Q1773.85 2983.77 1771.48 2981.55 Q1769.15 2979.3 1769.15 2975.55 Q1769.15 2971.18 1772.06 2968.96 Q1775 2966.73 1780.81 2966.73 L1786.79 2966.73 L1786.79 2966.32 Q1786.79 2963.38 1784.84 2961.78 Q1782.92 2960.16 1779.42 2960.16 Q1777.2 2960.16 1775.1 2960.69 Q1772.99 2961.22 1771.04 2962.29 L1771.04 2958.35 Q1773.38 2957.45 1775.58 2957.01 Q1777.78 2956.55 1779.86 2956.55 Q1785.49 2956.55 1788.27 2959.47 Q1791.04 2962.38 1791.04 2968.31 Z" fill="#000000" fill-rule="nonzero" fill-opacity="1" /><path clip-path="url(#clip210)" d="M1799.82 2947.08 L1804.08 2947.08 L1804.08 2983.1 L1799.82 2983.1 L1799.82 2947.08 Z" fill="#000000" fill-rule="nonzero" fill-opacity="1" /><path clip-path="url(#clip210)" d="M1691.58 3001.51 L1691.58 3006.07 Q1688.92 3004.8 1686.55 3004.18 Q1684.19 3003.55 1681.99 3003.55 Q1678.18 3003.55 1676.09 3005.03 Q1674.03 3006.51 1674.03 3009.25 Q1674.03 3011.54 1675.4 3012.72 Q1676.79 3013.88 1680.63 3014.59 L1683.45 3015.17 Q1688.68 3016.17 1691.16 3018.69 Q1693.66 3021.19 1693.66 3025.4 Q1693.66 3030.43 1690.28 3033.02 Q1686.92 3035.61 1680.42 3035.61 Q1677.97 3035.61 1675.19 3035.06 Q1672.43 3034.5 1669.47 3033.41 L1669.47 3028.6 Q1672.32 3030.19 1675.05 3031 Q1677.78 3031.81 1680.42 3031.81 Q1684.42 3031.81 1686.6 3030.24 Q1688.78 3028.67 1688.78 3025.75 Q1688.78 3023.2 1687.2 3021.77 Q1685.65 3020.33 1682.09 3019.62 L1679.24 3019.06 Q1674.01 3018.02 1671.67 3015.8 Q1669.33 3013.57 1669.33 3009.62 Q1669.33 3005.03 1672.55 3002.39 Q1675.79 2999.75 1681.46 2999.75 Q1683.89 2999.75 1686.42 3000.19 Q1688.94 3000.63 1691.58 3001.51 Z" fill="#000000" fill-rule="nonzero" fill-opacity="1" /><path clip-path="url(#clip210)" d="M1722.94 3020.91 L1722.94 3023 L1703.36 3023 Q1703.64 3027.39 1706 3029.71 Q1708.38 3032 1712.62 3032 Q1715.07 3032 1717.36 3031.4 Q1719.68 3030.8 1721.95 3029.59 L1721.95 3033.62 Q1719.66 3034.59 1717.25 3035.1 Q1714.84 3035.61 1712.36 3035.61 Q1706.16 3035.61 1702.53 3032 Q1698.92 3028.39 1698.92 3022.23 Q1698.92 3015.87 1702.34 3012.14 Q1705.79 3008.39 1711.62 3008.39 Q1716.86 3008.39 1719.89 3011.77 Q1722.94 3015.13 1722.94 3020.91 M1718.68 3019.66 Q1718.64 3016.17 1716.72 3014.08 Q1714.82 3012 1711.67 3012 Q1708.11 3012 1705.95 3014.01 Q1703.82 3016.03 1703.5 3019.69 L1718.68 3019.66 Z" fill="#000000" fill-rule="nonzero" fill-opacity="1" /><path clip-path="url(#clip210)" d="M1741.72 3021.91 Q1736.55 3021.91 1734.56 3023.09 Q1732.57 3024.27 1732.57 3027.12 Q1732.57 3029.38 1734.05 3030.73 Q1735.56 3032.05 1738.13 3032.05 Q1741.67 3032.05 1743.8 3029.55 Q1745.95 3027.02 1745.95 3022.86 L1745.95 3021.91 L1741.72 3021.91 M1750.21 3020.15 L1750.21 3034.94 L1745.95 3034.94 L1745.95 3031 Q1744.49 3033.37 1742.32 3034.5 Q1740.14 3035.61 1736.99 3035.61 Q1733.01 3035.61 1730.65 3033.39 Q1728.31 3031.14 1728.31 3027.39 Q1728.31 3023.02 1731.23 3020.8 Q1734.17 3018.57 1739.98 3018.57 L1745.95 3018.57 L1745.95 3018.16 Q1745.95 3015.22 1744.01 3013.62 Q1742.09 3012 1738.59 3012 Q1736.37 3012 1734.26 3012.53 Q1732.16 3013.06 1730.21 3014.13 L1730.21 3010.19 Q1732.55 3009.29 1734.75 3008.85 Q1736.95 3008.39 1739.03 3008.39 Q1744.66 3008.39 1747.43 3011.31 Q1750.21 3014.22 1750.21 3020.15 Z" fill="#000000" fill-rule="nonzero" fill-opacity="1" /><path clip-path="url(#clip210)" d="M1774.01 3013 Q1773.29 3012.58 1772.43 3012.39 Q1771.6 3012.19 1770.58 3012.19 Q1766.97 3012.19 1765.03 3014.55 Q1763.11 3016.88 1763.11 3021.28 L1763.11 3034.94 L1758.82 3034.94 L1758.82 3009.01 L1763.11 3009.01 L1763.11 3013.04 Q1764.45 3010.68 1766.6 3009.55 Q1768.75 3008.39 1771.83 3008.39 Q1772.27 3008.39 1772.8 3008.46 Q1773.34 3008.5 1773.98 3008.62 L1774.01 3013 Z" fill="#000000" fill-rule="nonzero" fill-opacity="1" /><path clip-path="url(#clip210)" d="M1796.09 3010.01 L1796.09 3013.99 Q1794.29 3013 1792.46 3012.51 Q1790.65 3012 1788.8 3012 Q1784.66 3012 1782.36 3014.64 Q1780.07 3017.25 1780.07 3022 Q1780.07 3026.75 1782.36 3029.38 Q1784.66 3032 1788.8 3032 Q1790.65 3032 1792.46 3031.51 Q1794.29 3031 1796.09 3030.01 L1796.09 3033.94 Q1794.31 3034.78 1792.39 3035.19 Q1790.49 3035.61 1788.34 3035.61 Q1782.48 3035.61 1779.03 3031.93 Q1775.58 3028.25 1775.58 3022 Q1775.58 3015.66 1779.05 3012.02 Q1782.55 3008.39 1788.61 3008.39 Q1790.58 3008.39 1792.46 3008.81 Q1794.33 3009.2 1796.09 3010.01 Z" fill="#000000" fill-rule="nonzero" fill-opacity="1" /><path clip-path="url(#clip210)" d="M1825.05 3019.29 L1825.05 3034.94 L1820.79 3034.94 L1820.79 3019.43 Q1820.79 3015.75 1819.35 3013.92 Q1817.92 3012.09 1815.05 3012.09 Q1811.6 3012.09 1809.61 3014.29 Q1807.62 3016.49 1807.62 3020.29 L1807.62 3034.94 L1803.34 3034.94 L1803.34 2998.92 L1807.62 2998.92 L1807.62 3013.04 Q1809.15 3010.7 1811.21 3009.55 Q1813.29 3008.39 1816 3008.39 Q1820.47 3008.39 1822.76 3011.17 Q1825.05 3013.92 1825.05 3019.29 Z" fill="#000000" fill-rule="nonzero" fill-opacity="1" /><path clip-path="url(#clip210)" d="M2600.52 2949.67 L2600.52 2954.23 Q2597.86 2952.96 2595.5 2952.34 Q2593.13 2951.71 2590.93 2951.71 Q2587.12 2951.71 2585.03 2953.19 Q2582.97 2954.67 2582.97 2957.41 Q2582.97 2959.7 2584.34 2960.88 Q2585.73 2962.04 2589.57 2962.75 L2592.39 2963.33 Q2597.62 2964.33 2600.1 2966.85 Q2602.6 2969.35 2602.6 2973.56 Q2602.6 2978.59 2599.22 2981.18 Q2595.87 2983.77 2589.36 2983.77 Q2586.91 2983.77 2584.13 2983.22 Q2581.37 2982.66 2578.41 2981.57 L2578.41 2976.76 Q2581.26 2978.35 2583.99 2979.16 Q2586.72 2979.97 2589.36 2979.97 Q2593.37 2979.97 2595.54 2978.4 Q2597.72 2976.83 2597.72 2973.91 Q2597.72 2971.36 2596.14 2969.93 Q2594.59 2968.49 2591.03 2967.78 L2588.18 2967.22 Q2582.95 2966.18 2580.61 2963.96 Q2578.27 2961.73 2578.27 2957.78 Q2578.27 2953.19 2581.49 2950.55 Q2584.73 2947.91 2590.4 2947.91 Q2592.83 2947.91 2595.36 2948.35 Q2597.88 2948.79 2600.52 2949.67 Z" fill="#000000" fill-rule="nonzero" fill-opacity="1" /><path clip-path="url(#clip210)" d="M2609.71 2957.17 L2613.97 2957.17 L2613.97 2983.1 L2609.71 2983.1 L2609.71 2957.17 M2609.71 2947.08 L2613.97 2947.08 L2613.97 2952.48 L2609.71 2952.48 L2609.71 2947.08 Z" fill="#000000" fill-rule="nonzero" fill-opacity="1" /><path clip-path="url(#clip210)" d="M2643.06 2962.15 Q2644.66 2959.28 2646.88 2957.91 Q2649.11 2956.55 2652.12 2956.55 Q2656.17 2956.55 2658.37 2959.4 Q2660.56 2962.22 2660.56 2967.45 L2660.56 2983.1 L2656.28 2983.1 L2656.28 2967.59 Q2656.28 2963.86 2654.96 2962.06 Q2653.64 2960.25 2650.93 2960.25 Q2647.62 2960.25 2645.7 2962.45 Q2643.78 2964.65 2643.78 2968.45 L2643.78 2983.1 L2639.5 2983.1 L2639.5 2967.59 Q2639.5 2963.84 2638.18 2962.06 Q2636.86 2960.25 2634.11 2960.25 Q2630.84 2960.25 2628.92 2962.47 Q2627 2964.67 2627 2968.45 L2627 2983.1 L2622.72 2983.1 L2622.72 2957.17 L2627 2957.17 L2627 2961.2 Q2628.46 2958.82 2630.49 2957.68 Q2632.53 2956.55 2635.33 2956.55 Q2638.16 2956.55 2640.12 2957.98 Q2642.12 2959.42 2643.06 2962.15 Z" fill="#000000" fill-rule="nonzero" fill-opacity="1" /><path clip-path="url(#clip210)" d="M2668.62 2972.87 L2668.62 2957.17 L2672.88 2957.17 L2672.88 2972.71 Q2672.88 2976.39 2674.31 2978.24 Q2675.75 2980.07 2678.62 2980.07 Q2682.07 2980.07 2684.06 2977.87 Q2686.07 2975.67 2686.07 2971.87 L2686.07 2957.17 L2690.33 2957.17 L2690.33 2983.1 L2686.07 2983.1 L2686.07 2979.12 Q2684.52 2981.48 2682.46 2982.64 Q2680.43 2983.77 2677.72 2983.77 Q2673.25 2983.77 2670.93 2980.99 Q2668.62 2978.22 2668.62 2972.87 M2679.34 2956.55 L2679.34 2956.55 Z" fill="#000000" fill-rule="nonzero" fill-opacity="1" /><path clip-path="url(#clip210)" d="M2699.11 2947.08 L2703.36 2947.08 L2703.36 2983.1 L2699.11 2983.1 L2699.11 2947.08 Z" fill="#000000" fill-rule="nonzero" fill-opacity="1" /><path clip-path="url(#clip210)" d="M2724.06 2970.07 Q2718.9 2970.07 2716.91 2971.25 Q2714.92 2972.43 2714.92 2975.28 Q2714.92 2977.54 2716.4 2978.89 Q2717.9 2980.21 2720.47 2980.21 Q2724.01 2980.21 2726.14 2977.71 Q2728.3 2975.18 2728.3 2971.02 L2728.3 2970.07 L2724.06 2970.07 M2732.55 2968.31 L2732.55 2983.1 L2728.3 2983.1 L2728.3 2979.16 Q2726.84 2981.53 2724.66 2982.66 Q2722.49 2983.77 2719.34 2983.77 Q2715.36 2983.77 2712.99 2981.55 Q2710.66 2979.3 2710.66 2975.55 Q2710.66 2971.18 2713.57 2968.96 Q2716.51 2966.73 2722.32 2966.73 L2728.3 2966.73 L2728.3 2966.32 Q2728.3 2963.38 2726.35 2961.78 Q2724.43 2960.16 2720.93 2960.16 Q2718.71 2960.16 2716.61 2960.69 Q2714.5 2961.22 2712.55 2962.29 L2712.55 2958.35 Q2714.89 2957.45 2717.09 2957.01 Q2719.29 2956.55 2721.37 2956.55 Q2727 2956.55 2729.78 2959.47 Q2732.55 2962.38 2732.55 2968.31 Z" fill="#000000" fill-rule="nonzero" fill-opacity="1" /><path clip-path="url(#clip210)" d="M2745.54 2949.81 L2745.54 2957.17 L2754.31 2957.17 L2754.31 2960.48 L2745.54 2960.48 L2745.54 2974.56 Q2745.54 2977.73 2746.4 2978.63 Q2747.28 2979.54 2749.94 2979.54 L2754.31 2979.54 L2754.31 2983.1 L2749.94 2983.1 Q2745.01 2983.1 2743.13 2981.27 Q2741.26 2979.42 2741.26 2974.56 L2741.26 2960.48 L2738.13 2960.48 L2738.13 2957.17 L2741.26 2957.17 L2741.26 2949.81 L2745.54 2949.81 Z" fill="#000000" fill-rule="nonzero" fill-opacity="1" /><path clip-path="url(#clip210)" d="M2782.09 2969.07 L2782.09 2971.16 L2762.51 2971.16 Q2762.79 2975.55 2765.15 2977.87 Q2767.53 2980.16 2771.77 2980.16 Q2774.22 2980.16 2776.51 2979.56 Q2778.83 2978.96 2781.1 2977.75 L2781.1 2981.78 Q2778.8 2982.75 2776.4 2983.26 Q2773.99 2983.77 2771.51 2983.77 Q2765.31 2983.77 2761.67 2980.16 Q2758.06 2976.55 2758.06 2970.39 Q2758.06 2964.03 2761.49 2960.3 Q2764.94 2956.55 2770.77 2956.55 Q2776 2956.55 2779.04 2959.93 Q2782.09 2963.29 2782.09 2969.07 M2777.83 2967.82 Q2777.79 2964.33 2775.86 2962.24 Q2773.97 2960.16 2770.82 2960.16 Q2767.25 2960.16 2765.1 2962.17 Q2762.97 2964.19 2762.65 2967.85 L2777.83 2967.82 Z" fill="#000000" fill-rule="nonzero" fill-opacity="1" /><path clip-path="url(#clip210)" d="M2806.14 2961.11 L2806.14 2947.08 L2810.4 2947.08 L2810.4 2983.1 L2806.14 2983.1 L2806.14 2979.21 Q2804.8 2981.53 2802.74 2982.66 Q2800.7 2983.77 2797.83 2983.77 Q2793.13 2983.77 2790.17 2980.02 Q2787.23 2976.27 2787.23 2970.16 Q2787.23 2964.05 2790.17 2960.3 Q2793.13 2956.55 2797.83 2956.55 Q2800.7 2956.55 2802.74 2957.68 Q2804.8 2958.79 2806.14 2961.11 M2791.63 2970.16 Q2791.63 2974.86 2793.55 2977.54 Q2795.49 2980.21 2798.87 2980.21 Q2802.25 2980.21 2804.2 2977.54 Q2806.14 2974.86 2806.14 2970.16 Q2806.14 2965.46 2804.2 2962.8 Q2802.25 2960.11 2798.87 2960.11 Q2795.49 2960.11 2793.55 2962.8 Q2791.63 2965.46 2791.63 2970.16 Z" fill="#000000" fill-rule="nonzero" fill-opacity="1" /><path clip-path="url(#clip210)" d="M2593.9 3004.99 L2587.56 3022.19 L2600.26 3022.19 L2593.9 3004.99 M2591.26 3000.38 L2596.56 3000.38 L2609.73 3034.94 L2604.87 3034.94 L2601.72 3026.07 L2586.14 3026.07 L2583 3034.94 L2578.06 3034.94 L2591.26 3000.38 Z" fill="#000000" fill-rule="nonzero" fill-opacity="1" /><path clip-path="url(#clip210)" d="M2636.14 3019.29 L2636.14 3034.94 L2631.88 3034.94 L2631.88 3019.43 Q2631.88 3015.75 2630.45 3013.92 Q2629.01 3012.09 2626.14 3012.09 Q2622.69 3012.09 2620.7 3014.29 Q2618.71 3016.49 2618.71 3020.29 L2618.71 3034.94 L2614.43 3034.94 L2614.43 3009.01 L2618.71 3009.01 L2618.71 3013.04 Q2620.24 3010.7 2622.3 3009.55 Q2624.38 3008.39 2627.09 3008.39 Q2631.56 3008.39 2633.85 3011.17 Q2636.14 3013.92 2636.14 3019.29 Z" fill="#000000" fill-rule="nonzero" fill-opacity="1" /><path clip-path="url(#clip210)" d="M2666.19 3019.29 L2666.19 3034.94 L2661.93 3034.94 L2661.93 3019.43 Q2661.93 3015.75 2660.49 3013.92 Q2659.06 3012.09 2656.19 3012.09 Q2652.74 3012.09 2650.75 3014.29 Q2648.76 3016.49 2648.76 3020.29 L2648.76 3034.94 L2644.48 3034.94 L2644.48 3009.01 L2648.76 3009.01 L2648.76 3013.04 Q2650.29 3010.7 2652.35 3009.55 Q2654.43 3008.39 2657.14 3008.39 Q2661.61 3008.39 2663.9 3011.17 Q2666.19 3013.92 2666.19 3019.29 Z" fill="#000000" fill-rule="nonzero" fill-opacity="1" /><path clip-path="url(#clip210)" d="M2696.86 3020.91 L2696.86 3023 L2677.28 3023 Q2677.55 3027.39 2679.92 3029.71 Q2682.3 3032 2686.54 3032 Q2688.99 3032 2691.28 3031.4 Q2693.6 3030.8 2695.86 3029.59 L2695.86 3033.62 Q2693.57 3034.59 2691.17 3035.1 Q2688.76 3035.61 2686.28 3035.61 Q2680.08 3035.61 2676.44 3032 Q2672.83 3028.39 2672.83 3022.23 Q2672.83 3015.87 2676.26 3012.14 Q2679.71 3008.39 2685.54 3008.39 Q2690.77 3008.39 2693.8 3011.77 Q2696.86 3015.13 2696.86 3020.91 M2692.6 3019.66 Q2692.55 3016.17 2690.63 3014.08 Q2688.74 3012 2685.59 3012 Q2682.02 3012 2679.87 3014.01 Q2677.74 3016.03 2677.42 3019.69 L2692.6 3019.66 Z" fill="#000000" fill-rule="nonzero" fill-opacity="1" /><path clip-path="url(#clip210)" d="M2715.63 3021.91 Q2710.47 3021.91 2708.48 3023.09 Q2706.49 3024.27 2706.49 3027.12 Q2706.49 3029.38 2707.97 3030.73 Q2709.48 3032.05 2712.05 3032.05 Q2715.59 3032.05 2717.72 3029.55 Q2719.87 3027.02 2719.87 3022.86 L2719.87 3021.91 L2715.63 3021.91 M2724.13 3020.15 L2724.13 3034.94 L2719.87 3034.94 L2719.87 3031 Q2718.41 3033.37 2716.24 3034.5 Q2714.06 3035.61 2710.91 3035.61 Q2706.93 3035.61 2704.57 3033.39 Q2702.23 3031.14 2702.23 3027.39 Q2702.23 3023.02 2705.15 3020.8 Q2708.09 3018.57 2713.9 3018.57 L2719.87 3018.57 L2719.87 3018.16 Q2719.87 3015.22 2717.92 3013.62 Q2716 3012 2712.51 3012 Q2710.29 3012 2708.18 3012.53 Q2706.07 3013.06 2704.13 3014.13 L2704.13 3010.19 Q2706.47 3009.29 2708.67 3008.85 Q2710.86 3008.39 2712.95 3008.39 Q2718.57 3008.39 2721.35 3011.31 Q2724.13 3014.22 2724.13 3020.15 Z" fill="#000000" fill-rule="nonzero" fill-opacity="1" /><path clip-path="url(#clip210)" d="M2732.9 2998.92 L2737.16 2998.92 L2737.16 3034.94 L2732.9 3034.94 L2732.9 2998.92 Z" fill="#000000" fill-rule="nonzero" fill-opacity="1" /><path clip-path="url(#clip210)" d="M2746.07 3009.01 L2750.33 3009.01 L2750.33 3034.94 L2746.07 3034.94 L2746.07 3009.01 M2746.07 2998.92 L2750.33 2998.92 L2750.33 3004.32 L2746.07 3004.32 L2746.07 2998.92 Z" fill="#000000" fill-rule="nonzero" fill-opacity="1" /><path clip-path="url(#clip210)" d="M2780.79 3019.29 L2780.79 3034.94 L2776.54 3034.94 L2776.54 3019.43 Q2776.54 3015.75 2775.1 3013.92 Q2773.67 3012.09 2770.8 3012.09 Q2767.35 3012.09 2765.36 3014.29 Q2763.36 3016.49 2763.36 3020.29 L2763.36 3034.94 L2759.08 3034.94 L2759.08 3009.01 L2763.36 3009.01 L2763.36 3013.04 Q2764.89 3010.7 2766.95 3009.55 Q2769.04 3008.39 2771.74 3008.39 Q2776.21 3008.39 2778.5 3011.17 Q2780.79 3013.92 2780.79 3019.29 Z" fill="#000000" fill-rule="nonzero" fill-opacity="1" /><path clip-path="url(#clip210)" d="M2806.35 3021.68 Q2806.35 3017.05 2804.43 3014.5 Q2802.53 3011.95 2799.08 3011.95 Q2795.66 3011.95 2793.73 3014.5 Q2791.84 3017.05 2791.84 3021.68 Q2791.84 3026.28 2793.73 3028.83 Q2795.66 3031.38 2799.08 3031.38 Q2802.53 3031.38 2804.43 3028.83 Q2806.35 3026.28 2806.35 3021.68 M2810.61 3031.72 Q2810.61 3038.34 2807.67 3041.56 Q2804.73 3044.8 2798.67 3044.8 Q2796.42 3044.8 2794.43 3044.45 Q2792.44 3044.13 2790.56 3043.44 L2790.56 3039.29 Q2792.44 3040.31 2794.27 3040.8 Q2796.1 3041.28 2797.99 3041.28 Q2802.18 3041.28 2804.27 3039.08 Q2806.35 3036.91 2806.35 3032.49 L2806.35 3030.38 Q2805.03 3032.67 2802.97 3033.81 Q2800.91 3034.94 2798.04 3034.94 Q2793.27 3034.94 2790.36 3031.31 Q2787.44 3027.67 2787.44 3021.68 Q2787.44 3015.66 2790.36 3012.02 Q2793.27 3008.39 2798.04 3008.39 Q2800.91 3008.39 2802.97 3009.52 Q2805.03 3010.66 2806.35 3012.95 L2806.35 3009.01 L2810.61 3009.01 L2810.61 3031.72 Z" fill="#000000" fill-rule="nonzero" fill-opacity="1" /><path clip-path="url(#clip210)" d="M1511.9 3075.48 L1521.48 3075.48 L1533.61 3107.82 L1545.8 3075.48 L1555.38 3075.48 L1555.38 3123 L1549.11 3123 L1549.11 3081.28 L1536.85 3113.87 L1530.39 3113.87 L1518.14 3081.28 L1518.14 3123 L1511.9 3123 L1511.9 3075.48 Z" fill="#000000" fill-rule="nonzero" fill-opacity="1" /><path clip-path="url(#clip210)" d="M1598.38 3103.72 L1598.38 3106.58 L1571.45 3106.58 Q1571.83 3112.63 1575.08 3115.81 Q1578.36 3118.96 1584.18 3118.96 Q1587.55 3118.96 1590.71 3118.13 Q1593.89 3117.31 1597.01 3115.65 L1597.01 3121.19 Q1593.86 3122.53 1590.55 3123.23 Q1587.24 3123.93 1583.83 3123.93 Q1575.3 3123.93 1570.3 3118.96 Q1565.34 3114 1565.34 3105.53 Q1565.34 3096.78 1570.05 3091.65 Q1574.79 3086.5 1582.81 3086.5 Q1590.01 3086.5 1594.18 3091.14 Q1598.38 3095.76 1598.38 3103.72 M1592.52 3102 Q1592.46 3097.19 1589.81 3094.33 Q1587.2 3091.46 1582.88 3091.46 Q1577.97 3091.46 1575.01 3094.23 Q1572.09 3097 1571.64 3102.03 L1592.52 3102 Z" fill="#000000" fill-rule="nonzero" fill-opacity="1" /><path clip-path="url(#clip210)" d="M1613.78 3077.23 L1613.78 3087.36 L1625.84 3087.36 L1625.84 3091.91 L1613.78 3091.91 L1613.78 3111.26 Q1613.78 3115.62 1614.96 3116.86 Q1616.17 3118.1 1619.83 3118.1 L1625.84 3118.1 L1625.84 3123 L1619.83 3123 Q1613.05 3123 1610.47 3120.49 Q1607.89 3117.94 1607.89 3111.26 L1607.89 3091.91 L1603.6 3091.91 L1603.6 3087.36 L1607.89 3087.36 L1607.89 3077.23 L1613.78 3077.23 Z" fill="#000000" fill-rule="nonzero" fill-opacity="1" /><path clip-path="url(#clip210)" d="M1649.75 3105.08 Q1642.65 3105.08 1639.91 3106.71 Q1637.18 3108.33 1637.18 3112.25 Q1637.18 3115.36 1639.21 3117.21 Q1641.28 3119.03 1644.81 3119.03 Q1649.68 3119.03 1652.61 3115.59 Q1655.57 3112.12 1655.57 3106.39 L1655.57 3105.08 L1649.75 3105.08 M1661.43 3102.67 L1661.43 3123 L1655.57 3123 L1655.57 3117.59 Q1653.57 3120.84 1650.58 3122.4 Q1647.58 3123.93 1643.25 3123.93 Q1637.78 3123.93 1634.53 3120.87 Q1631.32 3117.78 1631.32 3112.63 Q1631.32 3106.61 1635.33 3103.56 Q1639.37 3100.5 1647.36 3100.5 L1655.57 3100.5 L1655.57 3099.93 Q1655.57 3095.89 1652.9 3093.69 Q1650.26 3091.46 1645.45 3091.46 Q1642.4 3091.46 1639.5 3092.19 Q1636.6 3092.93 1633.93 3094.39 L1633.93 3088.98 Q1637.14 3087.74 1640.17 3087.13 Q1643.19 3086.5 1646.06 3086.5 Q1653.79 3086.5 1657.61 3090.51 Q1661.43 3094.52 1661.43 3102.67 Z" fill="#000000" fill-rule="nonzero" fill-opacity="1" /><path clip-path="url(#clip210)" d="M1703.12 3101.49 L1703.12 3123 L1697.27 3123 L1697.27 3101.68 Q1697.27 3096.62 1695.29 3094.1 Q1693.32 3091.59 1689.37 3091.59 Q1684.63 3091.59 1681.89 3094.61 Q1679.16 3097.64 1679.16 3102.86 L1679.16 3123 L1673.27 3123 L1673.27 3073.48 L1679.16 3073.48 L1679.16 3092.89 Q1681.26 3089.68 1684.09 3088.09 Q1686.96 3086.5 1690.68 3086.5 Q1696.82 3086.5 1699.97 3090.32 Q1703.12 3094.1 1703.12 3101.49 Z" fill="#000000" fill-rule="nonzero" fill-opacity="1" /><path clip-path="url(#clip210)" d="M1745.3 3103.72 L1745.3 3106.58 L1718.37 3106.58 Q1718.75 3112.63 1722 3115.81 Q1725.28 3118.96 1731.1 3118.96 Q1734.48 3118.96 1737.63 3118.13 Q1740.81 3117.31 1743.93 3115.65 L1743.93 3121.19 Q1740.78 3122.53 1737.47 3123.23 Q1734.16 3123.93 1730.75 3123.93 Q1722.22 3123.93 1717.22 3118.96 Q1712.26 3114 1712.26 3105.53 Q1712.26 3096.78 1716.97 3091.65 Q1721.71 3086.5 1729.73 3086.5 Q1736.93 3086.5 1741.1 3091.14 Q1745.3 3095.76 1745.3 3103.72 M1739.44 3102 Q1739.38 3097.19 1736.74 3094.33 Q1734.13 3091.46 1729.8 3091.46 Q1724.89 3091.46 1721.93 3094.23 Q1719.01 3097 1718.56 3102.03 L1739.44 3102 Z" fill="#000000" fill-rule="nonzero" fill-opacity="1" /><path clip-path="url(#clip210)" d="M1754.3 3108.94 L1754.3 3087.36 L1760.16 3087.36 L1760.16 3108.71 Q1760.16 3113.77 1762.13 3116.32 Q1764.11 3118.83 1768.05 3118.83 Q1772.8 3118.83 1775.53 3115.81 Q1778.3 3112.79 1778.3 3107.57 L1778.3 3087.36 L1784.16 3087.36 L1784.16 3123 L1778.3 3123 L1778.3 3117.53 Q1776.17 3120.78 1773.34 3122.37 Q1770.54 3123.93 1766.81 3123.93 Q1760.67 3123.93 1757.49 3120.11 Q1754.3 3116.29 1754.3 3108.94 M1769.04 3086.5 L1769.04 3086.5 Z" fill="#000000" fill-rule="nonzero" fill-opacity="1" /><path clip-path="url(#clip210)" d="M1816.88 3092.83 Q1815.89 3092.26 1814.72 3092 Q1813.57 3091.72 1812.17 3091.72 Q1807.2 3091.72 1804.53 3094.96 Q1801.89 3098.18 1801.89 3104.23 L1801.89 3123 L1796 3123 L1796 3087.36 L1801.89 3087.36 L1801.89 3092.89 Q1803.73 3089.65 1806.69 3088.09 Q1809.65 3086.5 1813.89 3086.5 Q1814.49 3086.5 1815.22 3086.59 Q1815.96 3086.66 1816.85 3086.81 L1816.88 3092.83 Z" fill="#000000" fill-rule="nonzero" fill-opacity="1" /><path clip-path="url(#clip210)" d="M1830.37 3070.87 L1836.71 3070.87 L1826.33 3082.84 L1821.46 3082.84 L1830.37 3070.87 M1823.02 3087.36 L1828.88 3087.36 L1828.88 3123 L1823.02 3123 L1823.02 3087.36 M1825.95 3086.5 L1825.95 3086.5 Z" fill="#000000" fill-rule="nonzero" fill-opacity="1" /><path clip-path="url(#clip210)" d="M1863.86 3088.41 L1863.86 3093.94 Q1861.38 3092.67 1858.7 3092.03 Q1856.03 3091.4 1853.16 3091.4 Q1848.8 3091.4 1846.61 3092.73 Q1844.44 3094.07 1844.44 3096.75 Q1844.44 3098.78 1846 3099.96 Q1847.56 3101.11 1852.27 3102.16 L1854.28 3102.6 Q1860.52 3103.94 1863.13 3106.39 Q1865.77 3108.81 1865.77 3113.17 Q1865.77 3118.13 1861.82 3121.03 Q1857.91 3123.93 1851.03 3123.93 Q1848.17 3123.93 1845.05 3123.35 Q1841.96 3122.81 1838.52 3121.7 L1838.52 3115.65 Q1841.77 3117.34 1844.92 3118.2 Q1848.07 3119.03 1851.16 3119.03 Q1855.3 3119.03 1857.52 3117.62 Q1859.75 3116.19 1859.75 3113.61 Q1859.75 3111.23 1858.13 3109.95 Q1856.54 3108.68 1851.1 3107.5 L1849.06 3107.03 Q1843.62 3105.88 1841.2 3103.52 Q1838.78 3101.14 1838.78 3097 Q1838.78 3091.97 1842.34 3089.23 Q1845.91 3086.5 1852.46 3086.5 Q1855.71 3086.5 1858.57 3086.97 Q1861.44 3087.45 1863.86 3088.41 Z" fill="#000000" fill-rule="nonzero" fill-opacity="1" /><path clip-path="url(#clip210)" d="M1880.89 3077.23 L1880.89 3087.36 L1892.95 3087.36 L1892.95 3091.91 L1880.89 3091.91 L1880.89 3111.26 Q1880.89 3115.62 1882.06 3116.86 Q1883.27 3118.1 1886.93 3118.1 L1892.95 3118.1 L1892.95 3123 L1886.93 3123 Q1880.15 3123 1877.58 3120.49 Q1875 3117.94 1875 3111.26 L1875 3091.91 L1870.7 3091.91 L1870.7 3087.36 L1875 3087.36 L1875 3077.23 L1880.89 3077.23 Z" fill="#000000" fill-rule="nonzero" fill-opacity="1" /><path clip-path="url(#clip210)" d="M1900.65 3087.36 L1906.51 3087.36 L1906.51 3123 L1900.65 3123 L1900.65 3087.36 M1900.65 3073.48 L1906.51 3073.48 L1906.51 3080.89 L1900.65 3080.89 L1900.65 3073.48 Z" fill="#000000" fill-rule="nonzero" fill-opacity="1" /><path clip-path="url(#clip210)" d="M1944.42 3088.72 L1944.42 3094.2 Q1941.93 3092.83 1939.42 3092.16 Q1936.94 3091.46 1934.39 3091.46 Q1928.69 3091.46 1925.54 3095.09 Q1922.39 3098.69 1922.39 3105.21 Q1922.39 3111.74 1925.54 3115.36 Q1928.69 3118.96 1934.39 3118.96 Q1936.94 3118.96 1939.42 3118.29 Q1941.93 3117.59 1944.42 3116.22 L1944.42 3121.64 Q1941.97 3122.78 1939.32 3123.35 Q1936.71 3123.93 1933.75 3123.93 Q1925.7 3123.93 1920.96 3118.87 Q1916.22 3113.81 1916.22 3105.21 Q1916.22 3096.49 1920.99 3091.49 Q1925.8 3086.5 1934.14 3086.5 Q1936.84 3086.5 1939.42 3087.07 Q1942 3087.61 1944.42 3088.72 Z" fill="#000000" fill-rule="nonzero" fill-opacity="1" /><path clip-path="url(#clip210)" d="M1970.8 3105.08 Q1963.7 3105.08 1960.97 3106.71 Q1958.23 3108.33 1958.23 3112.25 Q1958.23 3115.36 1960.27 3117.21 Q1962.34 3119.03 1965.87 3119.03 Q1970.74 3119.03 1973.67 3115.59 Q1976.63 3112.12 1976.63 3106.39 L1976.63 3105.08 L1970.8 3105.08 M1982.48 3102.67 L1982.48 3123 L1976.63 3123 L1976.63 3117.59 Q1974.62 3120.84 1971.63 3122.4 Q1968.64 3123.93 1964.31 3123.93 Q1958.83 3123.93 1955.59 3120.87 Q1952.37 3117.78 1952.37 3112.63 Q1952.37 3106.61 1956.38 3103.56 Q1960.43 3100.5 1968.42 3100.5 L1976.63 3100.5 L1976.63 3099.93 Q1976.63 3095.89 1973.95 3093.69 Q1971.31 3091.46 1966.51 3091.46 Q1963.45 3091.46 1960.55 3092.19 Q1957.66 3092.93 1954.98 3094.39 L1954.98 3088.98 Q1958.2 3087.74 1961.22 3087.13 Q1964.25 3086.5 1967.11 3086.5 Q1974.84 3086.5 1978.66 3090.51 Q1982.48 3094.52 1982.48 3102.67 Z" fill="#000000" fill-rule="nonzero" fill-opacity="1" /><polyline clip-path="url(#clip212)" style="stroke:#000000; stroke-linecap:round; stroke-linejoin:round; stroke-width:2; stroke-opacity:0.1; fill:none" points="341.626,2474.8 3152.76,2474.8 "/>
<polyline clip-path="url(#clip212)" style="stroke:#000000; stroke-linecap:round; stroke-linejoin:round; stroke-width:2; stroke-opacity:0.1; fill:none" points="341.626,1861.06 3152.76,1861.06 "/>
<polyline clip-path="url(#clip212)" style="stroke:#000000; stroke-linecap:round; stroke-linejoin:round; stroke-width:2; stroke-opacity:0.1; fill:none" points="341.626,1247.32 3152.76,1247.32 "/>
<polyline clip-path="url(#clip212)" style="stroke:#000000; stroke-linecap:round; stroke-linejoin:round; stroke-width:2; stroke-opacity:0.1; fill:none" points="341.626,633.574 3152.76,633.574 "/>
<polyline clip-path="url(#clip210)" style="stroke:#000000; stroke-linecap:round; stroke-linejoin:round; stroke-width:4; stroke-opacity:1; fill:none" points="341.626,2914.3 341.626,47.2441 "/>
<polyline clip-path="url(#clip210)" style="stroke:#000000; stroke-linecap:round; stroke-linejoin:round; stroke-width:4; stroke-opacity:1; fill:none" points="341.626,2474.8 360.523,2474.8 "/>
<polyline clip-path="url(#clip210)" style="stroke:#000000; stroke-linecap:round; stroke-linejoin:round; stroke-width:4; stroke-opacity:1; fill:none" points="341.626,1861.06 360.523,1861.06 "/>
<polyline clip-path="url(#clip210)" style="stroke:#000000; stroke-linecap:round; stroke-linejoin:round; stroke-width:4; stroke-opacity:1; fill:none" points="341.626,1247.32 360.523,1247.32 "/>
<polyline clip-path="url(#clip210)" style="stroke:#000000; stroke-linecap:round; stroke-linejoin:round; stroke-width:4; stroke-opacity:1; fill:none" points="341.626,633.574 360.523,633.574 "/>
<path clip-path="url(#clip210)" d="M145.965 2460.6 Q142.353 2460.6 140.525 2464.16 Q138.719 2467.7 138.719 2474.83 Q138.719 2481.94 140.525 2485.5 Q142.353 2489.05 145.965 2489.05 Q149.599 2489.05 151.404 2485.5 Q153.233 2481.94 153.233 2474.83 Q153.233 2467.7 151.404 2464.16 Q149.599 2460.6 145.965 2460.6 M145.965 2456.89 Q151.775 2456.89 154.83 2461.5 Q157.909 2466.08 157.909 2474.83 Q157.909 2483.56 154.83 2488.17 Q151.775 2492.75 145.965 2492.75 Q140.154 2492.75 137.076 2488.17 Q134.02 2483.56 134.02 2474.83 Q134.02 2466.08 137.076 2461.5 Q140.154 2456.89 145.965 2456.89 Z" fill="#000000" fill-rule="nonzero" fill-opacity="1" /><path clip-path="url(#clip210)" d="M166.126 2486.2 L171.011 2486.2 L171.011 2492.08 L166.126 2492.08 L166.126 2486.2 Z" fill="#000000" fill-rule="nonzero" fill-opacity="1" /><path clip-path="url(#clip210)" d="M191.196 2460.6 Q187.585 2460.6 185.756 2464.16 Q183.95 2467.7 183.95 2474.83 Q183.95 2481.94 185.756 2485.5 Q187.585 2489.05 191.196 2489.05 Q194.83 2489.05 196.636 2485.5 Q198.464 2481.94 198.464 2474.83 Q198.464 2467.7 196.636 2464.16 Q194.83 2460.6 191.196 2460.6 M191.196 2456.89 Q197.006 2456.89 200.061 2461.5 Q203.14 2466.08 203.14 2474.83 Q203.14 2483.56 200.061 2488.17 Q197.006 2492.75 191.196 2492.75 Q185.386 2492.75 182.307 2488.17 Q179.251 2483.56 179.251 2474.83 Q179.251 2466.08 182.307 2461.5 Q185.386 2456.89 191.196 2456.89 Z" fill="#000000" fill-rule="nonzero" fill-opacity="1" /><path clip-path="url(#clip210)" d="M221.358 2460.6 Q217.747 2460.6 215.918 2464.16 Q214.112 2467.7 214.112 2474.83 Q214.112 2481.94 215.918 2485.5 Q217.747 2489.05 221.358 2489.05 Q224.992 2489.05 226.797 2485.5 Q228.626 2481.94 228.626 2474.83 Q228.626 2467.7 226.797 2464.16 Q224.992 2460.6 221.358 2460.6 M221.358 2456.89 Q227.168 2456.89 230.223 2461.5 Q233.302 2466.08 233.302 2474.83 Q233.302 2483.56 230.223 2488.17 Q227.168 2492.75 221.358 2492.75 Q215.547 2492.75 212.469 2488.17 Q209.413 2483.56 209.413 2474.83 Q209.413 2466.08 212.469 2461.5 Q215.547 2456.89 221.358 2456.89 Z" fill="#000000" fill-rule="nonzero" fill-opacity="1" /><path clip-path="url(#clip210)" d="M245.547 2488.14 L261.867 2488.14 L261.867 2492.08 L239.922 2492.08 L239.922 2488.14 Q242.584 2485.39 247.168 2480.76 Q251.774 2476.11 252.955 2474.76 Q255.2 2472.24 256.08 2470.5 Q256.982 2468.74 256.982 2467.05 Q256.982 2464.3 255.038 2462.56 Q253.117 2460.83 250.015 2460.83 Q247.816 2460.83 245.362 2461.59 Q242.932 2462.36 240.154 2463.91 L240.154 2459.18 Q242.978 2458.05 245.432 2457.47 Q247.885 2456.89 249.922 2456.89 Q255.293 2456.89 258.487 2459.58 Q261.682 2462.26 261.682 2466.75 Q261.682 2468.88 260.871 2470.8 Q260.084 2472.7 257.978 2475.3 Q257.399 2475.97 254.297 2479.18 Q251.195 2482.38 245.547 2488.14 Z" fill="#000000" fill-rule="nonzero" fill-opacity="1" /><path clip-path="url(#clip210)" d="M281.681 2460.6 Q278.07 2460.6 276.242 2464.16 Q274.436 2467.7 274.436 2474.83 Q274.436 2481.94 276.242 2485.5 Q278.07 2489.05 281.681 2489.05 Q285.316 2489.05 287.121 2485.5 Q288.95 2481.94 288.95 2474.83 Q288.95 2467.7 287.121 2464.16 Q285.316 2460.6 281.681 2460.6 M281.681 2456.89 Q287.492 2456.89 290.547 2461.5 Q293.626 2466.08 293.626 2474.83 Q293.626 2483.56 290.547 2488.17 Q287.492 2492.75 281.681 2492.75 Q275.871 2492.75 272.793 2488.17 Q269.737 2483.56 269.737 2474.83 Q269.737 2466.08 272.793 2461.5 Q275.871 2456.89 281.681 2456.89 Z" fill="#000000" fill-rule="nonzero" fill-opacity="1" /><path clip-path="url(#clip210)" d="M146.96 1846.86 Q143.349 1846.86 141.52 1850.42 Q139.715 1853.96 139.715 1861.09 Q139.715 1868.2 141.52 1871.76 Q143.349 1875.3 146.96 1875.3 Q150.594 1875.3 152.4 1871.76 Q154.228 1868.2 154.228 1861.09 Q154.228 1853.96 152.4 1850.42 Q150.594 1846.86 146.96 1846.86 M146.96 1843.15 Q152.77 1843.15 155.826 1847.76 Q158.904 1852.34 158.904 1861.09 Q158.904 1869.82 155.826 1874.42 Q152.77 1879.01 146.96 1879.01 Q141.15 1879.01 138.071 1874.42 Q135.016 1869.82 135.016 1861.09 Q135.016 1852.34 138.071 1847.76 Q141.15 1843.15 146.96 1843.15 Z" fill="#000000" fill-rule="nonzero" fill-opacity="1" /><path clip-path="url(#clip210)" d="M167.122 1872.46 L172.006 1872.46 L172.006 1878.34 L167.122 1878.34 L167.122 1872.46 Z" fill="#000000" fill-rule="nonzero" fill-opacity="1" /><path clip-path="url(#clip210)" d="M192.191 1846.86 Q188.58 1846.86 186.751 1850.42 Q184.946 1853.96 184.946 1861.09 Q184.946 1868.2 186.751 1871.76 Q188.58 1875.3 192.191 1875.3 Q195.825 1875.3 197.631 1871.76 Q199.46 1868.2 199.46 1861.09 Q199.46 1853.96 197.631 1850.42 Q195.825 1846.86 192.191 1846.86 M192.191 1843.15 Q198.001 1843.15 201.057 1847.76 Q204.136 1852.34 204.136 1861.09 Q204.136 1869.82 201.057 1874.42 Q198.001 1879.01 192.191 1879.01 Q186.381 1879.01 183.302 1874.42 Q180.247 1869.82 180.247 1861.09 Q180.247 1852.34 183.302 1847.76 Q186.381 1843.15 192.191 1843.15 Z" fill="#000000" fill-rule="nonzero" fill-opacity="1" /><path clip-path="url(#clip210)" d="M222.353 1846.86 Q218.742 1846.86 216.913 1850.42 Q215.108 1853.96 215.108 1861.09 Q215.108 1868.2 216.913 1871.76 Q218.742 1875.3 222.353 1875.3 Q225.987 1875.3 227.793 1871.76 Q229.621 1868.2 229.621 1861.09 Q229.621 1853.96 227.793 1850.42 Q225.987 1846.86 222.353 1846.86 M222.353 1843.15 Q228.163 1843.15 231.219 1847.76 Q234.297 1852.34 234.297 1861.09 Q234.297 1869.82 231.219 1874.42 Q228.163 1879.01 222.353 1879.01 Q216.543 1879.01 213.464 1874.42 Q210.409 1869.82 210.409 1861.09 Q210.409 1852.34 213.464 1847.76 Q216.543 1843.15 222.353 1843.15 Z" fill="#000000" fill-rule="nonzero" fill-opacity="1" /><path clip-path="url(#clip210)" d="M246.543 1874.4 L262.862 1874.4 L262.862 1878.34 L240.918 1878.34 L240.918 1874.4 Q243.58 1871.65 248.163 1867.02 Q252.77 1862.36 253.95 1861.02 Q256.195 1858.5 257.075 1856.76 Q257.978 1855 257.978 1853.31 Q257.978 1850.56 256.033 1848.82 Q254.112 1847.09 251.01 1847.09 Q248.811 1847.09 246.358 1847.85 Q243.927 1848.61 241.149 1850.17 L241.149 1845.44 Q243.973 1844.31 246.427 1843.73 Q248.881 1843.15 250.918 1843.15 Q256.288 1843.15 259.482 1845.84 Q262.677 1848.52 262.677 1853.01 Q262.677 1855.14 261.867 1857.06 Q261.08 1858.96 258.973 1861.55 Q258.394 1862.23 255.293 1865.44 Q252.191 1868.64 246.543 1874.4 Z" fill="#000000" fill-rule="nonzero" fill-opacity="1" /><path clip-path="url(#clip210)" d="M272.723 1843.78 L291.08 1843.78 L291.08 1847.71 L277.006 1847.71 L277.006 1856.18 Q278.024 1855.84 279.043 1855.67 Q280.061 1855.49 281.08 1855.49 Q286.867 1855.49 290.246 1858.66 Q293.626 1861.83 293.626 1867.25 Q293.626 1872.83 290.154 1875.93 Q286.681 1879.01 280.362 1879.01 Q278.186 1879.01 275.918 1878.64 Q273.672 1878.27 271.265 1877.53 L271.265 1872.83 Q273.348 1873.96 275.57 1874.52 Q277.793 1875.07 280.269 1875.07 Q284.274 1875.07 286.612 1872.97 Q288.95 1870.86 288.95 1867.25 Q288.95 1863.64 286.612 1861.53 Q284.274 1859.42 280.269 1859.42 Q278.394 1859.42 276.519 1859.84 Q274.668 1860.26 272.723 1861.14 L272.723 1843.78 Z" fill="#000000" fill-rule="nonzero" fill-opacity="1" /><path clip-path="url(#clip210)" d="M145.965 1233.11 Q142.353 1233.11 140.525 1236.68 Q138.719 1240.22 138.719 1247.35 Q138.719 1254.46 140.525 1258.02 Q142.353 1261.56 145.965 1261.56 Q149.599 1261.56 151.404 1258.02 Q153.233 1254.46 153.233 1247.35 Q153.233 1240.22 151.404 1236.68 Q149.599 1233.11 145.965 1233.11 M145.965 1229.41 Q151.775 1229.41 154.83 1234.02 Q157.909 1238.6 157.909 1247.35 Q157.909 1256.08 154.83 1260.68 Q151.775 1265.27 145.965 1265.27 Q140.154 1265.27 137.076 1260.68 Q134.02 1256.08 134.02 1247.35 Q134.02 1238.6 137.076 1234.02 Q140.154 1229.41 145.965 1229.41 Z" fill="#000000" fill-rule="nonzero" fill-opacity="1" /><path clip-path="url(#clip210)" d="M166.126 1258.72 L171.011 1258.72 L171.011 1264.6 L166.126 1264.6 L166.126 1258.72 Z" fill="#000000" fill-rule="nonzero" fill-opacity="1" /><path clip-path="url(#clip210)" d="M191.196 1233.11 Q187.585 1233.11 185.756 1236.68 Q183.95 1240.22 183.95 1247.35 Q183.95 1254.46 185.756 1258.02 Q187.585 1261.56 191.196 1261.56 Q194.83 1261.56 196.636 1258.02 Q198.464 1254.46 198.464 1247.35 Q198.464 1240.22 196.636 1236.68 Q194.83 1233.11 191.196 1233.11 M191.196 1229.41 Q197.006 1229.41 200.061 1234.02 Q203.14 1238.6 203.14 1247.35 Q203.14 1256.08 200.061 1260.68 Q197.006 1265.27 191.196 1265.27 Q185.386 1265.27 182.307 1260.68 Q179.251 1256.08 179.251 1247.35 Q179.251 1238.6 182.307 1234.02 Q185.386 1229.41 191.196 1229.41 Z" fill="#000000" fill-rule="nonzero" fill-opacity="1" /><path clip-path="url(#clip210)" d="M221.358 1233.11 Q217.747 1233.11 215.918 1236.68 Q214.112 1240.22 214.112 1247.35 Q214.112 1254.46 215.918 1258.02 Q217.747 1261.56 221.358 1261.56 Q224.992 1261.56 226.797 1258.02 Q228.626 1254.46 228.626 1247.35 Q228.626 1240.22 226.797 1236.68 Q224.992 1233.11 221.358 1233.11 M221.358 1229.41 Q227.168 1229.41 230.223 1234.02 Q233.302 1238.6 233.302 1247.35 Q233.302 1256.08 230.223 1260.68 Q227.168 1265.27 221.358 1265.27 Q215.547 1265.27 212.469 1260.68 Q209.413 1256.08 209.413 1247.35 Q209.413 1238.6 212.469 1234.02 Q215.547 1229.41 221.358 1229.41 Z" fill="#000000" fill-rule="nonzero" fill-opacity="1" /><path clip-path="url(#clip210)" d="M255.686 1245.96 Q259.043 1246.68 260.918 1248.95 Q262.816 1251.22 262.816 1254.55 Q262.816 1259.66 259.297 1262.47 Q255.779 1265.27 249.297 1265.27 Q247.121 1265.27 244.807 1264.83 Q242.515 1264.41 240.061 1263.55 L240.061 1259.04 Q242.006 1260.17 244.32 1260.75 Q246.635 1261.33 249.158 1261.33 Q253.557 1261.33 255.848 1259.6 Q258.163 1257.86 258.163 1254.55 Q258.163 1251.49 256.01 1249.78 Q253.881 1248.04 250.061 1248.04 L246.033 1248.04 L246.033 1244.2 L250.246 1244.2 Q253.695 1244.2 255.524 1242.84 Q257.353 1241.45 257.353 1238.85 Q257.353 1236.19 255.455 1234.78 Q253.58 1233.35 250.061 1233.35 Q248.14 1233.35 245.941 1233.76 Q243.742 1234.18 241.103 1235.06 L241.103 1230.89 Q243.765 1230.15 246.08 1229.78 Q248.418 1229.41 250.478 1229.41 Q255.802 1229.41 258.904 1231.84 Q262.006 1234.25 262.006 1238.37 Q262.006 1241.24 260.362 1243.23 Q258.719 1245.2 255.686 1245.96 Z" fill="#000000" fill-rule="nonzero" fill-opacity="1" /><path clip-path="url(#clip210)" d="M281.681 1233.11 Q278.07 1233.11 276.242 1236.68 Q274.436 1240.22 274.436 1247.35 Q274.436 1254.46 276.242 1258.02 Q278.07 1261.56 281.681 1261.56 Q285.316 1261.56 287.121 1258.02 Q288.95 1254.46 288.95 1247.35 Q288.95 1240.22 287.121 1236.68 Q285.316 1233.11 281.681 1233.11 M281.681 1229.41 Q287.492 1229.41 290.547 1234.02 Q293.626 1238.6 293.626 1247.35 Q293.626 1256.08 290.547 1260.68 Q287.492 1265.27 281.681 1265.27 Q275.871 1265.27 272.793 1260.68 Q269.737 1256.08 269.737 1247.35 Q269.737 1238.6 272.793 1234.02 Q275.871 1229.41 281.681 1229.41 Z" fill="#000000" fill-rule="nonzero" fill-opacity="1" /><path clip-path="url(#clip210)" d="M146.96 619.373 Q143.349 619.373 141.52 622.938 Q139.715 626.48 139.715 633.609 Q139.715 640.716 141.52 644.28 Q143.349 647.822 146.96 647.822 Q150.594 647.822 152.4 644.28 Q154.228 640.716 154.228 633.609 Q154.228 626.48 152.4 622.938 Q150.594 619.373 146.96 619.373 M146.96 615.669 Q152.77 615.669 155.826 620.276 Q158.904 624.859 158.904 633.609 Q158.904 642.336 155.826 646.942 Q152.77 651.526 146.96 651.526 Q141.15 651.526 138.071 646.942 Q135.016 642.336 135.016 633.609 Q135.016 624.859 138.071 620.276 Q141.15 615.669 146.96 615.669 Z" fill="#000000" fill-rule="nonzero" fill-opacity="1" /><path clip-path="url(#clip210)" d="M167.122 644.975 L172.006 644.975 L172.006 650.854 L167.122 650.854 L167.122 644.975 Z" fill="#000000" fill-rule="nonzero" fill-opacity="1" /><path clip-path="url(#clip210)" d="M192.191 619.373 Q188.58 619.373 186.751 622.938 Q184.946 626.48 184.946 633.609 Q184.946 640.716 186.751 644.28 Q188.58 647.822 192.191 647.822 Q195.825 647.822 197.631 644.28 Q199.46 640.716 199.46 633.609 Q199.46 626.48 197.631 622.938 Q195.825 619.373 192.191 619.373 M192.191 615.669 Q198.001 615.669 201.057 620.276 Q204.136 624.859 204.136 633.609 Q204.136 642.336 201.057 646.942 Q198.001 651.526 192.191 651.526 Q186.381 651.526 183.302 646.942 Q180.247 642.336 180.247 633.609 Q180.247 624.859 183.302 620.276 Q186.381 615.669 192.191 615.669 Z" fill="#000000" fill-rule="nonzero" fill-opacity="1" /><path clip-path="url(#clip210)" d="M222.353 619.373 Q218.742 619.373 216.913 622.938 Q215.108 626.48 215.108 633.609 Q215.108 640.716 216.913 644.28 Q218.742 647.822 222.353 647.822 Q225.987 647.822 227.793 644.28 Q229.621 640.716 229.621 633.609 Q229.621 626.48 227.793 622.938 Q225.987 619.373 222.353 619.373 M222.353 615.669 Q228.163 615.669 231.219 620.276 Q234.297 624.859 234.297 633.609 Q234.297 642.336 231.219 646.942 Q228.163 651.526 222.353 651.526 Q216.543 651.526 213.464 646.942 Q210.409 642.336 210.409 633.609 Q210.409 624.859 213.464 620.276 Q216.543 615.669 222.353 615.669 Z" fill="#000000" fill-rule="nonzero" fill-opacity="1" /><path clip-path="url(#clip210)" d="M256.682 632.22 Q260.038 632.938 261.913 635.206 Q263.811 637.475 263.811 640.808 Q263.811 645.924 260.293 648.725 Q256.774 651.526 250.293 651.526 Q248.117 651.526 245.802 651.086 Q243.51 650.669 241.057 649.813 L241.057 645.299 Q243.001 646.433 245.316 647.012 Q247.631 647.591 250.154 647.591 Q254.552 647.591 256.844 645.855 Q259.158 644.118 259.158 640.808 Q259.158 637.753 257.006 636.04 Q254.876 634.304 251.057 634.304 L247.029 634.304 L247.029 630.461 L251.242 630.461 Q254.691 630.461 256.52 629.095 Q258.348 627.706 258.348 625.114 Q258.348 622.452 256.45 621.04 Q254.575 619.605 251.057 619.605 Q249.135 619.605 246.936 620.021 Q244.737 620.438 242.098 621.318 L242.098 617.151 Q244.76 616.41 247.075 616.04 Q249.413 615.669 251.473 615.669 Q256.797 615.669 259.899 618.1 Q263.001 620.507 263.001 624.628 Q263.001 627.498 261.357 629.489 Q259.714 631.456 256.682 632.22 Z" fill="#000000" fill-rule="nonzero" fill-opacity="1" /><path clip-path="url(#clip210)" d="M272.723 616.294 L291.08 616.294 L291.08 620.23 L277.006 620.23 L277.006 628.702 Q278.024 628.355 279.043 628.193 Q280.061 628.007 281.08 628.007 Q286.867 628.007 290.246 631.179 Q293.626 634.35 293.626 639.767 Q293.626 645.345 290.154 648.447 Q286.681 651.526 280.362 651.526 Q278.186 651.526 275.918 651.155 Q273.672 650.785 271.265 650.044 L271.265 645.345 Q273.348 646.48 275.57 647.035 Q277.793 647.591 280.269 647.591 Q284.274 647.591 286.612 645.484 Q288.95 643.378 288.95 639.767 Q288.95 636.155 286.612 634.049 Q284.274 631.943 280.269 631.943 Q278.394 631.943 276.519 632.359 Q274.668 632.776 272.723 633.655 L272.723 616.294 Z" fill="#000000" fill-rule="nonzero" fill-opacity="1" /><path clip-path="url(#clip210)" d="M27.9044 1648.01 L34.6839 1648.01 Q31.6602 1651.26 30.1643 1654.95 Q28.6683 1658.61 28.6683 1662.75 Q28.6683 1670.9 33.6654 1675.23 Q38.6307 1679.56 48.0519 1679.56 Q57.4413 1679.56 62.4384 1675.23 Q67.4036 1670.9 67.4036 1662.75 Q67.4036 1658.61 65.9077 1654.95 Q64.4118 1651.26 61.3881 1648.01 L68.1039 1648.01 Q70.3955 1651.39 71.5414 1655.18 Q72.6872 1658.93 72.6872 1663.13 Q72.6872 1673.92 66.0987 1680.13 Q59.4783 1686.34 48.0519 1686.34 Q36.5936 1686.34 30.0051 1680.13 Q23.3848 1673.92 23.3848 1663.13 Q23.3848 1658.87 24.5306 1655.11 Q25.6446 1651.33 27.9044 1648.01 Z" fill="#000000" fill-rule="nonzero" fill-opacity="1" /><path clip-path="url(#clip210)" d="M52.4761 1607.85 L55.3406 1607.85 L55.3406 1634.77 Q61.3881 1634.39 64.5709 1631.15 Q67.7219 1627.87 67.7219 1622.04 Q67.7219 1618.67 66.8944 1615.52 Q66.0669 1612.34 64.4118 1609.22 L69.9499 1609.22 Q71.2867 1612.37 71.987 1615.68 Q72.6872 1618.99 72.6872 1622.39 Q72.6872 1630.92 67.7219 1635.92 Q62.7567 1640.89 54.2903 1640.89 Q45.5374 1640.89 40.4131 1636.17 Q35.2568 1631.43 35.2568 1623.41 Q35.2568 1616.22 39.9038 1612.05 Q44.5189 1607.85 52.4761 1607.85 M50.7573 1613.7 Q45.9512 1613.77 43.0866 1616.41 Q40.2221 1619.02 40.2221 1623.35 Q40.2221 1628.25 42.9912 1631.21 Q45.7602 1634.14 50.7892 1634.58 L50.7573 1613.7 Z" fill="#000000" fill-rule="nonzero" fill-opacity="1" /><path clip-path="url(#clip210)" d="M50.2481 1568.6 L71.7642 1568.6 L71.7642 1574.46 L50.439 1574.46 Q45.3783 1574.46 42.8638 1576.43 Q40.3494 1578.41 40.3494 1582.35 Q40.3494 1587.1 43.3731 1589.83 Q46.3968 1592.57 51.6167 1592.57 L71.7642 1592.57 L71.7642 1598.46 L36.1162 1598.46 L36.1162 1592.57 L41.6544 1592.57 Q38.4397 1590.47 36.8483 1587.64 Q35.2568 1584.77 35.2568 1581.05 Q35.2568 1574.9 39.0763 1571.75 Q42.8638 1568.6 50.2481 1568.6 Z" fill="#000000" fill-rule="nonzero" fill-opacity="1" /><path clip-path="url(#clip210)" d="M25.9947 1551.13 L36.1162 1551.13 L36.1162 1539.07 L40.6677 1539.07 L40.6677 1551.13 L60.0194 1551.13 Q64.3799 1551.13 65.6213 1549.95 Q66.8626 1548.74 66.8626 1545.08 L66.8626 1539.07 L71.7642 1539.07 L71.7642 1545.08 Q71.7642 1551.86 69.2497 1554.44 Q66.7034 1557.02 60.0194 1557.02 L40.6677 1557.02 L40.6677 1561.31 L36.1162 1561.31 L36.1162 1557.02 L25.9947 1557.02 L25.9947 1551.13 Z" fill="#000000" fill-rule="nonzero" fill-opacity="1" /><path clip-path="url(#clip210)" d="M41.5907 1510.71 Q41.0178 1511.69 40.7632 1512.87 Q40.4767 1514.02 40.4767 1515.42 Q40.4767 1520.38 43.7232 1523.06 Q46.9379 1525.7 52.9853 1525.7 L71.7642 1525.7 L71.7642 1531.59 L36.1162 1531.59 L36.1162 1525.7 L41.6544 1525.7 Q38.4079 1523.85 36.8483 1520.89 Q35.2568 1517.93 35.2568 1513.7 Q35.2568 1513.09 35.3523 1512.36 Q35.416 1511.63 35.5751 1510.74 L41.5907 1510.71 Z" fill="#000000" fill-rule="nonzero" fill-opacity="1" /><path clip-path="url(#clip210)" d="M53.8447 1488.36 Q53.8447 1495.46 55.4679 1498.2 Q57.0912 1500.94 61.0061 1500.94 Q64.1253 1500.94 65.9714 1498.9 Q67.7856 1496.83 67.7856 1493.3 Q67.7856 1488.43 64.3481 1485.5 Q60.8788 1482.54 55.1497 1482.54 L53.8447 1482.54 L53.8447 1488.36 M51.4257 1476.68 L71.7642 1476.68 L71.7642 1482.54 L66.3533 1482.54 Q69.5998 1484.54 71.1594 1487.54 Q72.6872 1490.53 72.6872 1494.86 Q72.6872 1500.33 69.6316 1503.58 Q66.5443 1506.79 61.3881 1506.79 Q55.3725 1506.79 52.3169 1502.78 Q49.2614 1498.74 49.2614 1490.75 L49.2614 1482.54 L48.6885 1482.54 Q44.6462 1482.54 42.4501 1485.21 Q40.2221 1487.85 40.2221 1492.66 Q40.2221 1495.72 40.9541 1498.61 Q41.6862 1501.51 43.1503 1504.18 L37.7395 1504.18 Q36.4981 1500.97 35.8934 1497.94 Q35.2568 1494.92 35.2568 1492.06 Q35.2568 1484.32 39.2672 1480.5 Q43.2776 1476.68 51.4257 1476.68 Z" fill="#000000" fill-rule="nonzero" fill-opacity="1" /><path clip-path="url(#clip210)" d="M22.239 1464.62 L22.239 1458.76 L71.7642 1458.76 L71.7642 1464.62 L22.239 1464.62 Z" fill="#000000" fill-rule="nonzero" fill-opacity="1" /><path clip-path="url(#clip210)" d="M36.1162 1446.51 L36.1162 1440.65 L71.7642 1440.65 L71.7642 1446.51 L36.1162 1446.51 M22.239 1446.51 L22.239 1440.65 L29.655 1440.65 L29.655 1446.51 L22.239 1446.51 Z" fill="#000000" fill-rule="nonzero" fill-opacity="1" /><path clip-path="url(#clip210)" d="M41.5271 1404.94 L22.239 1404.94 L22.239 1399.08 L71.7642 1399.08 L71.7642 1404.94 L66.417 1404.94 Q69.5998 1406.79 71.1594 1409.62 Q72.6872 1412.42 72.6872 1416.37 Q72.6872 1422.83 67.531 1426.9 Q62.3747 1430.94 53.972 1430.94 Q45.5693 1430.94 40.4131 1426.9 Q35.2568 1422.83 35.2568 1416.37 Q35.2568 1412.42 36.8164 1409.62 Q38.3442 1406.79 41.5271 1404.94 M53.972 1424.9 Q60.4332 1424.9 64.1253 1422.26 Q67.7856 1419.58 67.7856 1414.93 Q67.7856 1410.29 64.1253 1407.61 Q60.4332 1404.94 53.972 1404.94 Q47.5108 1404.94 43.8505 1407.61 Q40.1584 1410.29 40.1584 1414.93 Q40.1584 1419.58 43.8505 1422.26 Q47.5108 1424.9 53.972 1424.9 Z" fill="#000000" fill-rule="nonzero" fill-opacity="1" /><path clip-path="url(#clip210)" d="M53.8447 1370.82 Q53.8447 1377.92 55.4679 1380.66 Q57.0912 1383.39 61.0061 1383.39 Q64.1253 1383.39 65.9714 1381.36 Q67.7856 1379.29 67.7856 1375.75 Q67.7856 1370.88 64.3481 1367.96 Q60.8788 1365 55.1497 1365 L53.8447 1365 L53.8447 1370.82 M51.4257 1359.14 L71.7642 1359.14 L71.7642 1365 L66.3533 1365 Q69.5998 1367 71.1594 1369.99 Q72.6872 1372.98 72.6872 1377.31 Q72.6872 1382.79 69.6316 1386.03 Q66.5443 1389.25 61.3881 1389.25 Q55.3725 1389.25 52.3169 1385.24 Q49.2614 1381.2 49.2614 1373.21 L49.2614 1365 L48.6885 1365 Q44.6462 1365 42.4501 1367.67 Q40.2221 1370.31 40.2221 1375.12 Q40.2221 1378.17 40.9541 1381.07 Q41.6862 1383.97 43.1503 1386.64 L37.7395 1386.64 Q36.4981 1383.42 35.8934 1380.4 Q35.2568 1377.38 35.2568 1374.51 Q35.2568 1366.78 39.2672 1362.96 Q43.2776 1359.14 51.4257 1359.14 Z" fill="#000000" fill-rule="nonzero" fill-opacity="1" /><path clip-path="url(#clip210)" d="M41.5271 1323.62 L22.239 1323.62 L22.239 1317.76 L71.7642 1317.76 L71.7642 1323.62 L66.417 1323.62 Q69.5998 1325.46 71.1594 1328.3 Q72.6872 1331.1 72.6872 1335.05 Q72.6872 1341.51 67.531 1345.58 Q62.3747 1349.62 53.972 1349.62 Q45.5693 1349.62 40.4131 1345.58 Q35.2568 1341.51 35.2568 1335.05 Q35.2568 1331.1 36.8164 1328.3 Q38.3442 1325.46 41.5271 1323.62 M53.972 1343.58 Q60.4332 1343.58 64.1253 1340.93 Q67.7856 1338.26 67.7856 1333.61 Q67.7856 1328.97 64.1253 1326.29 Q60.4332 1323.62 53.972 1323.62 Q47.5108 1323.62 43.8505 1326.29 Q40.1584 1328.97 40.1584 1333.61 Q40.1584 1338.26 43.8505 1340.93 Q47.5108 1343.58 53.972 1343.58 Z" fill="#000000" fill-rule="nonzero" fill-opacity="1" /><path clip-path="url(#clip210)" d="M52.4761 1275.21 L55.3406 1275.21 L55.3406 1302.13 Q61.3881 1301.75 64.5709 1298.51 Q67.7219 1295.23 67.7219 1289.4 Q67.7219 1286.03 66.8944 1282.88 Q66.0669 1279.7 64.4118 1276.58 L69.9499 1276.58 Q71.2867 1279.73 71.987 1283.04 Q72.6872 1286.35 72.6872 1289.75 Q72.6872 1298.28 67.7219 1303.28 Q62.7567 1308.25 54.2903 1308.25 Q45.5374 1308.25 40.4131 1303.53 Q35.2568 1298.79 35.2568 1290.77 Q35.2568 1283.58 39.9038 1279.41 Q44.5189 1275.21 52.4761 1275.21 M50.7573 1281.06 Q45.9512 1281.13 43.0866 1283.77 Q40.2221 1286.38 40.2221 1290.71 Q40.2221 1295.61 42.9912 1298.57 Q45.7602 1301.5 50.7892 1301.94 L50.7573 1281.06 Z" fill="#000000" fill-rule="nonzero" fill-opacity="1" /><path clip-path="url(#clip212)" d="M800.045 1955.99 L610.615 1955.99 L989.474 1955.99 L800.045 1955.99 L800.045 1269.62 L800.045 1955.99  Z" fill="#009af9" fill-rule="evenodd" fill-opacity="1"/>
<polyline clip-path="url(#clip212)" style="stroke:#000000; stroke-linecap:round; stroke-linejoin:round; stroke-width:4; stroke-opacity:1; fill:none" points="800.045,1955.99 610.615,1955.99 989.474,1955.99 800.045,1955.99 800.045,1269.62 800.045,1955.99 "/>
<path clip-path="url(#clip212)" d="M1178.9 1269.62 L1178.9 1026.59 L421.186 1026.59 L421.186 1269.62 L1178.9 1269.62 L1178.9 1026.59 L1178.9 1269.62  Z" fill="#009af9" fill-rule="evenodd" fill-opacity="1"/>
<polyline clip-path="url(#clip212)" style="stroke:#000000; stroke-linecap:round; stroke-linejoin:round; stroke-width:4; stroke-opacity:1; fill:none" points="1178.9,1269.62 1178.9,1026.59 421.186,1026.59 421.186,1269.62 1178.9,1269.62 1178.9,1026.59 1178.9,1269.62 "/>
<path clip-path="url(#clip212)" d="M1178.9 799.148 L421.186 799.148 L421.186 1026.59 L1178.9 1026.59 L1178.9 799.148 L800.045 799.148 L1178.9 799.148  Z" fill="#009af9" fill-rule="evenodd" fill-opacity="1"/>
<polyline clip-path="url(#clip212)" style="stroke:#000000; stroke-linecap:round; stroke-linejoin:round; stroke-width:4; stroke-opacity:1; fill:none" points="1178.9,799.148 421.186,799.148 421.186,1026.59 1178.9,1026.59 1178.9,799.148 800.045,799.148 1178.9,799.148 "/>
<path clip-path="url(#clip212)" d="M800.045 165.466 L610.615 165.466 L989.474 165.466 L800.045 165.466 L800.045 799.148 L800.045 165.466  Z" fill="#009af9" fill-rule="evenodd" fill-opacity="1"/>
<polyline clip-path="url(#clip212)" style="stroke:#000000; stroke-linecap:round; stroke-linejoin:round; stroke-width:4; stroke-opacity:1; fill:none" points="800.045,165.466 610.615,165.466 989.474,165.466 800.045,165.466 800.045,799.148 800.045,165.466 "/>
<circle clip-path="url(#clip212)" cx="800.045" cy="2099.23" r="14.4" fill="#009af9" fill-rule="evenodd" fill-opacity="1" stroke="#000000" stroke-opacity="1" stroke-width="6.4"/>
<circle clip-path="url(#clip212)" cx="800.045" cy="2311.3" r="14.4" fill="#009af9" fill-rule="evenodd" fill-opacity="1" stroke="#000000" stroke-opacity="1" stroke-width="6.4"/>
<circle clip-path="url(#clip212)" cx="800.045" cy="2499.71" r="14.4" fill="#009af9" fill-rule="evenodd" fill-opacity="1" stroke="#000000" stroke-opacity="1" stroke-width="6.4"/>
<circle clip-path="url(#clip212)" cx="800.045" cy="2055.5" r="14.4" fill="#009af9" fill-rule="evenodd" fill-opacity="1" stroke="#000000" stroke-opacity="1" stroke-width="6.4"/>
<circle clip-path="url(#clip212)" cx="800.045" cy="2451.52" r="14.4" fill="#009af9" fill-rule="evenodd" fill-opacity="1" stroke="#000000" stroke-opacity="1" stroke-width="6.4"/>
<circle clip-path="url(#clip212)" cx="800.045" cy="2148.82" r="14.4" fill="#009af9" fill-rule="evenodd" fill-opacity="1" stroke="#000000" stroke-opacity="1" stroke-width="6.4"/>
<circle clip-path="url(#clip212)" cx="800.045" cy="2148.73" r="14.4" fill="#009af9" fill-rule="evenodd" fill-opacity="1" stroke="#000000" stroke-opacity="1" stroke-width="6.4"/>
<circle clip-path="url(#clip212)" cx="800.045" cy="1998.07" r="14.4" fill="#009af9" fill-rule="evenodd" fill-opacity="1" stroke="#000000" stroke-opacity="1" stroke-width="6.4"/>
<polyline clip-path="url(#clip212)" style="stroke:#009af9; stroke-linecap:round; stroke-linejoin:round; stroke-width:0; stroke-opacity:1; fill:none" points="800.045,1955.99 610.615,1955.99 989.474,1955.99 800.045,1955.99 800.045,1269.62 "/>
<polyline clip-path="url(#clip212)" style="stroke:#009af9; stroke-linecap:round; stroke-linejoin:round; stroke-width:0; stroke-opacity:1; fill:none" points="1178.9,1269.62 1178.9,1026.59 421.186,1026.59 421.186,1269.62 1178.9,1269.62 1178.9,1026.59 "/>
<polyline clip-path="url(#clip212)" style="stroke:#009af9; stroke-linecap:round; stroke-linejoin:round; stroke-width:0; stroke-opacity:1; fill:none" points="1178.9,799.148 421.186,799.148 421.186,1026.59 1178.9,1026.59 1178.9,799.148 800.045,799.148 "/>
<polyline clip-path="url(#clip212)" style="stroke:#009af9; stroke-linecap:round; stroke-linejoin:round; stroke-width:0; stroke-opacity:1; fill:none" points="800.045,165.466 610.615,165.466 989.474,165.466 800.045,165.466 800.045,799.148 "/>
<path clip-path="url(#clip212)" d="M1747.19 2235.93 L1557.76 2235.93 L1936.62 2235.93 L1747.19 2235.93 L1747.19 1498.42 L1747.19 2235.93  Z" fill="#e26f46" fill-rule="evenodd" fill-opacity="1"/>
<polyline clip-path="url(#clip212)" style="stroke:#000000; stroke-linecap:round; stroke-linejoin:round; stroke-width:4; stroke-opacity:1; fill:none" points="1747.19,2235.93 1557.76,2235.93 1936.62,2235.93 1747.19,2235.93 1747.19,1498.42 1747.19,2235.93 "/>
<path clip-path="url(#clip212)" d="M2126.05 1498.42 L2126.05 1228.5 L1368.33 1228.5 L1368.33 1498.42 L2126.05 1498.42 L2126.05 1228.5 L2126.05 1498.42  Z" fill="#e26f46" fill-rule="evenodd" fill-opacity="1"/>
<polyline clip-path="url(#clip212)" style="stroke:#000000; stroke-linecap:round; stroke-linejoin:round; stroke-width:4; stroke-opacity:1; fill:none" points="2126.05,1498.42 2126.05,1228.5 1368.33,1228.5 1368.33,1498.42 2126.05,1498.42 2126.05,1228.5 2126.05,1498.42 "/>
<path clip-path="url(#clip212)" d="M2126.05 991.258 L1368.33 991.258 L1368.33 1228.5 L2126.05 1228.5 L2126.05 991.258 L1747.19 991.258 L2126.05 991.258  Z" fill="#e26f46" fill-rule="evenodd" fill-opacity="1"/>
<polyline clip-path="url(#clip212)" style="stroke:#000000; stroke-linecap:round; stroke-linejoin:round; stroke-width:4; stroke-opacity:1; fill:none" points="2126.05,991.258 1368.33,991.258 1368.33,1228.5 2126.05,1228.5 2126.05,991.258 1747.19,991.258 2126.05,991.258 "/>
<path clip-path="url(#clip212)" d="M1747.19 398.054 L1557.76 398.054 L1936.62 398.054 L1747.19 398.054 L1747.19 991.258 L1747.19 398.054  Z" fill="#e26f46" fill-rule="evenodd" fill-opacity="1"/>
<polyline clip-path="url(#clip212)" style="stroke:#000000; stroke-linecap:round; stroke-linejoin:round; stroke-width:4; stroke-opacity:1; fill:none" points="1747.19,398.054 1557.76,398.054 1936.62,398.054 1747.19,398.054 1747.19,991.258 1747.19,398.054 "/>
<circle clip-path="url(#clip212)" cx="1747.19" cy="2833.16" r="14.4" fill="#e26f46" fill-rule="evenodd" fill-opacity="1" stroke="#000000" stroke-opacity="1" stroke-width="6.4"/>
<circle clip-path="url(#clip212)" cx="1747.19" cy="2272.8" r="14.4" fill="#e26f46" fill-rule="evenodd" fill-opacity="1" stroke="#000000" stroke-opacity="1" stroke-width="6.4"/>
<circle clip-path="url(#clip212)" cx="1747.19" cy="2285.56" r="14.4" fill="#e26f46" fill-rule="evenodd" fill-opacity="1" stroke="#000000" stroke-opacity="1" stroke-width="6.4"/>
<circle clip-path="url(#clip212)" cx="1747.19" cy="2275.93" r="14.4" fill="#e26f46" fill-rule="evenodd" fill-opacity="1" stroke="#000000" stroke-opacity="1" stroke-width="6.4"/>
<circle clip-path="url(#clip212)" cx="1747.19" cy="2781.94" r="14.4" fill="#e26f46" fill-rule="evenodd" fill-opacity="1" stroke="#000000" stroke-opacity="1" stroke-width="6.4"/>
<circle clip-path="url(#clip212)" cx="1747.19" cy="2685.17" r="14.4" fill="#e26f46" fill-rule="evenodd" fill-opacity="1" stroke="#000000" stroke-opacity="1" stroke-width="6.4"/>
<circle clip-path="url(#clip212)" cx="1747.19" cy="2540.55" r="14.4" fill="#e26f46" fill-rule="evenodd" fill-opacity="1" stroke="#000000" stroke-opacity="1" stroke-width="6.4"/>
<circle clip-path="url(#clip212)" cx="1747.19" cy="2312.45" r="14.4" fill="#e26f46" fill-rule="evenodd" fill-opacity="1" stroke="#000000" stroke-opacity="1" stroke-width="6.4"/>
<circle clip-path="url(#clip212)" cx="1747.19" cy="2370.85" r="14.4" fill="#e26f46" fill-rule="evenodd" fill-opacity="1" stroke="#000000" stroke-opacity="1" stroke-width="6.4"/>
<circle clip-path="url(#clip212)" cx="1747.19" cy="2439.46" r="14.4" fill="#e26f46" fill-rule="evenodd" fill-opacity="1" stroke="#000000" stroke-opacity="1" stroke-width="6.4"/>
<circle clip-path="url(#clip212)" cx="1747.19" cy="2346.28" r="14.4" fill="#e26f46" fill-rule="evenodd" fill-opacity="1" stroke="#000000" stroke-opacity="1" stroke-width="6.4"/>
<polyline clip-path="url(#clip212)" style="stroke:#e26f46; stroke-linecap:round; stroke-linejoin:round; stroke-width:0; stroke-opacity:1; fill:none" points="1747.19,2235.93 1557.76,2235.93 1936.62,2235.93 1747.19,2235.93 1747.19,1498.42 "/>
<polyline clip-path="url(#clip212)" style="stroke:#e26f46; stroke-linecap:round; stroke-linejoin:round; stroke-width:0; stroke-opacity:1; fill:none" points="2126.05,1498.42 2126.05,1228.5 1368.33,1228.5 1368.33,1498.42 2126.05,1498.42 2126.05,1228.5 "/>
<polyline clip-path="url(#clip212)" style="stroke:#e26f46; stroke-linecap:round; stroke-linejoin:round; stroke-width:0; stroke-opacity:1; fill:none" points="2126.05,991.258 1368.33,991.258 1368.33,1228.5 2126.05,1228.5 2126.05,991.258 1747.19,991.258 "/>
<polyline clip-path="url(#clip212)" style="stroke:#e26f46; stroke-linecap:round; stroke-linejoin:round; stroke-width:0; stroke-opacity:1; fill:none" points="1747.19,398.054 1557.76,398.054 1936.62,398.054 1747.19,398.054 1747.19,991.258 "/>
<path clip-path="url(#clip212)" d="M2694.34 1948.35 L2504.91 1948.35 L2883.77 1948.35 L2694.34 1948.35 L2694.34 1300.46 L2694.34 1948.35  Z" fill="#3da44d" fill-rule="evenodd" fill-opacity="1"/>
<polyline clip-path="url(#clip212)" style="stroke:#000000; stroke-linecap:round; stroke-linejoin:round; stroke-width:4; stroke-opacity:1; fill:none" points="2694.34,1948.35 2504.91,1948.35 2883.77,1948.35 2694.34,1948.35 2694.34,1300.46 2694.34,1948.35 "/>
<path clip-path="url(#clip212)" d="M3073.2 1300.46 L3073.2 1064.71 L2315.48 1064.71 L2315.48 1300.46 L3073.2 1300.46 L3073.2 1064.71 L3073.2 1300.46  Z" fill="#3da44d" fill-rule="evenodd" fill-opacity="1"/>
<polyline clip-path="url(#clip212)" style="stroke:#000000; stroke-linecap:round; stroke-linejoin:round; stroke-width:4; stroke-opacity:1; fill:none" points="3073.2,1300.46 3073.2,1064.71 2315.48,1064.71 2315.48,1300.46 3073.2,1300.46 3073.2,1064.71 3073.2,1300.46 "/>
<path clip-path="url(#clip212)" d="M3073.2 865.872 L2315.48 865.872 L2315.48 1064.71 L3073.2 1064.71 L3073.2 865.872 L2694.34 865.872 L3073.2 865.872  Z" fill="#3da44d" fill-rule="evenodd" fill-opacity="1"/>
<polyline clip-path="url(#clip212)" style="stroke:#000000; stroke-linecap:round; stroke-linejoin:round; stroke-width:4; stroke-opacity:1; fill:none" points="3073.2,865.872 2315.48,865.872 2315.48,1064.71 3073.2,1064.71 3073.2,865.872 2694.34,865.872 3073.2,865.872 "/>
<path clip-path="url(#clip212)" d="M2694.34 223.722 L2504.91 223.722 L2883.77 223.722 L2694.34 223.722 L2694.34 865.872 L2694.34 223.722  Z" fill="#3da44d" fill-rule="evenodd" fill-opacity="1"/>
<polyline clip-path="url(#clip212)" style="stroke:#000000; stroke-linecap:round; stroke-linejoin:round; stroke-width:4; stroke-opacity:1; fill:none" points="2694.34,223.722 2504.91,223.722 2883.77,223.722 2694.34,223.722 2694.34,865.872 2694.34,223.722 "/>
<circle clip-path="url(#clip212)" cx="2694.34" cy="2369.75" r="14.4" fill="#3da44d" fill-rule="evenodd" fill-opacity="1" stroke="#000000" stroke-opacity="1" stroke-width="6.4"/>
<circle clip-path="url(#clip212)" cx="2694.34" cy="2004.82" r="14.4" fill="#3da44d" fill-rule="evenodd" fill-opacity="1" stroke="#000000" stroke-opacity="1" stroke-width="6.4"/>
<circle clip-path="url(#clip212)" cx="2694.34" cy="2541.56" r="14.4" fill="#3da44d" fill-rule="evenodd" fill-opacity="1" stroke="#000000" stroke-opacity="1" stroke-width="6.4"/>
<circle clip-path="url(#clip212)" cx="2694.34" cy="2132.98" r="14.4" fill="#3da44d" fill-rule="evenodd" fill-opacity="1" stroke="#000000" stroke-opacity="1" stroke-width="6.4"/>
<circle clip-path="url(#clip212)" cx="2694.34" cy="1983.09" r="14.4" fill="#3da44d" fill-rule="evenodd" fill-opacity="1" stroke="#000000" stroke-opacity="1" stroke-width="6.4"/>
<circle clip-path="url(#clip212)" cx="2694.34" cy="2005.65" r="14.4" fill="#3da44d" fill-rule="evenodd" fill-opacity="1" stroke="#000000" stroke-opacity="1" stroke-width="6.4"/>
<circle clip-path="url(#clip212)" cx="2694.34" cy="2105.07" r="14.4" fill="#3da44d" fill-rule="evenodd" fill-opacity="1" stroke="#000000" stroke-opacity="1" stroke-width="6.4"/>
<circle clip-path="url(#clip212)" cx="2694.34" cy="2491.24" r="14.4" fill="#3da44d" fill-rule="evenodd" fill-opacity="1" stroke="#000000" stroke-opacity="1" stroke-width="6.4"/>
<circle clip-path="url(#clip212)" cx="2694.34" cy="128.387" r="14.4" fill="#3da44d" fill-rule="evenodd" fill-opacity="1" stroke="#000000" stroke-opacity="1" stroke-width="6.4"/>
<circle clip-path="url(#clip212)" cx="2694.34" cy="2362.33" r="14.4" fill="#3da44d" fill-rule="evenodd" fill-opacity="1" stroke="#000000" stroke-opacity="1" stroke-width="6.4"/>
<circle clip-path="url(#clip212)" cx="2694.34" cy="2228.04" r="14.4" fill="#3da44d" fill-rule="evenodd" fill-opacity="1" stroke="#000000" stroke-opacity="1" stroke-width="6.4"/>
<circle clip-path="url(#clip212)" cx="2694.34" cy="2029.67" r="14.4" fill="#3da44d" fill-rule="evenodd" fill-opacity="1" stroke="#000000" stroke-opacity="1" stroke-width="6.4"/>
<circle clip-path="url(#clip212)" cx="2694.34" cy="2100.99" r="14.4" fill="#3da44d" fill-rule="evenodd" fill-opacity="1" stroke="#000000" stroke-opacity="1" stroke-width="6.4"/>
<circle clip-path="url(#clip212)" cx="2694.34" cy="2075.49" r="14.4" fill="#3da44d" fill-rule="evenodd" fill-opacity="1" stroke="#000000" stroke-opacity="1" stroke-width="6.4"/>
<polyline clip-path="url(#clip212)" style="stroke:#3da44d; stroke-linecap:round; stroke-linejoin:round; stroke-width:0; stroke-opacity:1; fill:none" points="2694.34,1948.35 2504.91,1948.35 2883.77,1948.35 2694.34,1948.35 2694.34,1300.46 "/>
<polyline clip-path="url(#clip212)" style="stroke:#3da44d; stroke-linecap:round; stroke-linejoin:round; stroke-width:0; stroke-opacity:1; fill:none" points="3073.2,1300.46 3073.2,1064.71 2315.48,1064.71 2315.48,1300.46 3073.2,1300.46 3073.2,1064.71 "/>
<polyline clip-path="url(#clip212)" style="stroke:#3da44d; stroke-linecap:round; stroke-linejoin:round; stroke-width:0; stroke-opacity:1; fill:none" points="3073.2,865.872 2315.48,865.872 2315.48,1064.71 3073.2,1064.71 3073.2,865.872 2694.34,865.872 "/>
<polyline clip-path="url(#clip212)" style="stroke:#3da44d; stroke-linecap:round; stroke-linejoin:round; stroke-width:0; stroke-opacity:1; fill:none" points="2694.34,223.722 2504.91,223.722 2883.77,223.722 2694.34,223.722 2694.34,865.872 "/>
</svg>
