<?xml version="1.0" encoding="utf-8"?>
<svg xmlns="http://www.w3.org/2000/svg" xmlns:xlink="http://www.w3.org/1999/xlink" width="300" height="800" viewBox="0 0 1200 3200">
<defs>
  <clipPath id="clip300">
    <rect x="0" y="0" width="1200" height="3200"/>
  </clipPath>
</defs>
<path clip-path="url(#clip300)" d="M0 3200 L1200 3200 L1200 0 L0 0  Z" fill="#ffffff" fill-rule="evenodd" fill-opacity="1"/>
<defs>
  <clipPath id="clip301">
    <rect x="640" y="320" width="1200" height="2241"/>
  </clipPath>
</defs>
<path clip-path="url(#clip300)" d="M221.872 2914.3 L1152.76 2914.3 L1152.76 47.2441 L221.872 47.2441  Z" fill="#ffffff" fill-rule="evenodd" fill-opacity="1"/>
<defs>
  <clipPath id="clip302">
    <rect x="221" y="47" width="932" height="2868"/>
  </clipPath>
</defs>
<polyline clip-path="url(#clip302)" style="stroke:#000000; stroke-linecap:round; stroke-linejoin:round; stroke-width:2; stroke-opacity:0.1; fill:none" points="373.674,2914.3 373.674,47.2441 "/>
<polyline clip-path="url(#clip302)" style="stroke:#000000; stroke-linecap:round; stroke-linejoin:round; stroke-width:2; stroke-opacity:0.1; fill:none" points="687.314,2914.3 687.314,47.2441 "/>
<polyline clip-path="url(#clip302)" style="stroke:#000000; stroke-linecap:round; stroke-linejoin:round; stroke-width:2; stroke-opacity:0.1; fill:none" points="1000.95,2914.3 1000.95,47.2441 "/>
<polyline clip-path="url(#clip300)" style="stroke:#000000; stroke-linecap:round; stroke-linejoin:round; stroke-width:4; stroke-opacity:1; fill:none" points="221.872,2914.3 1152.76,2914.3 "/>
<polyline clip-path="url(#clip300)" style="stroke:#000000; stroke-linecap:round; stroke-linejoin:round; stroke-width:4; stroke-opacity:1; fill:none" points="373.674,2914.3 373.674,2895.4 "/>
<polyline clip-path="url(#clip300)" style="stroke:#000000; stroke-linecap:round; stroke-linejoin:round; stroke-width:4; stroke-opacity:1; fill:none" points="687.314,2914.3 687.314,2895.4 "/>
<polyline clip-path="url(#clip300)" style="stroke:#000000; stroke-linecap:round; stroke-linejoin:round; stroke-width:4; stroke-opacity:1; fill:none" points="1000.95,2914.3 1000.95,2895.4 "/>
<path clip-path="url(#clip300)" d="M275.422 2953.15 L269.08 2970.35 L281.788 2970.35 L275.422 2953.15 M272.783 2948.54 L278.084 2948.54 L291.256 2983.1 L286.394 2983.1 L283.246 2974.23 L267.668 2974.23 L264.52 2983.1 L259.589 2983.1 L272.783 2948.54 Z" fill="#000000" fill-rule="nonzero" fill-opacity="1" /><path clip-path="url(#clip300)" d="M296.117 2947.08 L300.376 2947.08 L300.376 2983.1 L296.117 2983.1 L296.117 2947.08 Z" fill="#000000" fill-rule="nonzero" fill-opacity="1" /><path clip-path="url(#clip300)" d="M326.348 2969.84 Q326.348 2965.21 324.427 2962.66 Q322.528 2960.11 319.079 2960.11 Q315.654 2960.11 313.732 2962.66 Q311.834 2965.21 311.834 2969.84 Q311.834 2974.44 313.732 2976.99 Q315.654 2979.54 319.079 2979.54 Q322.528 2979.54 324.427 2976.99 Q326.348 2974.44 326.348 2969.84 M330.607 2979.88 Q330.607 2986.5 327.667 2989.72 Q324.728 2992.96 318.663 2992.96 Q316.417 2992.96 314.427 2992.61 Q312.436 2992.29 310.561 2991.6 L310.561 2987.45 Q312.436 2988.47 314.265 2988.96 Q316.093 2989.44 317.991 2989.44 Q322.181 2989.44 324.265 2987.24 Q326.348 2985.07 326.348 2980.65 L326.348 2978.54 Q325.028 2980.83 322.968 2981.97 Q320.908 2983.1 318.038 2983.1 Q313.269 2983.1 310.353 2979.47 Q307.436 2975.83 307.436 2969.84 Q307.436 2963.82 310.353 2960.18 Q313.269 2956.55 318.038 2956.55 Q320.908 2956.55 322.968 2957.68 Q325.028 2958.82 326.348 2961.11 L326.348 2957.17 L330.607 2957.17 L330.607 2979.88 Z" fill="#000000" fill-rule="nonzero" fill-opacity="1" /><path clip-path="url(#clip300)" d="M349.426 2960.16 Q346.001 2960.16 344.01 2962.85 Q342.019 2965.51 342.019 2970.16 Q342.019 2974.81 343.987 2977.5 Q345.977 2980.16 349.426 2980.16 Q352.829 2980.16 354.82 2977.47 Q356.811 2974.79 356.811 2970.16 Q356.811 2965.55 354.82 2962.87 Q352.829 2960.16 349.426 2960.16 M349.426 2956.55 Q354.982 2956.55 358.153 2960.16 Q361.325 2963.77 361.325 2970.16 Q361.325 2976.53 358.153 2980.16 Q354.982 2983.77 349.426 2983.77 Q343.848 2983.77 340.677 2980.16 Q337.528 2976.53 337.528 2970.16 Q337.528 2963.77 340.677 2960.16 Q343.848 2956.55 349.426 2956.55 Z" fill="#000000" fill-rule="nonzero" fill-opacity="1" /><path clip-path="url(#clip300)" d="M383.408 2961.16 Q382.69 2960.74 381.834 2960.55 Q381 2960.35 379.982 2960.35 Q376.371 2960.35 374.426 2962.71 Q372.505 2965.04 372.505 2969.44 L372.505 2983.1 L368.223 2983.1 L368.223 2957.17 L372.505 2957.17 L372.505 2961.2 Q373.848 2958.84 376 2957.71 Q378.153 2956.55 381.232 2956.55 Q381.672 2956.55 382.204 2956.62 Q382.736 2956.66 383.385 2956.78 L383.408 2961.16 Z" fill="#000000" fill-rule="nonzero" fill-opacity="1" /><path clip-path="url(#clip300)" d="M387.875 2957.17 L392.135 2957.17 L392.135 2983.1 L387.875 2983.1 L387.875 2957.17 M387.875 2947.08 L392.135 2947.08 L392.135 2952.48 L387.875 2952.48 L387.875 2947.08 Z" fill="#000000" fill-rule="nonzero" fill-opacity="1" /><path clip-path="url(#clip300)" d="M405.26 2949.81 L405.26 2957.17 L414.033 2957.17 L414.033 2960.48 L405.26 2960.48 L405.26 2974.56 Q405.26 2977.73 406.116 2978.63 Q406.996 2979.54 409.658 2979.54 L414.033 2979.54 L414.033 2983.1 L409.658 2983.1 Q404.727 2983.1 402.852 2981.27 Q400.977 2979.42 400.977 2974.56 L400.977 2960.48 L397.852 2960.48 L397.852 2957.17 L400.977 2957.17 L400.977 2949.81 L405.26 2949.81 Z" fill="#000000" fill-rule="nonzero" fill-opacity="1" /><path clip-path="url(#clip300)" d="M439.82 2962.15 Q441.417 2959.28 443.639 2957.91 Q445.861 2956.55 448.87 2956.55 Q452.921 2956.55 455.12 2959.4 Q457.319 2962.22 457.319 2967.45 L457.319 2983.1 L453.037 2983.1 L453.037 2967.59 Q453.037 2963.86 451.718 2962.06 Q450.398 2960.25 447.69 2960.25 Q444.38 2960.25 442.458 2962.45 Q440.537 2964.65 440.537 2968.45 L440.537 2983.1 L436.255 2983.1 L436.255 2967.59 Q436.255 2963.84 434.935 2962.06 Q433.616 2960.25 430.861 2960.25 Q427.597 2960.25 425.676 2962.47 Q423.755 2964.67 423.755 2968.45 L423.755 2983.1 L419.472 2983.1 L419.472 2957.17 L423.755 2957.17 L423.755 2961.2 Q425.213 2958.82 427.25 2957.68 Q429.287 2956.55 432.088 2956.55 Q434.912 2956.55 436.88 2957.98 Q438.87 2959.42 439.82 2962.15 Z" fill="#000000" fill-rule="nonzero" fill-opacity="1" /><path clip-path="url(#clip300)" d="M475.861 2960.16 Q472.435 2960.16 470.444 2962.85 Q468.454 2965.51 468.454 2970.16 Q468.454 2974.81 470.421 2977.5 Q472.412 2980.16 475.861 2980.16 Q479.264 2980.16 481.254 2977.47 Q483.245 2974.79 483.245 2970.16 Q483.245 2965.55 481.254 2962.87 Q479.264 2960.16 475.861 2960.16 M475.861 2956.55 Q481.417 2956.55 484.588 2960.16 Q487.759 2963.77 487.759 2970.16 Q487.759 2976.53 484.588 2980.16 Q481.417 2983.77 475.861 2983.77 Q470.282 2983.77 467.111 2980.16 Q463.963 2976.53 463.963 2970.16 Q463.963 2963.77 467.111 2960.16 Q470.282 2956.55 475.861 2956.55 Z" fill="#000000" fill-rule="nonzero" fill-opacity="1" /><path clip-path="url(#clip300)" d="M295.885 3030.01 L295.885 3020.73 L288.246 3020.73 L288.246 3016.88 L300.515 3016.88 L300.515 3031.72 Q297.806 3033.64 294.543 3034.64 Q291.279 3035.61 287.575 3035.61 Q279.473 3035.61 274.89 3030.89 Q270.33 3026.14 270.33 3017.69 Q270.33 3009.22 274.89 3004.5 Q279.473 2999.75 287.575 2999.75 Q290.955 2999.75 293.987 3000.59 Q297.043 3001.42 299.612 3003.04 L299.612 3008.02 Q297.019 3005.82 294.103 3004.71 Q291.186 3003.6 287.968 3003.6 Q281.626 3003.6 278.432 3007.14 Q275.26 3010.68 275.26 3017.69 Q275.26 3024.69 278.432 3028.23 Q281.626 3031.77 287.968 3031.77 Q290.445 3031.77 292.39 3031.35 Q294.334 3030.91 295.885 3030.01 Z" fill="#000000" fill-rule="nonzero" fill-opacity="1" /><path clip-path="url(#clip300)" d="M331.047 3020.91 L331.047 3023 L311.464 3023 Q311.742 3027.39 314.103 3029.71 Q316.487 3032 320.723 3032 Q323.177 3032 325.468 3031.4 Q327.783 3030.8 330.052 3029.59 L330.052 3033.62 Q327.76 3034.59 325.353 3035.1 Q322.945 3035.61 320.468 3035.61 Q314.265 3035.61 310.63 3032 Q307.019 3028.39 307.019 3022.23 Q307.019 3015.87 310.445 3012.14 Q313.894 3008.39 319.728 3008.39 Q324.959 3008.39 327.991 3011.77 Q331.047 3015.13 331.047 3020.91 M326.788 3019.66 Q326.741 3016.17 324.82 3014.08 Q322.922 3012 319.774 3012 Q316.209 3012 314.056 3014.01 Q311.927 3016.03 311.603 3019.69 L326.788 3019.66 Z" fill="#000000" fill-rule="nonzero" fill-opacity="1" /><path clip-path="url(#clip300)" d="M359.588 3019.29 L359.588 3034.94 L355.329 3034.94 L355.329 3019.43 Q355.329 3015.75 353.894 3013.92 Q352.459 3012.09 349.589 3012.09 Q346.139 3012.09 344.149 3014.29 Q342.158 3016.49 342.158 3020.29 L342.158 3034.94 L337.876 3034.94 L337.876 3009.01 L342.158 3009.01 L342.158 3013.04 Q343.686 3010.7 345.746 3009.55 Q347.829 3008.39 350.538 3008.39 Q355.005 3008.39 357.297 3011.17 Q359.588 3013.92 359.588 3019.29 Z" fill="#000000" fill-rule="nonzero" fill-opacity="1" /><path clip-path="url(#clip300)" d="M390.26 3020.91 L390.26 3023 L370.676 3023 Q370.954 3027.39 373.315 3029.71 Q375.699 3032 379.936 3032 Q382.389 3032 384.681 3031.4 Q386.996 3030.8 389.264 3029.59 L389.264 3033.62 Q386.973 3034.59 384.565 3035.1 Q382.158 3035.61 379.681 3035.61 Q373.477 3035.61 369.843 3032 Q366.232 3028.39 366.232 3022.23 Q366.232 3015.87 369.658 3012.14 Q373.107 3008.39 378.94 3008.39 Q384.172 3008.39 387.204 3011.77 Q390.26 3015.13 390.26 3020.91 M386 3019.66 Q385.954 3016.17 384.033 3014.08 Q382.135 3012 378.987 3012 Q375.422 3012 373.269 3014.01 Q371.139 3016.03 370.815 3019.69 L386 3019.66 M381.903 2997.02 L386.51 2997.02 L378.963 3005.73 L375.422 3005.73 L381.903 2997.02 Z" fill="#000000" fill-rule="nonzero" fill-opacity="1" /><path clip-path="url(#clip300)" d="M401.463 3001.65 L401.463 3009.01 L410.236 3009.01 L410.236 3012.32 L401.463 3012.32 L401.463 3026.4 Q401.463 3029.57 402.32 3030.47 Q403.199 3031.38 405.861 3031.38 L410.236 3031.38 L410.236 3034.94 L405.861 3034.94 Q400.931 3034.94 399.056 3033.11 Q397.181 3031.26 397.181 3026.4 L397.181 3012.32 L394.056 3012.32 L394.056 3009.01 L397.181 3009.01 L397.181 3001.65 L401.463 3001.65 Z" fill="#000000" fill-rule="nonzero" fill-opacity="1" /><path clip-path="url(#clip300)" d="M415.838 3009.01 L420.097 3009.01 L420.097 3034.94 L415.838 3034.94 L415.838 3009.01 M415.838 2998.92 L420.097 2998.92 L420.097 3004.32 L415.838 3004.32 L415.838 2998.92 Z" fill="#000000" fill-rule="nonzero" fill-opacity="1" /><path clip-path="url(#clip300)" d="M447.667 3010.01 L447.667 3013.99 Q445.861 3013 444.032 3012.51 Q442.227 3012 440.375 3012 Q436.232 3012 433.94 3014.64 Q431.648 3017.25 431.648 3022 Q431.648 3026.75 433.94 3029.38 Q436.232 3032 440.375 3032 Q442.227 3032 444.032 3031.51 Q445.861 3031 447.667 3030.01 L447.667 3033.94 Q445.884 3034.78 443.963 3035.19 Q442.065 3035.61 439.912 3035.61 Q434.056 3035.61 430.607 3031.93 Q427.158 3028.25 427.158 3022 Q427.158 3015.66 430.63 3012.02 Q434.125 3008.39 440.19 3008.39 Q442.157 3008.39 444.032 3008.81 Q445.907 3009.2 447.667 3010.01 Z" fill="#000000" fill-rule="nonzero" fill-opacity="1" /><path clip-path="url(#clip300)" d="M465.12 3012 Q461.694 3012 459.704 3014.69 Q457.713 3017.35 457.713 3022 Q457.713 3026.65 459.681 3029.34 Q461.671 3032 465.12 3032 Q468.523 3032 470.514 3029.31 Q472.505 3026.63 472.505 3022 Q472.505 3017.39 470.514 3014.71 Q468.523 3012 465.12 3012 M465.12 3008.39 Q470.676 3008.39 473.847 3012 Q477.018 3015.61 477.018 3022 Q477.018 3028.37 473.847 3032 Q470.676 3035.61 465.12 3035.61 Q459.542 3035.61 456.37 3032 Q453.222 3028.37 453.222 3022 Q453.222 3015.61 456.37 3012 Q459.542 3008.39 465.12 3008.39 Z" fill="#000000" fill-rule="nonzero" fill-opacity="1" /><path clip-path="url(#clip300)" d="M630.428 2948.54 L635.104 2948.54 L635.104 2979.16 L651.932 2979.16 L651.932 2983.1 L630.428 2983.1 L630.428 2948.54 Z" fill="#000000" fill-rule="nonzero" fill-opacity="1" /><path clip-path="url(#clip300)" d="M665.867 2960.16 Q662.442 2960.16 660.451 2962.85 Q658.46 2965.51 658.46 2970.16 Q658.46 2974.81 660.428 2977.5 Q662.418 2980.16 665.867 2980.16 Q669.27 2980.16 671.261 2977.47 Q673.252 2974.79 673.252 2970.16 Q673.252 2965.55 671.261 2962.87 Q669.27 2960.16 665.867 2960.16 M665.867 2956.55 Q671.423 2956.55 674.594 2960.16 Q677.766 2963.77 677.766 2970.16 Q677.766 2976.53 674.594 2980.16 Q671.423 2983.77 665.867 2983.77 Q660.289 2983.77 657.117 2980.16 Q653.969 2976.53 653.969 2970.16 Q653.969 2963.77 657.117 2960.16 Q660.289 2956.55 665.867 2956.55 Z" fill="#000000" fill-rule="nonzero" fill-opacity="1" /><path clip-path="url(#clip300)" d="M703.483 2958.17 L703.483 2962.15 Q701.677 2961.16 699.849 2960.67 Q698.043 2960.16 696.191 2960.16 Q692.048 2960.16 689.756 2962.8 Q687.465 2965.41 687.465 2970.16 Q687.465 2974.91 689.756 2977.54 Q692.048 2980.16 696.191 2980.16 Q698.043 2980.16 699.849 2979.67 Q701.677 2979.16 703.483 2978.17 L703.483 2982.1 Q701.701 2982.94 699.779 2983.35 Q697.881 2983.77 695.728 2983.77 Q689.872 2983.77 686.423 2980.09 Q682.974 2976.41 682.974 2970.16 Q682.974 2963.82 686.446 2960.18 Q689.941 2956.55 696.006 2956.55 Q697.974 2956.55 699.849 2956.97 Q701.724 2957.36 703.483 2958.17 Z" fill="#000000" fill-rule="nonzero" fill-opacity="1" /><path clip-path="url(#clip300)" d="M722.673 2970.07 Q717.511 2970.07 715.52 2971.25 Q713.529 2972.43 713.529 2975.28 Q713.529 2977.54 715.011 2978.89 Q716.515 2980.21 719.085 2980.21 Q722.626 2980.21 724.756 2977.71 Q726.909 2975.18 726.909 2971.02 L726.909 2970.07 L722.673 2970.07 M731.168 2968.31 L731.168 2983.1 L726.909 2983.1 L726.909 2979.16 Q725.45 2981.53 723.275 2982.66 Q721.099 2983.77 717.95 2983.77 Q713.969 2983.77 711.608 2981.55 Q709.27 2979.3 709.27 2975.55 Q709.27 2971.18 712.187 2968.96 Q715.126 2966.73 720.937 2966.73 L726.909 2966.73 L726.909 2966.32 Q726.909 2963.38 724.964 2961.78 Q723.043 2960.16 719.548 2960.16 Q717.325 2960.16 715.219 2960.69 Q713.113 2961.22 711.168 2962.29 L711.168 2958.35 Q713.506 2957.45 715.705 2957.01 Q717.904 2956.55 719.988 2956.55 Q725.612 2956.55 728.39 2959.47 Q731.168 2962.38 731.168 2968.31 Z" fill="#000000" fill-rule="nonzero" fill-opacity="1" /><path clip-path="url(#clip300)" d="M739.941 2947.08 L744.2 2947.08 L744.2 2983.1 L739.941 2983.1 L739.941 2947.08 Z" fill="#000000" fill-rule="nonzero" fill-opacity="1" /><path clip-path="url(#clip300)" d="M631.701 3001.51 L631.701 3006.07 Q629.039 3004.8 626.678 3004.18 Q624.317 3003.55 622.118 3003.55 Q618.298 3003.55 616.215 3005.03 Q614.155 3006.51 614.155 3009.25 Q614.155 3011.54 615.52 3012.72 Q616.909 3013.88 620.752 3014.59 L623.576 3015.17 Q628.807 3016.17 631.284 3018.69 Q633.784 3021.19 633.784 3025.4 Q633.784 3030.43 630.405 3033.02 Q627.048 3035.61 620.544 3035.61 Q618.09 3035.61 615.312 3035.06 Q612.558 3034.5 609.595 3033.41 L609.595 3028.6 Q612.442 3030.19 615.173 3031 Q617.905 3031.81 620.544 3031.81 Q624.548 3031.81 626.724 3030.24 Q628.9 3028.67 628.9 3025.75 Q628.9 3023.2 627.326 3021.77 Q625.775 3020.33 622.21 3019.62 L619.363 3019.06 Q614.132 3018.02 611.794 3015.8 Q609.456 3013.57 609.456 3009.62 Q609.456 3005.03 612.673 3002.39 Q615.914 2999.75 621.585 2999.75 Q624.016 2999.75 626.539 3000.19 Q629.062 3000.63 631.701 3001.51 Z" fill="#000000" fill-rule="nonzero" fill-opacity="1" /><path clip-path="url(#clip300)" d="M663.067 3020.91 L663.067 3023 L643.483 3023 Q643.761 3027.39 646.122 3029.71 Q648.506 3032 652.743 3032 Q655.196 3032 657.488 3031.4 Q659.803 3030.8 662.071 3029.59 L662.071 3033.62 Q659.78 3034.59 657.372 3035.1 Q654.965 3035.61 652.488 3035.61 Q646.284 3035.61 642.65 3032 Q639.039 3028.39 639.039 3022.23 Q639.039 3015.87 642.465 3012.14 Q645.914 3008.39 651.747 3008.39 Q656.979 3008.39 660.011 3011.77 Q663.067 3015.13 663.067 3020.91 M658.807 3019.66 Q658.761 3016.17 656.84 3014.08 Q654.942 3012 651.793 3012 Q648.229 3012 646.076 3014.01 Q643.946 3016.03 643.622 3019.69 L658.807 3019.66 Z" fill="#000000" fill-rule="nonzero" fill-opacity="1" /><path clip-path="url(#clip300)" d="M681.84 3021.91 Q676.678 3021.91 674.687 3023.09 Q672.696 3024.27 672.696 3027.12 Q672.696 3029.38 674.178 3030.73 Q675.682 3032.05 678.252 3032.05 Q681.793 3032.05 683.923 3029.55 Q686.076 3027.02 686.076 3022.86 L686.076 3021.91 L681.84 3021.91 M690.335 3020.15 L690.335 3034.94 L686.076 3034.94 L686.076 3031 Q684.617 3033.37 682.441 3034.5 Q680.266 3035.61 677.117 3035.61 Q673.136 3035.61 670.775 3033.39 Q668.437 3031.14 668.437 3027.39 Q668.437 3023.02 671.354 3020.8 Q674.293 3018.57 680.103 3018.57 L686.076 3018.57 L686.076 3018.16 Q686.076 3015.22 684.131 3013.62 Q682.21 3012 678.715 3012 Q676.492 3012 674.386 3012.53 Q672.279 3013.06 670.335 3014.13 L670.335 3010.19 Q672.673 3009.29 674.872 3008.85 Q677.071 3008.39 679.154 3008.39 Q684.779 3008.39 687.557 3011.31 Q690.335 3014.22 690.335 3020.15 Z" fill="#000000" fill-rule="nonzero" fill-opacity="1" /><path clip-path="url(#clip300)" d="M714.131 3013 Q713.413 3012.58 712.557 3012.39 Q711.724 3012.19 710.705 3012.19 Q707.094 3012.19 705.15 3014.55 Q703.228 3016.88 703.228 3021.28 L703.228 3034.94 L698.946 3034.94 L698.946 3009.01 L703.228 3009.01 L703.228 3013.04 Q704.571 3010.68 706.724 3009.55 Q708.876 3008.39 711.955 3008.39 Q712.395 3008.39 712.927 3008.46 Q713.46 3008.5 714.108 3008.62 L714.131 3013 Z" fill="#000000" fill-rule="nonzero" fill-opacity="1" /><path clip-path="url(#clip300)" d="M736.214 3010.01 L736.214 3013.99 Q734.409 3013 732.58 3012.51 Q730.775 3012 728.923 3012 Q724.779 3012 722.488 3014.64 Q720.196 3017.25 720.196 3022 Q720.196 3026.75 722.488 3029.38 Q724.779 3032 728.923 3032 Q730.775 3032 732.58 3031.51 Q734.409 3031 736.214 3030.01 L736.214 3033.94 Q734.432 3034.78 732.511 3035.19 Q730.612 3035.61 728.46 3035.61 Q722.603 3035.61 719.154 3031.93 Q715.705 3028.25 715.705 3022 Q715.705 3015.66 719.177 3012.02 Q722.673 3008.39 728.737 3008.39 Q730.705 3008.39 732.58 3008.81 Q734.455 3009.2 736.214 3010.01 Z" fill="#000000" fill-rule="nonzero" fill-opacity="1" /><path clip-path="url(#clip300)" d="M765.172 3019.29 L765.172 3034.94 L760.913 3034.94 L760.913 3019.43 Q760.913 3015.75 759.478 3013.92 Q758.043 3012.09 755.173 3012.09 Q751.723 3012.09 749.733 3014.29 Q747.742 3016.49 747.742 3020.29 L747.742 3034.94 L743.46 3034.94 L743.46 2998.92 L747.742 2998.92 L747.742 3013.04 Q749.27 3010.7 751.33 3009.55 Q753.413 3008.39 756.122 3008.39 Q760.589 3008.39 762.881 3011.17 Q765.172 3013.92 765.172 3019.29 Z" fill="#000000" fill-rule="nonzero" fill-opacity="1" /><path clip-path="url(#clip300)" d="M907.135 2949.67 L907.135 2954.23 Q904.473 2952.96 902.112 2952.34 Q899.751 2951.71 897.552 2951.71 Q893.732 2951.71 891.649 2953.19 Q889.589 2954.67 889.589 2957.41 Q889.589 2959.7 890.955 2960.88 Q892.344 2962.04 896.186 2962.75 L899.01 2963.33 Q904.242 2964.33 906.719 2966.85 Q909.219 2969.35 909.219 2973.56 Q909.219 2978.59 905.839 2981.18 Q902.482 2983.77 895.978 2983.77 Q893.524 2983.77 890.746 2983.22 Q887.992 2982.66 885.029 2981.57 L885.029 2976.76 Q887.876 2978.35 890.607 2979.16 Q893.339 2979.97 895.978 2979.97 Q899.982 2979.97 902.158 2978.4 Q904.334 2976.83 904.334 2973.91 Q904.334 2971.36 902.76 2969.93 Q901.209 2968.49 897.644 2967.78 L894.797 2967.22 Q889.566 2966.18 887.228 2963.96 Q884.89 2961.73 884.89 2957.78 Q884.89 2953.19 888.108 2950.55 Q891.348 2947.91 897.019 2947.91 Q899.45 2947.91 901.973 2948.35 Q904.496 2948.79 907.135 2949.67 Z" fill="#000000" fill-rule="nonzero" fill-opacity="1" /><path clip-path="url(#clip300)" d="M916.325 2957.17 L920.584 2957.17 L920.584 2983.1 L916.325 2983.1 L916.325 2957.17 M916.325 2947.08 L920.584 2947.08 L920.584 2952.48 L916.325 2952.48 L916.325 2947.08 Z" fill="#000000" fill-rule="nonzero" fill-opacity="1" /><path clip-path="url(#clip300)" d="M949.681 2962.15 Q951.278 2959.28 953.501 2957.91 Q955.723 2956.55 958.732 2956.55 Q962.783 2956.55 964.982 2959.4 Q967.181 2962.22 967.181 2967.45 L967.181 2983.1 L962.899 2983.1 L962.899 2967.59 Q962.899 2963.86 961.579 2962.06 Q960.26 2960.25 957.552 2960.25 Q954.241 2960.25 952.32 2962.45 Q950.399 2964.65 950.399 2968.45 L950.399 2983.1 L946.116 2983.1 L946.116 2967.59 Q946.116 2963.84 944.797 2962.06 Q943.478 2960.25 940.723 2960.25 Q937.459 2960.25 935.538 2962.47 Q933.617 2964.67 933.617 2968.45 L933.617 2983.1 L929.334 2983.1 L929.334 2957.17 L933.617 2957.17 L933.617 2961.2 Q935.075 2958.82 937.112 2957.68 Q939.149 2956.55 941.95 2956.55 Q944.774 2956.55 946.741 2957.98 Q948.732 2959.42 949.681 2962.15 Z" fill="#000000" fill-rule="nonzero" fill-opacity="1" /><path clip-path="url(#clip300)" d="M975.237 2972.87 L975.237 2957.17 L979.496 2957.17 L979.496 2972.71 Q979.496 2976.39 980.931 2978.24 Q982.366 2980.07 985.237 2980.07 Q988.686 2980.07 990.676 2977.87 Q992.69 2975.67 992.69 2971.87 L992.69 2957.17 L996.95 2957.17 L996.95 2983.1 L992.69 2983.1 L992.69 2979.12 Q991.139 2981.48 989.079 2982.64 Q987.042 2983.77 984.334 2983.77 Q979.866 2983.77 977.551 2980.99 Q975.237 2978.22 975.237 2972.87 M985.954 2956.55 L985.954 2956.55 Z" fill="#000000" fill-rule="nonzero" fill-opacity="1" /><path clip-path="url(#clip300)" d="M1005.72 2947.08 L1009.98 2947.08 L1009.98 2983.1 L1005.72 2983.1 L1005.72 2947.08 Z" fill="#000000" fill-rule="nonzero" fill-opacity="1" /><path clip-path="url(#clip300)" d="M1030.68 2970.07 Q1025.51 2970.07 1023.52 2971.25 Q1021.53 2972.43 1021.53 2975.28 Q1021.53 2977.54 1023.01 2978.89 Q1024.52 2980.21 1027.09 2980.21 Q1030.63 2980.21 1032.76 2977.71 Q1034.91 2975.18 1034.91 2971.02 L1034.91 2970.07 L1030.68 2970.07 M1039.17 2968.31 L1039.17 2983.1 L1034.91 2983.1 L1034.91 2979.16 Q1033.45 2981.53 1031.28 2982.66 Q1029.1 2983.77 1025.95 2983.77 Q1021.97 2983.77 1019.61 2981.55 Q1017.27 2979.3 1017.27 2975.55 Q1017.27 2971.18 1020.19 2968.96 Q1023.13 2966.73 1028.94 2966.73 L1034.91 2966.73 L1034.91 2966.32 Q1034.91 2963.38 1032.97 2961.78 Q1031.05 2960.16 1027.55 2960.16 Q1025.33 2960.16 1023.22 2960.69 Q1021.12 2961.22 1019.17 2962.29 L1019.17 2958.35 Q1021.51 2957.45 1023.71 2957.01 Q1025.91 2956.55 1027.99 2956.55 Q1033.62 2956.55 1036.39 2959.47 Q1039.17 2962.38 1039.17 2968.31 Z" fill="#000000" fill-rule="nonzero" fill-opacity="1" /><path clip-path="url(#clip300)" d="M1052.16 2949.81 L1052.16 2957.17 L1060.93 2957.17 L1060.93 2960.48 L1052.16 2960.48 L1052.16 2974.56 Q1052.16 2977.73 1053.01 2978.63 Q1053.89 2979.54 1056.56 2979.54 L1060.93 2979.54 L1060.93 2983.1 L1056.56 2983.1 Q1051.63 2983.1 1049.75 2981.27 Q1047.88 2979.42 1047.88 2974.56 L1047.88 2960.48 L1044.75 2960.48 L1044.75 2957.17 L1047.88 2957.17 L1047.88 2949.81 L1052.16 2949.81 Z" fill="#000000" fill-rule="nonzero" fill-opacity="1" /><path clip-path="url(#clip300)" d="M1088.71 2969.07 L1088.71 2971.16 L1069.13 2971.16 Q1069.4 2975.55 1071.76 2977.87 Q1074.15 2980.16 1078.38 2980.16 Q1080.84 2980.16 1083.13 2979.56 Q1085.44 2978.96 1087.71 2977.75 L1087.71 2981.78 Q1085.42 2982.75 1083.01 2983.26 Q1080.61 2983.77 1078.13 2983.77 Q1071.93 2983.77 1068.29 2980.16 Q1064.68 2976.55 1064.68 2970.39 Q1064.68 2964.03 1068.11 2960.3 Q1071.56 2956.55 1077.39 2956.55 Q1082.62 2956.55 1085.65 2959.93 Q1088.71 2963.29 1088.71 2969.07 M1084.45 2967.82 Q1084.4 2964.33 1082.48 2962.24 Q1080.58 2960.16 1077.44 2960.16 Q1073.87 2960.16 1071.72 2962.17 Q1069.59 2964.19 1069.26 2967.85 L1084.45 2967.82 Z" fill="#000000" fill-rule="nonzero" fill-opacity="1" /><path clip-path="url(#clip300)" d="M1112.76 2961.11 L1112.76 2947.08 L1117.02 2947.08 L1117.02 2983.1 L1112.76 2983.1 L1112.76 2979.21 Q1111.42 2981.53 1109.36 2982.66 Q1107.32 2983.77 1104.45 2983.77 Q1099.75 2983.77 1096.79 2980.02 Q1093.85 2976.27 1093.85 2970.16 Q1093.85 2964.05 1096.79 2960.3 Q1099.75 2956.55 1104.45 2956.55 Q1107.32 2956.55 1109.36 2957.68 Q1111.42 2958.79 1112.76 2961.11 M1098.25 2970.16 Q1098.25 2974.86 1100.17 2977.54 Q1102.11 2980.21 1105.49 2980.21 Q1108.87 2980.21 1110.81 2977.54 Q1112.76 2974.86 1112.76 2970.16 Q1112.76 2965.46 1110.81 2962.8 Q1108.87 2960.11 1105.49 2960.11 Q1102.11 2960.11 1100.17 2962.8 Q1098.25 2965.46 1098.25 2970.16 Z" fill="#000000" fill-rule="nonzero" fill-opacity="1" /><path clip-path="url(#clip300)" d="M900.515 3004.99 L894.172 3022.19 L906.881 3022.19 L900.515 3004.99 M897.876 3000.38 L903.177 3000.38 L916.348 3034.94 L911.487 3034.94 L908.339 3026.07 L892.76 3026.07 L889.612 3034.94 L884.682 3034.94 L897.876 3000.38 Z" fill="#000000" fill-rule="nonzero" fill-opacity="1" /><path clip-path="url(#clip300)" d="M942.76 3019.29 L942.76 3034.94 L938.501 3034.94 L938.501 3019.43 Q938.501 3015.75 937.066 3013.92 Q935.63 3012.09 932.76 3012.09 Q929.311 3012.09 927.32 3014.29 Q925.33 3016.49 925.33 3020.29 L925.33 3034.94 L921.047 3034.94 L921.047 3009.01 L925.33 3009.01 L925.33 3013.04 Q926.857 3010.7 928.917 3009.55 Q931.001 3008.39 933.709 3008.39 Q938.177 3008.39 940.468 3011.17 Q942.76 3013.92 942.76 3019.29 Z" fill="#000000" fill-rule="nonzero" fill-opacity="1" /><path clip-path="url(#clip300)" d="M972.806 3019.29 L972.806 3034.94 L968.547 3034.94 L968.547 3019.43 Q968.547 3015.75 967.112 3013.92 Q965.677 3012.09 962.806 3012.09 Q959.357 3012.09 957.366 3014.29 Q955.376 3016.49 955.376 3020.29 L955.376 3034.94 L951.093 3034.94 L951.093 3009.01 L955.376 3009.01 L955.376 3013.04 Q956.903 3010.7 958.964 3009.55 Q961.047 3008.39 963.755 3008.39 Q968.223 3008.39 970.514 3011.17 Q972.806 3013.92 972.806 3019.29 Z" fill="#000000" fill-rule="nonzero" fill-opacity="1" /><path clip-path="url(#clip300)" d="M1003.48 3020.91 L1003.48 3023 L983.894 3023 Q984.172 3027.39 986.533 3029.71 Q988.917 3032 993.153 3032 Q995.607 3032 997.899 3031.4 Q1000.21 3030.8 1002.48 3029.59 L1002.48 3033.62 Q1000.19 3034.59 997.783 3035.1 Q995.375 3035.61 992.899 3035.61 Q986.695 3035.61 983.061 3032 Q979.45 3028.39 979.45 3022.23 Q979.45 3015.87 982.876 3012.14 Q986.325 3008.39 992.158 3008.39 Q997.389 3008.39 1000.42 3011.77 Q1003.48 3015.13 1003.48 3020.91 M999.218 3019.66 Q999.172 3016.17 997.25 3014.08 Q995.352 3012 992.204 3012 Q988.639 3012 986.487 3014.01 Q984.357 3016.03 984.033 3019.69 L999.218 3019.66 Z" fill="#000000" fill-rule="nonzero" fill-opacity="1" /><path clip-path="url(#clip300)" d="M1022.25 3021.91 Q1017.09 3021.91 1015.1 3023.09 Q1013.11 3024.27 1013.11 3027.12 Q1013.11 3029.38 1014.59 3030.73 Q1016.09 3032.05 1018.66 3032.05 Q1022.2 3032.05 1024.33 3029.55 Q1026.49 3027.02 1026.49 3022.86 L1026.49 3021.91 L1022.25 3021.91 M1030.75 3020.15 L1030.75 3034.94 L1026.49 3034.94 L1026.49 3031 Q1025.03 3033.37 1022.85 3034.5 Q1020.68 3035.61 1017.53 3035.61 Q1013.55 3035.61 1011.19 3033.39 Q1008.85 3031.14 1008.85 3027.39 Q1008.85 3023.02 1011.76 3020.8 Q1014.7 3018.57 1020.51 3018.57 L1026.49 3018.57 L1026.49 3018.16 Q1026.49 3015.22 1024.54 3013.62 Q1022.62 3012 1019.13 3012 Q1016.9 3012 1014.8 3012.53 Q1012.69 3013.06 1010.75 3014.13 L1010.75 3010.19 Q1013.08 3009.29 1015.28 3008.85 Q1017.48 3008.39 1019.57 3008.39 Q1025.19 3008.39 1027.97 3011.31 Q1030.75 3014.22 1030.75 3020.15 Z" fill="#000000" fill-rule="nonzero" fill-opacity="1" /><path clip-path="url(#clip300)" d="M1039.52 2998.92 L1043.78 2998.92 L1043.78 3034.94 L1039.52 3034.94 L1039.52 2998.92 Z" fill="#000000" fill-rule="nonzero" fill-opacity="1" /><path clip-path="url(#clip300)" d="M1052.69 3009.01 L1056.95 3009.01 L1056.95 3034.94 L1052.69 3034.94 L1052.69 3009.01 M1052.69 2998.92 L1056.95 2998.92 L1056.95 3004.32 L1052.69 3004.32 L1052.69 2998.92 Z" fill="#000000" fill-rule="nonzero" fill-opacity="1" /><path clip-path="url(#clip300)" d="M1087.41 3019.29 L1087.41 3034.94 L1083.15 3034.94 L1083.15 3019.43 Q1083.15 3015.75 1081.72 3013.92 Q1080.28 3012.09 1077.41 3012.09 Q1073.96 3012.09 1071.97 3014.29 Q1069.98 3016.49 1069.98 3020.29 L1069.98 3034.94 L1065.7 3034.94 L1065.7 3009.01 L1069.98 3009.01 L1069.98 3013.04 Q1071.51 3010.7 1073.57 3009.55 Q1075.65 3008.39 1078.36 3008.39 Q1082.83 3008.39 1085.12 3011.17 Q1087.41 3013.92 1087.41 3019.29 Z" fill="#000000" fill-rule="nonzero" fill-opacity="1" /><path clip-path="url(#clip300)" d="M1112.97 3021.68 Q1112.97 3017.05 1111.05 3014.5 Q1109.15 3011.95 1105.7 3011.95 Q1102.27 3011.95 1100.35 3014.5 Q1098.45 3017.05 1098.45 3021.68 Q1098.45 3026.28 1100.35 3028.83 Q1102.27 3031.38 1105.7 3031.38 Q1109.15 3031.38 1111.05 3028.83 Q1112.97 3026.28 1112.97 3021.68 M1117.23 3031.72 Q1117.23 3038.34 1114.29 3041.56 Q1111.35 3044.8 1105.28 3044.8 Q1103.04 3044.8 1101.05 3044.45 Q1099.06 3044.13 1097.18 3043.44 L1097.18 3039.29 Q1099.06 3040.31 1100.88 3040.8 Q1102.71 3041.28 1104.61 3041.28 Q1108.8 3041.28 1110.88 3039.08 Q1112.97 3036.91 1112.97 3032.49 L1112.97 3030.38 Q1111.65 3032.67 1109.59 3033.81 Q1107.53 3034.94 1104.66 3034.94 Q1099.89 3034.94 1096.97 3031.31 Q1094.06 3027.67 1094.06 3021.68 Q1094.06 3015.66 1096.97 3012.02 Q1099.89 3008.39 1104.66 3008.39 Q1107.53 3008.39 1109.59 3009.52 Q1111.65 3010.66 1112.97 3012.95 L1112.97 3009.01 L1117.23 3009.01 L1117.23 3031.72 Z" fill="#000000" fill-rule="nonzero" fill-opacity="1" /><path clip-path="url(#clip300)" d="M452.022 3075.48 L461.602 3075.48 L473.729 3107.82 L485.919 3075.48 L495.499 3075.48 L495.499 3123 L489.229 3123 L489.229 3081.28 L476.975 3113.87 L470.514 3113.87 L458.26 3081.28 L458.26 3123 L452.022 3123 L452.022 3075.48 Z" fill="#000000" fill-rule="nonzero" fill-opacity="1" /><path clip-path="url(#clip300)" d="M538.5 3103.72 L538.5 3106.58 L511.573 3106.58 Q511.955 3112.63 515.201 3115.81 Q518.48 3118.96 524.304 3118.96 Q527.678 3118.96 530.829 3118.13 Q534.012 3117.31 537.131 3115.65 L537.131 3121.19 Q533.98 3122.53 530.67 3123.23 Q527.36 3123.93 523.954 3123.93 Q515.424 3123.93 510.427 3118.96 Q505.462 3114 505.462 3105.53 Q505.462 3096.78 510.172 3091.65 Q514.915 3086.5 522.936 3086.5 Q530.129 3086.5 534.298 3091.14 Q538.5 3095.76 538.5 3103.72 M532.643 3102 Q532.58 3097.19 529.938 3094.33 Q527.328 3091.46 522.999 3091.46 Q518.098 3091.46 515.138 3094.23 Q512.209 3097 511.764 3102.03 L532.643 3102 Z" fill="#000000" fill-rule="nonzero" fill-opacity="1" /><path clip-path="url(#clip300)" d="M553.905 3077.23 L553.905 3087.36 L565.968 3087.36 L565.968 3091.91 L553.905 3091.91 L553.905 3111.26 Q553.905 3115.62 555.082 3116.86 Q556.292 3118.1 559.952 3118.1 L565.968 3118.1 L565.968 3123 L559.952 3123 Q553.173 3123 550.595 3120.49 Q548.017 3117.94 548.017 3111.26 L548.017 3091.91 L543.72 3091.91 L543.72 3087.36 L548.017 3087.36 L548.017 3077.23 L553.905 3077.23 Z" fill="#000000" fill-rule="nonzero" fill-opacity="1" /><path clip-path="url(#clip300)" d="M589.871 3105.08 Q582.773 3105.08 580.036 3106.71 Q577.299 3108.33 577.299 3112.25 Q577.299 3115.36 579.336 3117.21 Q581.405 3119.03 584.938 3119.03 Q589.807 3119.03 592.736 3115.59 Q595.696 3112.12 595.696 3106.39 L595.696 3105.08 L589.871 3105.08 M601.552 3102.67 L601.552 3123 L595.696 3123 L595.696 3117.59 Q593.69 3120.84 590.699 3122.4 Q587.707 3123.93 583.378 3123.93 Q577.904 3123.93 574.657 3120.87 Q571.442 3117.78 571.442 3112.63 Q571.442 3106.61 575.453 3103.56 Q579.495 3100.5 587.484 3100.5 L595.696 3100.5 L595.696 3099.93 Q595.696 3095.89 593.022 3093.69 Q590.38 3091.46 585.574 3091.46 Q582.519 3091.46 579.622 3092.19 Q576.726 3092.93 574.052 3094.39 L574.052 3088.98 Q577.267 3087.74 580.291 3087.13 Q583.314 3086.5 586.179 3086.5 Q593.913 3086.5 597.733 3090.51 Q601.552 3094.52 601.552 3102.67 Z" fill="#000000" fill-rule="nonzero" fill-opacity="1" /><path clip-path="url(#clip300)" d="M643.247 3101.49 L643.247 3123 L637.391 3123 L637.391 3101.68 Q637.391 3096.62 635.418 3094.1 Q633.444 3091.59 629.498 3091.59 Q624.755 3091.59 622.018 3094.61 Q619.281 3097.64 619.281 3102.86 L619.281 3123 L613.392 3123 L613.392 3073.48 L619.281 3073.48 L619.281 3092.89 Q621.381 3089.68 624.214 3088.09 Q627.079 3086.5 630.803 3086.5 Q636.945 3086.5 640.096 3090.32 Q643.247 3094.1 643.247 3101.49 Z" fill="#000000" fill-rule="nonzero" fill-opacity="1" /><path clip-path="url(#clip300)" d="M685.42 3103.72 L685.42 3106.58 L658.493 3106.58 Q658.875 3112.63 662.122 3115.81 Q665.4 3118.96 671.225 3118.96 Q674.599 3118.96 677.75 3118.13 Q680.932 3117.31 684.052 3115.65 L684.052 3121.19 Q680.901 3122.53 677.59 3123.23 Q674.28 3123.93 670.875 3123.93 Q662.345 3123.93 657.348 3118.96 Q652.382 3114 652.382 3105.53 Q652.382 3096.78 657.093 3091.65 Q661.835 3086.5 669.856 3086.5 Q677.049 3086.5 681.219 3091.14 Q685.42 3095.76 685.42 3103.72 M679.564 3102 Q679.5 3097.19 676.858 3094.33 Q674.248 3091.46 669.92 3091.46 Q665.018 3091.46 662.058 3094.23 Q659.13 3097 658.684 3102.03 L679.564 3102 Z" fill="#000000" fill-rule="nonzero" fill-opacity="1" /><path clip-path="url(#clip300)" d="M694.428 3108.94 L694.428 3087.36 L700.284 3087.36 L700.284 3108.71 Q700.284 3113.77 702.258 3116.32 Q704.231 3118.83 708.178 3118.83 Q712.92 3118.83 715.657 3115.81 Q718.426 3112.79 718.426 3107.57 L718.426 3087.36 L724.283 3087.36 L724.283 3123 L718.426 3123 L718.426 3117.53 Q716.294 3120.78 713.461 3122.37 Q710.66 3123.93 706.936 3123.93 Q700.793 3123.93 697.611 3120.11 Q694.428 3116.29 694.428 3108.94 M709.164 3086.5 L709.164 3086.5 Z" fill="#000000" fill-rule="nonzero" fill-opacity="1" /><path clip-path="url(#clip300)" d="M757.003 3092.83 Q756.016 3092.26 754.838 3092 Q753.692 3091.72 752.292 3091.72 Q747.327 3091.72 744.653 3094.96 Q742.011 3098.18 742.011 3104.23 L742.011 3123 L736.123 3123 L736.123 3087.36 L742.011 3087.36 L742.011 3092.89 Q743.857 3089.65 746.818 3088.09 Q749.778 3086.5 754.011 3086.5 Q754.616 3086.5 755.348 3086.59 Q756.08 3086.66 756.971 3086.81 L757.003 3092.83 Z" fill="#000000" fill-rule="nonzero" fill-opacity="1" /><path clip-path="url(#clip300)" d="M770.498 3070.87 L776.832 3070.87 L766.456 3082.84 L761.586 3082.84 L770.498 3070.87 M763.146 3087.36 L769.002 3087.36 L769.002 3123 L763.146 3123 L763.146 3087.36 M766.074 3086.5 L766.074 3086.5 Z" fill="#000000" fill-rule="nonzero" fill-opacity="1" /><path clip-path="url(#clip300)" d="M803.982 3088.41 L803.982 3093.94 Q801.499 3092.67 798.825 3092.03 Q796.152 3091.4 793.287 3091.4 Q788.927 3091.4 786.731 3092.73 Q784.566 3094.07 784.566 3096.75 Q784.566 3098.78 786.126 3099.96 Q787.685 3101.11 792.396 3102.16 L794.401 3102.6 Q800.64 3103.94 803.25 3106.39 Q805.891 3108.81 805.891 3113.17 Q805.891 3118.13 801.945 3121.03 Q798.03 3123.93 791.155 3123.93 Q788.29 3123.93 785.171 3123.35 Q782.084 3122.81 778.646 3121.7 L778.646 3115.65 Q781.893 3117.34 785.044 3118.2 Q788.195 3119.03 791.282 3119.03 Q795.42 3119.03 797.648 3117.62 Q799.876 3116.19 799.876 3113.61 Q799.876 3111.23 798.252 3109.95 Q796.661 3108.68 791.218 3107.5 L789.181 3107.03 Q783.739 3105.88 781.32 3103.52 Q778.901 3101.14 778.901 3097 Q778.901 3091.97 782.465 3089.23 Q786.03 3086.5 792.587 3086.5 Q795.833 3086.5 798.698 3086.97 Q801.563 3087.45 803.982 3088.41 Z" fill="#000000" fill-rule="nonzero" fill-opacity="1" /><path clip-path="url(#clip300)" d="M821.01 3077.23 L821.01 3087.36 L833.073 3087.36 L833.073 3091.91 L821.01 3091.91 L821.01 3111.26 Q821.01 3115.62 822.187 3116.86 Q823.397 3118.1 827.057 3118.1 L833.073 3118.1 L833.073 3123 L827.057 3123 Q820.278 3123 817.7 3120.49 Q815.122 3117.94 815.122 3111.26 L815.122 3091.91 L810.825 3091.91 L810.825 3087.36 L815.122 3087.36 L815.122 3077.23 L821.01 3077.23 Z" fill="#000000" fill-rule="nonzero" fill-opacity="1" /><path clip-path="url(#clip300)" d="M840.775 3087.36 L846.632 3087.36 L846.632 3123 L840.775 3123 L840.775 3087.36 M840.775 3073.48 L846.632 3073.48 L846.632 3080.89 L840.775 3080.89 L840.775 3073.48 Z" fill="#000000" fill-rule="nonzero" fill-opacity="1" /><path clip-path="url(#clip300)" d="M884.54 3088.72 L884.54 3094.2 Q882.057 3092.83 879.543 3092.16 Q877.06 3091.46 874.514 3091.46 Q868.816 3091.46 865.665 3095.09 Q862.514 3098.69 862.514 3105.21 Q862.514 3111.74 865.665 3115.36 Q868.816 3118.96 874.514 3118.96 Q877.06 3118.96 879.543 3118.29 Q882.057 3117.59 884.54 3116.22 L884.54 3121.64 Q882.089 3122.78 879.447 3123.35 Q876.837 3123.93 873.877 3123.93 Q865.824 3123.93 861.082 3118.87 Q856.34 3113.81 856.34 3105.21 Q856.34 3096.49 861.114 3091.49 Q865.92 3086.5 874.259 3086.5 Q876.964 3086.5 879.543 3087.07 Q882.121 3087.61 884.54 3088.72 Z" fill="#000000" fill-rule="nonzero" fill-opacity="1" /><path clip-path="url(#clip300)" d="M910.925 3105.08 Q903.828 3105.08 901.09 3106.71 Q898.353 3108.33 898.353 3112.25 Q898.353 3115.36 900.39 3117.21 Q902.459 3119.03 905.992 3119.03 Q910.862 3119.03 913.79 3115.59 Q916.75 3112.12 916.75 3106.39 L916.75 3105.08 L910.925 3105.08 M922.607 3102.67 L922.607 3123 L916.75 3123 L916.75 3117.59 Q914.745 3120.84 911.753 3122.4 Q908.761 3123.93 904.432 3123.93 Q898.958 3123.93 895.711 3120.87 Q892.497 3117.78 892.497 3112.63 Q892.497 3106.61 896.507 3103.56 Q900.549 3100.5 908.538 3100.5 L916.75 3100.5 L916.75 3099.93 Q916.75 3095.89 914.076 3093.69 Q911.435 3091.46 906.629 3091.46 Q903.573 3091.46 900.677 3092.19 Q897.78 3092.93 895.107 3094.39 L895.107 3088.98 Q898.321 3087.74 901.345 3087.13 Q904.369 3086.5 907.233 3086.5 Q914.968 3086.5 918.787 3090.51 Q922.607 3094.52 922.607 3102.67 Z" fill="#000000" fill-rule="nonzero" fill-opacity="1" /><polyline clip-path="url(#clip302)" style="stroke:#000000; stroke-linecap:round; stroke-linejoin:round; stroke-width:2; stroke-opacity:0.1; fill:none" points="221.872,2474.8 1152.76,2474.8 "/>
<polyline clip-path="url(#clip302)" style="stroke:#000000; stroke-linecap:round; stroke-linejoin:round; stroke-width:2; stroke-opacity:0.1; fill:none" points="221.872,1861.06 1152.76,1861.06 "/>
<polyline clip-path="url(#clip302)" style="stroke:#000000; stroke-linecap:round; stroke-linejoin:round; stroke-width:2; stroke-opacity:0.1; fill:none" points="221.872,1247.32 1152.76,1247.32 "/>
<polyline clip-path="url(#clip302)" style="stroke:#000000; stroke-linecap:round; stroke-linejoin:round; stroke-width:2; stroke-opacity:0.1; fill:none" points="221.872,633.574 1152.76,633.574 "/>
<polyline clip-path="url(#clip300)" style="stroke:#000000; stroke-linecap:round; stroke-linejoin:round; stroke-width:4; stroke-opacity:1; fill:none" points="221.872,2914.3 221.872,47.2441 "/>
<polyline clip-path="url(#clip300)" style="stroke:#000000; stroke-linecap:round; stroke-linejoin:round; stroke-width:4; stroke-opacity:1; fill:none" points="221.872,2474.8 240.77,2474.8 "/>
<polyline clip-path="url(#clip300)" style="stroke:#000000; stroke-linecap:round; stroke-linejoin:round; stroke-width:4; stroke-opacity:1; fill:none" points="221.872,1861.06 240.77,1861.06 "/>
<polyline clip-path="url(#clip300)" style="stroke:#000000; stroke-linecap:round; stroke-linejoin:round; stroke-width:4; stroke-opacity:1; fill:none" points="221.872,1247.32 240.77,1247.32 "/>
<polyline clip-path="url(#clip300)" style="stroke:#000000; stroke-linecap:round; stroke-linejoin:round; stroke-width:4; stroke-opacity:1; fill:none" points="221.872,633.574 240.77,633.574 "/>
<path clip-path="url(#clip300)" d="M26.211 2460.6 Q22.5999 2460.6 20.7712 2464.16 Q18.9657 2467.7 18.9657 2474.83 Q18.9657 2481.94 20.7712 2485.5 Q22.5999 2489.05 26.211 2489.05 Q29.8453 2489.05 31.6508 2485.5 Q33.4795 2481.94 33.4795 2474.83 Q33.4795 2467.7 31.6508 2464.16 Q29.8453 2460.6 26.211 2460.6 M26.211 2456.89 Q32.0212 2456.89 35.0767 2461.5 Q38.1554 2466.08 38.1554 2474.83 Q38.1554 2483.56 35.0767 2488.17 Q32.0212 2492.75 26.211 2492.75 Q20.4009 2492.75 17.3222 2488.17 Q14.2666 2483.56 14.2666 2474.83 Q14.2666 2466.08 17.3222 2461.5 Q20.4009 2456.89 26.211 2456.89 Z" fill="#000000" fill-rule="nonzero" fill-opacity="1" /><path clip-path="url(#clip300)" d="M46.373 2486.2 L51.2572 2486.2 L51.2572 2492.08 L46.373 2492.08 L46.373 2486.2 Z" fill="#000000" fill-rule="nonzero" fill-opacity="1" /><path clip-path="url(#clip300)" d="M71.4423 2460.6 Q67.8312 2460.6 66.0025 2464.16 Q64.1969 2467.7 64.1969 2474.83 Q64.1969 2481.94 66.0025 2485.5 Q67.8312 2489.05 71.4423 2489.05 Q75.0765 2489.05 76.882 2485.5 Q78.7107 2481.94 78.7107 2474.83 Q78.7107 2467.7 76.882 2464.16 Q75.0765 2460.6 71.4423 2460.6 M71.4423 2456.89 Q77.2524 2456.89 80.308 2461.5 Q83.3866 2466.08 83.3866 2474.83 Q83.3866 2483.56 80.308 2488.17 Q77.2524 2492.75 71.4423 2492.75 Q65.6321 2492.75 62.5534 2488.17 Q59.4979 2483.56 59.4979 2474.83 Q59.4979 2466.08 62.5534 2461.5 Q65.6321 2456.89 71.4423 2456.89 Z" fill="#000000" fill-rule="nonzero" fill-opacity="1" /><path clip-path="url(#clip300)" d="M101.604 2460.6 Q97.993 2460.6 96.1644 2464.16 Q94.3588 2467.7 94.3588 2474.83 Q94.3588 2481.94 96.1644 2485.5 Q97.993 2489.05 101.604 2489.05 Q105.238 2489.05 107.044 2485.5 Q108.873 2481.94 108.873 2474.83 Q108.873 2467.7 107.044 2464.16 Q105.238 2460.6 101.604 2460.6 M101.604 2456.89 Q107.414 2456.89 110.47 2461.5 Q113.549 2466.08 113.549 2474.83 Q113.549 2483.56 110.47 2488.17 Q107.414 2492.75 101.604 2492.75 Q95.794 2492.75 92.7153 2488.17 Q89.6598 2483.56 89.6598 2474.83 Q89.6598 2466.08 92.7153 2461.5 Q95.794 2456.89 101.604 2456.89 Z" fill="#000000" fill-rule="nonzero" fill-opacity="1" /><path clip-path="url(#clip300)" d="M125.794 2488.14 L142.113 2488.14 L142.113 2492.08 L120.169 2492.08 L120.169 2488.14 Q122.831 2485.39 127.414 2480.76 Q132.021 2476.11 133.201 2474.76 Q135.447 2472.24 136.326 2470.5 Q137.229 2468.74 137.229 2467.05 Q137.229 2464.3 135.285 2462.56 Q133.363 2460.83 130.261 2460.83 Q128.062 2460.83 125.609 2461.59 Q123.178 2462.36 120.4 2463.91 L120.4 2459.18 Q123.224 2458.05 125.678 2457.47 Q128.132 2456.89 130.169 2456.89 Q135.539 2456.89 138.734 2459.58 Q141.928 2462.26 141.928 2466.75 Q141.928 2468.88 141.118 2470.8 Q140.331 2472.7 138.224 2475.3 Q137.646 2475.97 134.544 2479.18 Q131.442 2482.38 125.794 2488.14 Z" fill="#000000" fill-rule="nonzero" fill-opacity="1" /><path clip-path="url(#clip300)" d="M161.928 2460.6 Q158.317 2460.6 156.488 2464.16 Q154.683 2467.7 154.683 2474.83 Q154.683 2481.94 156.488 2485.5 Q158.317 2489.05 161.928 2489.05 Q165.562 2489.05 167.368 2485.5 Q169.196 2481.94 169.196 2474.83 Q169.196 2467.7 167.368 2464.16 Q165.562 2460.6 161.928 2460.6 M161.928 2456.89 Q167.738 2456.89 170.794 2461.5 Q173.872 2466.08 173.872 2474.83 Q173.872 2483.56 170.794 2488.17 Q167.738 2492.75 161.928 2492.75 Q156.118 2492.75 153.039 2488.17 Q149.984 2483.56 149.984 2474.83 Q149.984 2466.08 153.039 2461.5 Q156.118 2456.89 161.928 2456.89 Z" fill="#000000" fill-rule="nonzero" fill-opacity="1" /><path clip-path="url(#clip300)" d="M27.2064 1846.86 Q23.5953 1846.86 21.7666 1850.42 Q19.9611 1853.96 19.9611 1861.09 Q19.9611 1868.2 21.7666 1871.76 Q23.5953 1875.3 27.2064 1875.3 Q30.8406 1875.3 32.6462 1871.76 Q34.4749 1868.2 34.4749 1861.09 Q34.4749 1853.96 32.6462 1850.42 Q30.8406 1846.86 27.2064 1846.86 M27.2064 1843.15 Q33.0165 1843.15 36.0721 1847.76 Q39.1508 1852.34 39.1508 1861.09 Q39.1508 1869.82 36.0721 1874.42 Q33.0165 1879.01 27.2064 1879.01 Q21.3962 1879.01 18.3175 1874.42 Q15.262 1869.82 15.262 1861.09 Q15.262 1852.34 18.3175 1847.76 Q21.3962 1843.15 27.2064 1843.15 Z" fill="#000000" fill-rule="nonzero" fill-opacity="1" /><path clip-path="url(#clip300)" d="M47.3683 1872.46 L52.2525 1872.46 L52.2525 1878.34 L47.3683 1878.34 L47.3683 1872.46 Z" fill="#000000" fill-rule="nonzero" fill-opacity="1" /><path clip-path="url(#clip300)" d="M72.4376 1846.86 Q68.8265 1846.86 66.9978 1850.42 Q65.1923 1853.96 65.1923 1861.09 Q65.1923 1868.2 66.9978 1871.76 Q68.8265 1875.3 72.4376 1875.3 Q76.0719 1875.3 77.8774 1871.76 Q79.7061 1868.2 79.7061 1861.09 Q79.7061 1853.96 77.8774 1850.42 Q76.0719 1846.86 72.4376 1846.86 M72.4376 1843.15 Q78.2478 1843.15 81.3033 1847.76 Q84.382 1852.34 84.382 1861.09 Q84.382 1869.82 81.3033 1874.42 Q78.2478 1879.01 72.4376 1879.01 Q66.6275 1879.01 63.5488 1874.42 Q60.4932 1869.82 60.4932 1861.09 Q60.4932 1852.34 63.5488 1847.76 Q66.6275 1843.15 72.4376 1843.15 Z" fill="#000000" fill-rule="nonzero" fill-opacity="1" /><path clip-path="url(#clip300)" d="M102.6 1846.86 Q98.9884 1846.86 97.1597 1850.42 Q95.3542 1853.96 95.3542 1861.09 Q95.3542 1868.2 97.1597 1871.76 Q98.9884 1875.3 102.6 1875.3 Q106.234 1875.3 108.039 1871.76 Q109.868 1868.2 109.868 1861.09 Q109.868 1853.96 108.039 1850.42 Q106.234 1846.86 102.6 1846.86 M102.6 1843.15 Q108.41 1843.15 111.465 1847.76 Q114.544 1852.34 114.544 1861.09 Q114.544 1869.82 111.465 1874.42 Q108.41 1879.01 102.6 1879.01 Q96.7893 1879.01 93.7107 1874.42 Q90.6551 1869.82 90.6551 1861.09 Q90.6551 1852.34 93.7107 1847.76 Q96.7893 1843.15 102.6 1843.15 Z" fill="#000000" fill-rule="nonzero" fill-opacity="1" /><path clip-path="url(#clip300)" d="M126.789 1874.4 L143.109 1874.4 L143.109 1878.34 L121.164 1878.34 L121.164 1874.4 Q123.826 1871.65 128.41 1867.02 Q133.016 1862.36 134.197 1861.02 Q136.442 1858.5 137.322 1856.76 Q138.224 1855 138.224 1853.31 Q138.224 1850.56 136.28 1848.82 Q134.359 1847.09 131.257 1847.09 Q129.058 1847.09 126.604 1847.85 Q124.173 1848.61 121.396 1850.17 L121.396 1845.44 Q124.22 1844.31 126.673 1843.73 Q129.127 1843.15 131.164 1843.15 Q136.535 1843.15 139.729 1845.84 Q142.923 1848.52 142.923 1853.01 Q142.923 1855.14 142.113 1857.06 Q141.326 1858.96 139.22 1861.55 Q138.641 1862.23 135.539 1865.44 Q132.437 1868.64 126.789 1874.4 Z" fill="#000000" fill-rule="nonzero" fill-opacity="1" /><path clip-path="url(#clip300)" d="M152.97 1843.78 L171.326 1843.78 L171.326 1847.71 L157.252 1847.71 L157.252 1856.18 Q158.27 1855.84 159.289 1855.67 Q160.308 1855.49 161.326 1855.49 Q167.113 1855.49 170.493 1858.66 Q173.872 1861.83 173.872 1867.25 Q173.872 1872.83 170.4 1875.93 Q166.928 1879.01 160.608 1879.01 Q158.433 1879.01 156.164 1878.64 Q153.919 1878.27 151.511 1877.53 L151.511 1872.83 Q153.595 1873.96 155.817 1874.52 Q158.039 1875.07 160.516 1875.07 Q164.52 1875.07 166.858 1872.97 Q169.196 1870.86 169.196 1867.25 Q169.196 1863.64 166.858 1861.53 Q164.52 1859.42 160.516 1859.42 Q158.641 1859.42 156.766 1859.84 Q154.914 1860.26 152.97 1861.14 L152.97 1843.78 Z" fill="#000000" fill-rule="nonzero" fill-opacity="1" /><path clip-path="url(#clip300)" d="M26.211 1233.11 Q22.5999 1233.11 20.7712 1236.68 Q18.9657 1240.22 18.9657 1247.35 Q18.9657 1254.46 20.7712 1258.02 Q22.5999 1261.56 26.211 1261.56 Q29.8453 1261.56 31.6508 1258.02 Q33.4795 1254.46 33.4795 1247.35 Q33.4795 1240.22 31.6508 1236.68 Q29.8453 1233.11 26.211 1233.11 M26.211 1229.41 Q32.0212 1229.41 35.0767 1234.02 Q38.1554 1238.6 38.1554 1247.35 Q38.1554 1256.08 35.0767 1260.68 Q32.0212 1265.27 26.211 1265.27 Q20.4009 1265.27 17.3222 1260.68 Q14.2666 1256.08 14.2666 1247.35 Q14.2666 1238.6 17.3222 1234.02 Q20.4009 1229.41 26.211 1229.41 Z" fill="#000000" fill-rule="nonzero" fill-opacity="1" /><path clip-path="url(#clip300)" d="M46.373 1258.72 L51.2572 1258.72 L51.2572 1264.6 L46.373 1264.6 L46.373 1258.72 Z" fill="#000000" fill-rule="nonzero" fill-opacity="1" /><path clip-path="url(#clip300)" d="M71.4423 1233.11 Q67.8312 1233.11 66.0025 1236.68 Q64.1969 1240.22 64.1969 1247.35 Q64.1969 1254.46 66.0025 1258.02 Q67.8312 1261.56 71.4423 1261.56 Q75.0765 1261.56 76.882 1258.02 Q78.7107 1254.46 78.7107 1247.35 Q78.7107 1240.22 76.882 1236.68 Q75.0765 1233.11 71.4423 1233.11 M71.4423 1229.41 Q77.2524 1229.41 80.308 1234.02 Q83.3866 1238.6 83.3866 1247.35 Q83.3866 1256.08 80.308 1260.68 Q77.2524 1265.27 71.4423 1265.27 Q65.6321 1265.27 62.5534 1260.68 Q59.4979 1256.08 59.4979 1247.35 Q59.4979 1238.6 62.5534 1234.02 Q65.6321 1229.41 71.4423 1229.41 Z" fill="#000000" fill-rule="nonzero" fill-opacity="1" /><path clip-path="url(#clip300)" d="M101.604 1233.11 Q97.993 1233.11 96.1644 1236.68 Q94.3588 1240.22 94.3588 1247.35 Q94.3588 1254.46 96.1644 1258.02 Q97.993 1261.56 101.604 1261.56 Q105.238 1261.56 107.044 1258.02 Q108.873 1254.46 108.873 1247.35 Q108.873 1240.22 107.044 1236.68 Q105.238 1233.11 101.604 1233.11 M101.604 1229.41 Q107.414 1229.41 110.47 1234.02 Q113.549 1238.6 113.549 1247.35 Q113.549 1256.08 110.47 1260.68 Q107.414 1265.27 101.604 1265.27 Q95.794 1265.27 92.7153 1260.68 Q89.6598 1256.08 89.6598 1247.35 Q89.6598 1238.6 92.7153 1234.02 Q95.794 1229.41 101.604 1229.41 Z" fill="#000000" fill-rule="nonzero" fill-opacity="1" /><path clip-path="url(#clip300)" d="M135.933 1245.96 Q139.289 1246.68 141.164 1248.95 Q143.062 1251.22 143.062 1254.55 Q143.062 1259.66 139.544 1262.47 Q136.025 1265.27 129.544 1265.27 Q127.368 1265.27 125.053 1264.83 Q122.761 1264.41 120.308 1263.55 L120.308 1259.04 Q122.252 1260.17 124.567 1260.75 Q126.882 1261.33 129.405 1261.33 Q133.803 1261.33 136.095 1259.6 Q138.409 1257.86 138.409 1254.55 Q138.409 1251.49 136.257 1249.78 Q134.127 1248.04 130.308 1248.04 L126.28 1248.04 L126.28 1244.2 L130.493 1244.2 Q133.942 1244.2 135.771 1242.84 Q137.599 1241.45 137.599 1238.85 Q137.599 1236.19 135.701 1234.78 Q133.826 1233.35 130.308 1233.35 Q128.386 1233.35 126.187 1233.76 Q123.988 1234.18 121.349 1235.06 L121.349 1230.89 Q124.011 1230.15 126.326 1229.78 Q128.664 1229.41 130.724 1229.41 Q136.048 1229.41 139.15 1231.84 Q142.252 1234.25 142.252 1238.37 Q142.252 1241.24 140.609 1243.23 Q138.965 1245.2 135.933 1245.96 Z" fill="#000000" fill-rule="nonzero" fill-opacity="1" /><path clip-path="url(#clip300)" d="M161.928 1233.11 Q158.317 1233.11 156.488 1236.68 Q154.683 1240.22 154.683 1247.35 Q154.683 1254.46 156.488 1258.02 Q158.317 1261.56 161.928 1261.56 Q165.562 1261.56 167.368 1258.02 Q169.196 1254.46 169.196 1247.35 Q169.196 1240.22 167.368 1236.68 Q165.562 1233.11 161.928 1233.11 M161.928 1229.41 Q167.738 1229.41 170.794 1234.02 Q173.872 1238.6 173.872 1247.35 Q173.872 1256.08 170.794 1260.68 Q167.738 1265.27 161.928 1265.27 Q156.118 1265.27 153.039 1260.68 Q149.984 1256.08 149.984 1247.35 Q149.984 1238.6 153.039 1234.02 Q156.118 1229.41 161.928 1229.41 Z" fill="#000000" fill-rule="nonzero" fill-opacity="1" /><path clip-path="url(#clip300)" d="M27.2064 619.373 Q23.5953 619.373 21.7666 622.938 Q19.9611 626.48 19.9611 633.609 Q19.9611 640.716 21.7666 644.28 Q23.5953 647.822 27.2064 647.822 Q30.8406 647.822 32.6462 644.28 Q34.4749 640.716 34.4749 633.609 Q34.4749 626.48 32.6462 622.938 Q30.8406 619.373 27.2064 619.373 M27.2064 615.669 Q33.0165 615.669 36.0721 620.276 Q39.1508 624.859 39.1508 633.609 Q39.1508 642.336 36.0721 646.942 Q33.0165 651.526 27.2064 651.526 Q21.3962 651.526 18.3175 646.942 Q15.262 642.336 15.262 633.609 Q15.262 624.859 18.3175 620.276 Q21.3962 615.669 27.2064 615.669 Z" fill="#000000" fill-rule="nonzero" fill-opacity="1" /><path clip-path="url(#clip300)" d="M47.3683 644.975 L52.2525 644.975 L52.2525 650.854 L47.3683 650.854 L47.3683 644.975 Z" fill="#000000" fill-rule="nonzero" fill-opacity="1" /><path clip-path="url(#clip300)" d="M72.4376 619.373 Q68.8265 619.373 66.9978 622.938 Q65.1923 626.48 65.1923 633.609 Q65.1923 640.716 66.9978 644.28 Q68.8265 647.822 72.4376 647.822 Q76.0719 647.822 77.8774 644.28 Q79.7061 640.716 79.7061 633.609 Q79.7061 626.48 77.8774 622.938 Q76.0719 619.373 72.4376 619.373 M72.4376 615.669 Q78.2478 615.669 81.3033 620.276 Q84.382 624.859 84.382 633.609 Q84.382 642.336 81.3033 646.942 Q78.2478 651.526 72.4376 651.526 Q66.6275 651.526 63.5488 646.942 Q60.4932 642.336 60.4932 633.609 Q60.4932 624.859 63.5488 620.276 Q66.6275 615.669 72.4376 615.669 Z" fill="#000000" fill-rule="nonzero" fill-opacity="1" /><path clip-path="url(#clip300)" d="M102.6 619.373 Q98.9884 619.373 97.1597 622.938 Q95.3542 626.48 95.3542 633.609 Q95.3542 640.716 97.1597 644.28 Q98.9884 647.822 102.6 647.822 Q106.234 647.822 108.039 644.28 Q109.868 640.716 109.868 633.609 Q109.868 626.48 108.039 622.938 Q106.234 619.373 102.6 619.373 M102.6 615.669 Q108.41 615.669 111.465 620.276 Q114.544 624.859 114.544 633.609 Q114.544 642.336 111.465 646.942 Q108.41 651.526 102.6 651.526 Q96.7893 651.526 93.7107 646.942 Q90.6551 642.336 90.6551 633.609 Q90.6551 624.859 93.7107 620.276 Q96.7893 615.669 102.6 615.669 Z" fill="#000000" fill-rule="nonzero" fill-opacity="1" /><path clip-path="url(#clip300)" d="M136.928 632.22 Q140.284 632.938 142.159 635.206 Q144.058 637.475 144.058 640.808 Q144.058 645.924 140.539 648.725 Q137.021 651.526 130.539 651.526 Q128.363 651.526 126.048 651.086 Q123.757 650.669 121.303 649.813 L121.303 645.299 Q123.248 646.433 125.562 647.012 Q127.877 647.591 130.4 647.591 Q134.798 647.591 137.09 645.855 Q139.405 644.118 139.405 640.808 Q139.405 637.753 137.252 636.04 Q135.122 634.304 131.303 634.304 L127.275 634.304 L127.275 630.461 L131.488 630.461 Q134.937 630.461 136.766 629.095 Q138.595 627.706 138.595 625.114 Q138.595 622.452 136.697 621.04 Q134.822 619.605 131.303 619.605 Q129.382 619.605 127.183 620.021 Q124.984 620.438 122.345 621.318 L122.345 617.151 Q125.007 616.41 127.322 616.04 Q129.66 615.669 131.72 615.669 Q137.044 615.669 140.146 618.1 Q143.247 620.507 143.247 624.628 Q143.247 627.498 141.604 629.489 Q139.96 631.456 136.928 632.22 Z" fill="#000000" fill-rule="nonzero" fill-opacity="1" /><path clip-path="url(#clip300)" d="M152.97 616.294 L171.326 616.294 L171.326 620.23 L157.252 620.23 L157.252 628.702 Q158.27 628.355 159.289 628.193 Q160.308 628.007 161.326 628.007 Q167.113 628.007 170.493 631.179 Q173.872 634.35 173.872 639.767 Q173.872 645.345 170.4 648.447 Q166.928 651.526 160.608 651.526 Q158.433 651.526 156.164 651.155 Q153.919 650.785 151.511 650.044 L151.511 645.345 Q153.595 646.48 155.817 647.035 Q158.039 647.591 160.516 647.591 Q164.52 647.591 166.858 645.484 Q169.196 643.378 169.196 639.767 Q169.196 636.155 166.858 634.049 Q164.52 631.943 160.516 631.943 Q158.641 631.943 156.766 632.359 Q154.914 632.776 152.97 633.655 L152.97 616.294 Z" fill="#000000" fill-rule="nonzero" fill-opacity="1" /><path clip-path="url(#clip300)" d="M-91.8491 1648.01 L-85.0696 1648.01 Q-88.0933 1651.26 -89.5893 1654.95 Q-91.0852 1658.61 -91.0852 1662.75 Q-91.0852 1670.9 -86.0881 1675.23 Q-81.1229 1679.56 -71.7016 1679.56 Q-62.3122 1679.56 -57.3151 1675.23 Q-52.3499 1670.9 -52.3499 1662.75 Q-52.3499 1658.61 -53.8458 1654.95 Q-55.3418 1651.26 -58.3655 1648.01 L-51.6496 1648.01 Q-49.358 1651.39 -48.2122 1655.18 Q-47.0663 1658.93 -47.0663 1663.13 Q-47.0663 1673.92 -53.6548 1680.13 Q-60.2752 1686.34 -71.7016 1686.34 Q-83.1599 1686.34 -89.7484 1680.13 Q-96.3687 1673.92 -96.3687 1663.13 Q-96.3687 1658.87 -95.2229 1655.11 Q-94.1089 1651.33 -91.8491 1648.01 Z" fill="#000000" fill-rule="nonzero" fill-opacity="1" /><path clip-path="url(#clip300)" d="M-67.2775 1607.85 L-64.4129 1607.85 L-64.4129 1634.77 Q-58.3655 1634.39 -55.1826 1631.15 Q-52.0316 1627.87 -52.0316 1622.04 Q-52.0316 1618.67 -52.8591 1615.52 Q-53.6867 1612.34 -55.3418 1609.22 L-49.8036 1609.22 Q-48.4668 1612.37 -47.7666 1615.68 Q-47.0663 1618.99 -47.0663 1622.39 Q-47.0663 1630.92 -52.0316 1635.92 Q-56.9968 1640.89 -65.4632 1640.89 Q-74.2161 1640.89 -79.3405 1636.17 Q-84.4967 1631.43 -84.4967 1623.41 Q-84.4967 1616.22 -79.8497 1612.05 Q-75.2346 1607.85 -67.2775 1607.85 M-68.9962 1613.7 Q-73.8023 1613.77 -76.6669 1616.41 Q-79.5314 1619.02 -79.5314 1623.35 Q-79.5314 1628.25 -76.7624 1631.21 Q-73.9933 1634.14 -68.9644 1634.58 L-68.9962 1613.7 Z" fill="#000000" fill-rule="nonzero" fill-opacity="1" /><path clip-path="url(#clip300)" d="M-69.5054 1568.6 L-47.9894 1568.6 L-47.9894 1574.46 L-69.3145 1574.46 Q-74.3752 1574.46 -76.8897 1576.43 Q-79.4041 1578.41 -79.4041 1582.35 Q-79.4041 1587.1 -76.3804 1589.83 Q-73.3567 1592.57 -68.1368 1592.57 L-47.9894 1592.57 L-47.9894 1598.46 L-83.6373 1598.46 L-83.6373 1592.57 L-78.0992 1592.57 Q-81.3138 1590.47 -82.9053 1587.64 Q-84.4967 1584.77 -84.4967 1581.05 Q-84.4967 1574.9 -80.6773 1571.75 Q-76.8897 1568.6 -69.5054 1568.6 Z" fill="#000000" fill-rule="nonzero" fill-opacity="1" /><path clip-path="url(#clip300)" d="M-93.7588 1551.13 L-83.6373 1551.13 L-83.6373 1539.07 L-79.0858 1539.07 L-79.0858 1551.13 L-59.7341 1551.13 Q-55.3736 1551.13 -54.1323 1549.95 Q-52.891 1548.74 -52.891 1545.08 L-52.891 1539.07 L-47.9894 1539.07 L-47.9894 1545.08 Q-47.9894 1551.86 -50.5038 1554.44 Q-53.0501 1557.02 -59.7341 1557.02 L-79.0858 1557.02 L-79.0858 1561.31 L-83.6373 1561.31 L-83.6373 1557.02 L-93.7588 1557.02 L-93.7588 1551.13 Z" fill="#000000" fill-rule="nonzero" fill-opacity="1" /><path clip-path="url(#clip300)" d="M-78.1628 1510.71 Q-78.7357 1511.69 -78.9904 1512.87 Q-79.2768 1514.02 -79.2768 1515.42 Q-79.2768 1520.38 -76.0303 1523.06 Q-72.8156 1525.7 -66.7682 1525.7 L-47.9894 1525.7 L-47.9894 1531.59 L-83.6373 1531.59 L-83.6373 1525.7 L-78.0992 1525.7 Q-81.3457 1523.85 -82.9053 1520.89 Q-84.4967 1517.93 -84.4967 1513.7 Q-84.4967 1513.09 -84.4012 1512.36 Q-84.3375 1511.63 -84.1784 1510.74 L-78.1628 1510.71 Z" fill="#000000" fill-rule="nonzero" fill-opacity="1" /><path clip-path="url(#clip300)" d="M-65.9088 1488.36 Q-65.9088 1495.46 -64.2856 1498.2 Q-62.6623 1500.94 -58.7474 1500.94 Q-55.6282 1500.94 -53.7822 1498.9 Q-51.9679 1496.83 -51.9679 1493.3 Q-51.9679 1488.43 -55.4054 1485.5 Q-58.8747 1482.54 -64.6039 1482.54 L-65.9088 1482.54 L-65.9088 1488.36 M-68.3278 1476.68 L-47.9894 1476.68 L-47.9894 1482.54 L-53.4002 1482.54 Q-50.1537 1484.54 -48.5941 1487.54 Q-47.0663 1490.53 -47.0663 1494.86 Q-47.0663 1500.33 -50.1219 1503.58 Q-53.2092 1506.79 -58.3655 1506.79 Q-64.3811 1506.79 -67.4366 1502.78 Q-70.4921 1498.74 -70.4921 1490.75 L-70.4921 1482.54 L-71.065 1482.54 Q-75.1073 1482.54 -77.3034 1485.21 Q-79.5314 1487.85 -79.5314 1492.66 Q-79.5314 1495.72 -78.7994 1498.61 Q-78.0673 1501.51 -76.6032 1504.18 L-82.0141 1504.18 Q-83.2554 1500.97 -83.8601 1497.94 Q-84.4967 1494.92 -84.4967 1492.06 Q-84.4967 1484.32 -80.4863 1480.5 Q-76.4759 1476.68 -68.3278 1476.68 Z" fill="#000000" fill-rule="nonzero" fill-opacity="1" /><path clip-path="url(#clip300)" d="M-97.5146 1464.62 L-97.5146 1458.76 L-47.9894 1458.76 L-47.9894 1464.62 L-97.5146 1464.62 Z" fill="#000000" fill-rule="nonzero" fill-opacity="1" /><path clip-path="url(#clip300)" d="M-83.6373 1446.51 L-83.6373 1440.65 L-47.9894 1440.65 L-47.9894 1446.51 L-83.6373 1446.51 M-97.5146 1446.51 L-97.5146 1440.65 L-90.0985 1440.65 L-90.0985 1446.51 L-97.5146 1446.51 Z" fill="#000000" fill-rule="nonzero" fill-opacity="1" /><path clip-path="url(#clip300)" d="M-78.2265 1404.94 L-97.5146 1404.94 L-97.5146 1399.08 L-47.9894 1399.08 L-47.9894 1404.94 L-53.3366 1404.94 Q-50.1537 1406.79 -48.5941 1409.62 Q-47.0663 1412.42 -47.0663 1416.37 Q-47.0663 1422.83 -52.2226 1426.9 Q-57.3788 1430.94 -65.7815 1430.94 Q-74.1842 1430.94 -79.3405 1426.9 Q-84.4967 1422.83 -84.4967 1416.37 Q-84.4967 1412.42 -82.9371 1409.62 Q-81.4093 1406.79 -78.2265 1404.94 M-65.7815 1424.9 Q-59.3203 1424.9 -55.6282 1422.26 Q-51.9679 1419.58 -51.9679 1414.93 Q-51.9679 1410.29 -55.6282 1407.61 Q-59.3203 1404.94 -65.7815 1404.94 Q-72.2427 1404.94 -75.903 1407.61 Q-79.5951 1410.29 -79.5951 1414.93 Q-79.5951 1419.58 -75.903 1422.26 Q-72.2427 1424.9 -65.7815 1424.9 Z" fill="#000000" fill-rule="nonzero" fill-opacity="1" /><path clip-path="url(#clip300)" d="M-65.9088 1370.82 Q-65.9088 1377.92 -64.2856 1380.66 Q-62.6623 1383.39 -58.7474 1383.39 Q-55.6282 1383.39 -53.7822 1381.36 Q-51.9679 1379.29 -51.9679 1375.75 Q-51.9679 1370.88 -55.4054 1367.96 Q-58.8747 1365 -64.6039 1365 L-65.9088 1365 L-65.9088 1370.82 M-68.3278 1359.14 L-47.9894 1359.14 L-47.9894 1365 L-53.4002 1365 Q-50.1537 1367 -48.5941 1369.99 Q-47.0663 1372.98 -47.0663 1377.31 Q-47.0663 1382.79 -50.1219 1386.03 Q-53.2092 1389.25 -58.3655 1389.25 Q-64.3811 1389.25 -67.4366 1385.24 Q-70.4921 1381.2 -70.4921 1373.21 L-70.4921 1365 L-71.065 1365 Q-75.1073 1365 -77.3034 1367.67 Q-79.5314 1370.31 -79.5314 1375.12 Q-79.5314 1378.17 -78.7994 1381.07 Q-78.0673 1383.97 -76.6032 1386.64 L-82.0141 1386.64 Q-83.2554 1383.42 -83.8601 1380.4 Q-84.4967 1377.38 -84.4967 1374.51 Q-84.4967 1366.78 -80.4863 1362.96 Q-76.4759 1359.14 -68.3278 1359.14 Z" fill="#000000" fill-rule="nonzero" fill-opacity="1" /><path clip-path="url(#clip300)" d="M-78.2265 1323.62 L-97.5146 1323.62 L-97.5146 1317.76 L-47.9894 1317.76 L-47.9894 1323.62 L-53.3366 1323.62 Q-50.1537 1325.46 -48.5941 1328.3 Q-47.0663 1331.1 -47.0663 1335.05 Q-47.0663 1341.51 -52.2226 1345.58 Q-57.3788 1349.62 -65.7815 1349.62 Q-74.1842 1349.62 -79.3405 1345.58 Q-84.4967 1341.51 -84.4967 1335.05 Q-84.4967 1331.1 -82.9371 1328.3 Q-81.4093 1325.46 -78.2265 1323.62 M-65.7815 1343.58 Q-59.3203 1343.58 -55.6282 1340.93 Q-51.9679 1338.26 -51.9679 1333.61 Q-51.9679 1328.97 -55.6282 1326.29 Q-59.3203 1323.62 -65.7815 1323.62 Q-72.2427 1323.62 -75.903 1326.29 Q-79.5951 1328.97 -79.5951 1333.61 Q-79.5951 1338.26 -75.903 1340.93 Q-72.2427 1343.58 -65.7815 1343.58 Z" fill="#000000" fill-rule="nonzero" fill-opacity="1" /><path clip-path="url(#clip300)" d="M-67.2775 1275.21 L-64.4129 1275.21 L-64.4129 1302.13 Q-58.3655 1301.75 -55.1826 1298.51 Q-52.0316 1295.23 -52.0316 1289.4 Q-52.0316 1286.03 -52.8591 1282.88 Q-53.6867 1279.7 -55.3418 1276.58 L-49.8036 1276.58 Q-48.4668 1279.73 -47.7666 1283.04 Q-47.0663 1286.35 -47.0663 1289.75 Q-47.0663 1298.28 -52.0316 1303.28 Q-56.9968 1308.25 -65.4632 1308.25 Q-74.2161 1308.25 -79.3405 1303.53 Q-84.4967 1298.79 -84.4967 1290.77 Q-84.4967 1283.58 -79.8497 1279.41 Q-75.2346 1275.21 -67.2775 1275.21 M-68.9962 1281.06 Q-73.8023 1281.13 -76.6669 1283.77 Q-79.5314 1286.38 -79.5314 1290.71 Q-79.5314 1295.61 -76.7624 1298.57 Q-73.9933 1301.5 -68.9644 1301.94 L-68.9962 1281.06 Z" fill="#000000" fill-rule="nonzero" fill-opacity="1" /><path clip-path="url(#clip302)" d="M373.674 1955.99 L310.946 1955.99 L436.402 1955.99 L373.674 1955.99 L373.674 1269.62 L373.674 1955.99  Z" fill="#009af9" fill-rule="evenodd" fill-opacity="1"/>
<polyline clip-path="url(#clip302)" style="stroke:#000000; stroke-linecap:round; stroke-linejoin:round; stroke-width:4; stroke-opacity:1; fill:none" points="373.674,1955.99 310.946,1955.99 436.402,1955.99 373.674,1955.99 373.674,1269.62 373.674,1955.99 "/>
<path clip-path="url(#clip302)" d="M499.13 1269.62 L499.13 1026.59 L248.218 1026.59 L248.218 1269.62 L499.13 1269.62 L499.13 1026.59 L499.13 1269.62  Z" fill="#009af9" fill-rule="evenodd" fill-opacity="1"/>
<polyline clip-path="url(#clip302)" style="stroke:#000000; stroke-linecap:round; stroke-linejoin:round; stroke-width:4; stroke-opacity:1; fill:none" points="499.13,1269.62 499.13,1026.59 248.218,1026.59 248.218,1269.62 499.13,1269.62 499.13,1026.59 499.13,1269.62 "/>
<path clip-path="url(#clip302)" d="M499.13 799.148 L248.218 799.148 L248.218 1026.59 L499.13 1026.59 L499.13 799.148 L373.674 799.148 L499.13 799.148  Z" fill="#009af9" fill-rule="evenodd" fill-opacity="1"/>
<polyline clip-path="url(#clip302)" style="stroke:#000000; stroke-linecap:round; stroke-linejoin:round; stroke-width:4; stroke-opacity:1; fill:none" points="499.13,799.148 248.218,799.148 248.218,1026.59 499.13,1026.59 499.13,799.148 373.674,799.148 499.13,799.148 "/>
<path clip-path="url(#clip302)" d="M373.674 165.466 L310.946 165.466 L436.402 165.466 L373.674 165.466 L373.674 799.148 L373.674 165.466  Z" fill="#009af9" fill-rule="evenodd" fill-opacity="1"/>
<polyline clip-path="url(#clip302)" style="stroke:#000000; stroke-linecap:round; stroke-linejoin:round; stroke-width:4; stroke-opacity:1; fill:none" points="373.674,165.466 310.946,165.466 436.402,165.466 373.674,165.466 373.674,799.148 373.674,165.466 "/>
<circle clip-path="url(#clip302)" cx="373.674" cy="2099.23" r="14.4" fill="#009af9" fill-rule="evenodd" fill-opacity="1" stroke="#000000" stroke-opacity="1" stroke-width="2.4"/>
<circle clip-path="url(#clip302)" cx="373.674" cy="2311.3" r="14.4" fill="#009af9" fill-rule="evenodd" fill-opacity="1" stroke="#000000" stroke-opacity="1" stroke-width="2.4"/>
<circle clip-path="url(#clip302)" cx="373.674" cy="2499.71" r="14.4" fill="#009af9" fill-rule="evenodd" fill-opacity="1" stroke="#000000" stroke-opacity="1" stroke-width="2.4"/>
<circle clip-path="url(#clip302)" cx="373.674" cy="2055.5" r="14.4" fill="#009af9" fill-rule="evenodd" fill-opacity="1" stroke="#000000" stroke-opacity="1" stroke-width="2.4"/>
<circle clip-path="url(#clip302)" cx="373.674" cy="2451.52" r="14.4" fill="#009af9" fill-rule="evenodd" fill-opacity="1" stroke="#000000" stroke-opacity="1" stroke-width="2.4"/>
<circle clip-path="url(#clip302)" cx="373.674" cy="2148.82" r="14.4" fill="#009af9" fill-rule="evenodd" fill-opacity="1" stroke="#000000" stroke-opacity="1" stroke-width="2.4"/>
<circle clip-path="url(#clip302)" cx="373.674" cy="2148.73" r="14.4" fill="#009af9" fill-rule="evenodd" fill-opacity="1" stroke="#000000" stroke-opacity="1" stroke-width="2.4"/>
<circle clip-path="url(#clip302)" cx="373.674" cy="1998.07" r="14.4" fill="#009af9" fill-rule="evenodd" fill-opacity="1" stroke="#000000" stroke-opacity="1" stroke-width="2.4"/>
<polyline clip-path="url(#clip302)" style="stroke:#009af9; stroke-linecap:round; stroke-linejoin:round; stroke-width:0; stroke-opacity:1; fill:none" points="373.674,1955.99 310.946,1955.99 436.402,1955.99 373.674,1955.99 373.674,1269.62 "/>
<polyline clip-path="url(#clip302)" style="stroke:#009af9; stroke-linecap:round; stroke-linejoin:round; stroke-width:0; stroke-opacity:1; fill:none" points="499.13,1269.62 499.13,1026.59 248.218,1026.59 248.218,1269.62 499.13,1269.62 499.13,1026.59 "/>
<polyline clip-path="url(#clip302)" style="stroke:#009af9; stroke-linecap:round; stroke-linejoin:round; stroke-width:0; stroke-opacity:1; fill:none" points="499.13,799.148 248.218,799.148 248.218,1026.59 499.13,1026.59 499.13,799.148 373.674,799.148 "/>
<polyline clip-path="url(#clip302)" style="stroke:#009af9; stroke-linecap:round; stroke-linejoin:round; stroke-width:0; stroke-opacity:1; fill:none" points="373.674,165.466 310.946,165.466 436.402,165.466 373.674,165.466 373.674,799.148 "/>
<path clip-path="url(#clip302)" d="M687.314 2235.93 L624.586 2235.93 L750.042 2235.93 L687.314 2235.93 L687.314 1498.42 L687.314 2235.93  Z" fill="#e26f46" fill-rule="evenodd" fill-opacity="1"/>
<polyline clip-path="url(#clip302)" style="stroke:#000000; stroke-linecap:round; stroke-linejoin:round; stroke-width:4; stroke-opacity:1; fill:none" points="687.314,2235.93 624.586,2235.93 750.042,2235.93 687.314,2235.93 687.314,1498.42 687.314,2235.93 "/>
<path clip-path="url(#clip302)" d="M812.77 1498.42 L812.77 1228.5 L561.858 1228.5 L561.858 1498.42 L812.77 1498.42 L812.77 1228.5 L812.77 1498.42  Z" fill="#e26f46" fill-rule="evenodd" fill-opacity="1"/>
<polyline clip-path="url(#clip302)" style="stroke:#000000; stroke-linecap:round; stroke-linejoin:round; stroke-width:4; stroke-opacity:1; fill:none" points="812.77,1498.42 812.77,1228.5 561.858,1228.5 561.858,1498.42 812.77,1498.42 812.77,1228.5 812.77,1498.42 "/>
<path clip-path="url(#clip302)" d="M812.77 991.258 L561.858 991.258 L561.858 1228.5 L812.77 1228.5 L812.77 991.258 L687.314 991.258 L812.77 991.258  Z" fill="#e26f46" fill-rule="evenodd" fill-opacity="1"/>
<polyline clip-path="url(#clip302)" style="stroke:#000000; stroke-linecap:round; stroke-linejoin:round; stroke-width:4; stroke-opacity:1; fill:none" points="812.77,991.258 561.858,991.258 561.858,1228.5 812.77,1228.5 812.77,991.258 687.314,991.258 812.77,991.258 "/>
<path clip-path="url(#clip302)" d="M687.314 398.054 L624.586 398.054 L750.042 398.054 L687.314 398.054 L687.314 991.258 L687.314 398.054  Z" fill="#e26f46" fill-rule="evenodd" fill-opacity="1"/>
<polyline clip-path="url(#clip302)" style="stroke:#000000; stroke-linecap:round; stroke-linejoin:round; stroke-width:4; stroke-opacity:1; fill:none" points="687.314,398.054 624.586,398.054 750.042,398.054 687.314,398.054 687.314,991.258 687.314,398.054 "/>
<circle clip-path="url(#clip302)" cx="687.314" cy="2833.16" r="14.4" fill="#e26f46" fill-rule="evenodd" fill-opacity="1" stroke="#000000" stroke-opacity="1" stroke-width="2.4"/>
<circle clip-path="url(#clip302)" cx="687.314" cy="2272.8" r="14.4" fill="#e26f46" fill-rule="evenodd" fill-opacity="1" stroke="#000000" stroke-opacity="1" stroke-width="2.4"/>
<circle clip-path="url(#clip302)" cx="687.314" cy="2285.56" r="14.4" fill="#e26f46" fill-rule="evenodd" fill-opacity="1" stroke="#000000" stroke-opacity="1" stroke-width="2.4"/>
<circle clip-path="url(#clip302)" cx="687.314" cy="2275.93" r="14.4" fill="#e26f46" fill-rule="evenodd" fill-opacity="1" stroke="#000000" stroke-opacity="1" stroke-width="2.4"/>
<circle clip-path="url(#clip302)" cx="687.314" cy="2781.94" r="14.4" fill="#e26f46" fill-rule="evenodd" fill-opacity="1" stroke="#000000" stroke-opacity="1" stroke-width="2.4"/>
<circle clip-path="url(#clip302)" cx="687.314" cy="2685.17" r="14.4" fill="#e26f46" fill-rule="evenodd" fill-opacity="1" stroke="#000000" stroke-opacity="1" stroke-width="2.4"/>
<circle clip-path="url(#clip302)" cx="687.314" cy="2540.55" r="14.4" fill="#e26f46" fill-rule="evenodd" fill-opacity="1" stroke="#000000" stroke-opacity="1" stroke-width="2.4"/>
<circle clip-path="url(#clip302)" cx="687.314" cy="2312.45" r="14.4" fill="#e26f46" fill-rule="evenodd" fill-opacity="1" stroke="#000000" stroke-opacity="1" stroke-width="2.4"/>
<circle clip-path="url(#clip302)" cx="687.314" cy="2370.85" r="14.4" fill="#e26f46" fill-rule="evenodd" fill-opacity="1" stroke="#000000" stroke-opacity="1" stroke-width="2.4"/>
<circle clip-path="url(#clip302)" cx="687.314" cy="2439.46" r="14.4" fill="#e26f46" fill-rule="evenodd" fill-opacity="1" stroke="#000000" stroke-opacity="1" stroke-width="2.4"/>
<circle clip-path="url(#clip302)" cx="687.314" cy="2346.28" r="14.4" fill="#e26f46" fill-rule="evenodd" fill-opacity="1" stroke="#000000" stroke-opacity="1" stroke-width="2.4"/>
<polyline clip-path="url(#clip302)" style="stroke:#e26f46; stroke-linecap:round; stroke-linejoin:round; stroke-width:0; stroke-opacity:1; fill:none" points="687.314,2235.93 624.586,2235.93 750.042,2235.93 687.314,2235.93 687.314,1498.42 "/>
<polyline clip-path="url(#clip302)" style="stroke:#e26f46; stroke-linecap:round; stroke-linejoin:round; stroke-width:0; stroke-opacity:1; fill:none" points="812.77,1498.42 812.77,1228.5 561.858,1228.5 561.858,1498.42 812.77,1498.42 812.77,1228.5 "/>
<polyline clip-path="url(#clip302)" style="stroke:#e26f46; stroke-linecap:round; stroke-linejoin:round; stroke-width:0; stroke-opacity:1; fill:none" points="812.77,991.258 561.858,991.258 561.858,1228.5 812.77,1228.5 812.77,991.258 687.314,991.258 "/>
<polyline clip-path="url(#clip302)" style="stroke:#e26f46; stroke-linecap:round; stroke-linejoin:round; stroke-width:0; stroke-opacity:1; fill:none" points="687.314,398.054 624.586,398.054 750.042,398.054 687.314,398.054 687.314,991.258 "/>
<path clip-path="url(#clip302)" d="M1000.95 1948.35 L938.226 1948.35 L1063.68 1948.35 L1000.95 1948.35 L1000.95 1300.46 L1000.95 1948.35  Z" fill="#3da44d" fill-rule="evenodd" fill-opacity="1"/>
<polyline clip-path="url(#clip302)" style="stroke:#000000; stroke-linecap:round; stroke-linejoin:round; stroke-width:4; stroke-opacity:1; fill:none" points="1000.95,1948.35 938.226,1948.35 1063.68,1948.35 1000.95,1948.35 1000.95,1300.46 1000.95,1948.35 "/>
<path clip-path="url(#clip302)" d="M1126.41 1300.46 L1126.41 1064.71 L875.498 1064.71 L875.498 1300.46 L1126.41 1300.46 L1126.41 1064.71 L1126.41 1300.46  Z" fill="#3da44d" fill-rule="evenodd" fill-opacity="1"/>
<polyline clip-path="url(#clip302)" style="stroke:#000000; stroke-linecap:round; stroke-linejoin:round; stroke-width:4; stroke-opacity:1; fill:none" points="1126.41,1300.46 1126.41,1064.71 875.498,1064.71 875.498,1300.46 1126.41,1300.46 1126.41,1064.71 1126.41,1300.46 "/>
<path clip-path="url(#clip302)" d="M1126.41 865.872 L875.498 865.872 L875.498 1064.71 L1126.41 1064.71 L1126.41 865.872 L1000.95 865.872 L1126.41 865.872  Z" fill="#3da44d" fill-rule="evenodd" fill-opacity="1"/>
<polyline clip-path="url(#clip302)" style="stroke:#000000; stroke-linecap:round; stroke-linejoin:round; stroke-width:4; stroke-opacity:1; fill:none" points="1126.41,865.872 875.498,865.872 875.498,1064.71 1126.41,1064.71 1126.41,865.872 1000.95,865.872 1126.41,865.872 "/>
<path clip-path="url(#clip302)" d="M1000.95 223.722 L938.226 223.722 L1063.68 223.722 L1000.95 223.722 L1000.95 865.872 L1000.95 223.722  Z" fill="#3da44d" fill-rule="evenodd" fill-opacity="1"/>
<polyline clip-path="url(#clip302)" style="stroke:#000000; stroke-linecap:round; stroke-linejoin:round; stroke-width:4; stroke-opacity:1; fill:none" points="1000.95,223.722 938.226,223.722 1063.68,223.722 1000.95,223.722 1000.95,865.872 1000.95,223.722 "/>
<circle clip-path="url(#clip302)" cx="1000.95" cy="2369.75" r="14.4" fill="#3da44d" fill-rule="evenodd" fill-opacity="1" stroke="#000000" stroke-opacity="1" stroke-width="2.4"/>
<circle clip-path="url(#clip302)" cx="1000.95" cy="2004.82" r="14.4" fill="#3da44d" fill-rule="evenodd" fill-opacity="1" stroke="#000000" stroke-opacity="1" stroke-width="2.4"/>
<circle clip-path="url(#clip302)" cx="1000.95" cy="2541.56" r="14.4" fill="#3da44d" fill-rule="evenodd" fill-opacity="1" stroke="#000000" stroke-opacity="1" stroke-width="2.4"/>
<circle clip-path="url(#clip302)" cx="1000.95" cy="2132.98" r="14.4" fill="#3da44d" fill-rule="evenodd" fill-opacity="1" stroke="#000000" stroke-opacity="1" stroke-width="2.4"/>
<circle clip-path="url(#clip302)" cx="1000.95" cy="1983.09" r="14.4" fill="#3da44d" fill-rule="evenodd" fill-opacity="1" stroke="#000000" stroke-opacity="1" stroke-width="2.4"/>
<circle clip-path="url(#clip302)" cx="1000.95" cy="2005.65" r="14.4" fill="#3da44d" fill-rule="evenodd" fill-opacity="1" stroke="#000000" stroke-opacity="1" stroke-width="2.4"/>
<circle clip-path="url(#clip302)" cx="1000.95" cy="2105.07" r="14.4" fill="#3da44d" fill-rule="evenodd" fill-opacity="1" stroke="#000000" stroke-opacity="1" stroke-width="2.4"/>
<circle clip-path="url(#clip302)" cx="1000.95" cy="2491.24" r="14.4" fill="#3da44d" fill-rule="evenodd" fill-opacity="1" stroke="#000000" stroke-opacity="1" stroke-width="2.4"/>
<circle clip-path="url(#clip302)" cx="1000.95" cy="128.387" r="14.4" fill="#3da44d" fill-rule="evenodd" fill-opacity="1" stroke="#000000" stroke-opacity="1" stroke-width="2.4"/>
<circle clip-path="url(#clip302)" cx="1000.95" cy="2362.33" r="14.4" fill="#3da44d" fill-rule="evenodd" fill-opacity="1" stroke="#000000" stroke-opacity="1" stroke-width="2.4"/>
<circle clip-path="url(#clip302)" cx="1000.95" cy="2228.04" r="14.4" fill="#3da44d" fill-rule="evenodd" fill-opacity="1" stroke="#000000" stroke-opacity="1" stroke-width="2.4"/>
<circle clip-path="url(#clip302)" cx="1000.95" cy="2029.67" r="14.4" fill="#3da44d" fill-rule="evenodd" fill-opacity="1" stroke="#000000" stroke-opacity="1" stroke-width="2.4"/>
<circle clip-path="url(#clip302)" cx="1000.95" cy="2100.99" r="14.4" fill="#3da44d" fill-rule="evenodd" fill-opacity="1" stroke="#000000" stroke-opacity="1" stroke-width="2.4"/>
<circle clip-path="url(#clip302)" cx="1000.95" cy="2075.49" r="14.4" fill="#3da44d" fill-rule="evenodd" fill-opacity="1" stroke="#000000" stroke-opacity="1" stroke-width="2.4"/>
<polyline clip-path="url(#clip302)" style="stroke:#3da44d; stroke-linecap:round; stroke-linejoin:round; stroke-width:0; stroke-opacity:1; fill:none" points="1000.95,1948.35 938.226,1948.35 1063.68,1948.35 1000.95,1948.35 1000.95,1300.46 "/>
<polyline clip-path="url(#clip302)" style="stroke:#3da44d; stroke-linecap:round; stroke-linejoin:round; stroke-width:0; stroke-opacity:1; fill:none" points="1126.41,1300.46 1126.41,1064.71 875.498,1064.71 875.498,1300.46 1126.41,1300.46 1126.41,1064.71 "/>
<polyline clip-path="url(#clip302)" style="stroke:#3da44d; stroke-linecap:round; stroke-linejoin:round; stroke-width:0; stroke-opacity:1; fill:none" points="1126.41,865.872 875.498,865.872 875.498,1064.71 1126.41,1064.71 1126.41,865.872 1000.95,865.872 "/>
<polyline clip-path="url(#clip302)" style="stroke:#3da44d; stroke-linecap:round; stroke-linejoin:round; stroke-width:0; stroke-opacity:1; fill:none" points="1000.95,223.722 938.226,223.722 1063.68,223.722 1000.95,223.722 1000.95,865.872 "/>
</svg>
