<?xml version="1.0" encoding="utf-8"?>
<svg xmlns="http://www.w3.org/2000/svg" xmlns:xlink="http://www.w3.org/1999/xlink" width="800" height="800" viewBox="0 0 3200 3200">
<defs>
  <clipPath id="clip170">
    <rect x="0" y="0" width="3200" height="3200"/>
  </clipPath>
</defs>
<path clip-path="url(#clip170)" d="M0 3200 L3200 3200 L3200 0 L0 0  Z" fill="#ffffff" fill-rule="evenodd" fill-opacity="1"/>
<defs>
  <clipPath id="clip171">
    <rect x="640" y="320" width="2241" height="2241"/>
  </clipPath>
</defs>
<path clip-path="url(#clip170)" d="M267.043 2914.3 L3152.76 2914.3 L3152.76 47.2441 L267.043 47.2441  Z" fill="#ffffff" fill-rule="evenodd" fill-opacity="1"/>
<defs>
  <clipPath id="clip172">
    <rect x="267" y="47" width="2887" height="2868"/>
  </clipPath>
</defs>
<polyline clip-path="url(#clip172)" style="stroke:#000000; stroke-linecap:round; stroke-linejoin:round; stroke-width:2; stroke-opacity:0.1; fill:none" points="737.624,2914.3 737.624,47.2441 "/>
<polyline clip-path="url(#clip172)" style="stroke:#000000; stroke-linecap:round; stroke-linejoin:round; stroke-width:2; stroke-opacity:0.1; fill:none" points="1709.9,2914.3 1709.9,47.2441 "/>
<polyline clip-path="url(#clip172)" style="stroke:#000000; stroke-linecap:round; stroke-linejoin:round; stroke-width:2; stroke-opacity:0.1; fill:none" points="2682.17,2914.3 2682.17,47.2441 "/>
<polyline clip-path="url(#clip170)" style="stroke:#000000; stroke-linecap:round; stroke-linejoin:round; stroke-width:4; stroke-opacity:1; fill:none" points="267.043,2914.3 3152.76,2914.3 "/>
<polyline clip-path="url(#clip170)" style="stroke:#000000; stroke-linecap:round; stroke-linejoin:round; stroke-width:4; stroke-opacity:1; fill:none" points="737.624,2914.3 737.624,2895.4 "/>
<polyline clip-path="url(#clip170)" style="stroke:#000000; stroke-linecap:round; stroke-linejoin:round; stroke-width:4; stroke-opacity:1; fill:none" points="1709.9,2914.3 1709.9,2895.4 "/>
<polyline clip-path="url(#clip170)" style="stroke:#000000; stroke-linecap:round; stroke-linejoin:round; stroke-width:4; stroke-opacity:1; fill:none" points="2682.17,2914.3 2682.17,2895.4 "/>
<path clip-path="url(#clip170)" d="M639.372 2953.15 L633.03 2970.35 L645.738 2970.35 L639.372 2953.15 M636.733 2948.54 L642.034 2948.54 L655.206 2983.1 L650.344 2983.1 L647.196 2974.23 L631.618 2974.23 L628.47 2983.1 L623.539 2983.1 L636.733 2948.54 Z" fill="#000000" fill-rule="nonzero" fill-opacity="1" /><path clip-path="url(#clip170)" d="M660.067 2947.08 L664.326 2947.08 L664.326 2983.1 L660.067 2983.1 L660.067 2947.08 Z" fill="#000000" fill-rule="nonzero" fill-opacity="1" /><path clip-path="url(#clip170)" d="M690.298 2969.84 Q690.298 2965.21 688.377 2962.66 Q686.479 2960.11 683.029 2960.11 Q679.604 2960.11 677.682 2962.66 Q675.784 2965.21 675.784 2969.84 Q675.784 2974.44 677.682 2976.99 Q679.604 2979.54 683.029 2979.54 Q686.479 2979.54 688.377 2976.99 Q690.298 2974.44 690.298 2969.84 M694.557 2979.88 Q694.557 2986.5 691.617 2989.72 Q688.678 2992.96 682.613 2992.96 Q680.367 2992.96 678.377 2992.61 Q676.386 2992.29 674.511 2991.6 L674.511 2987.45 Q676.386 2988.47 678.215 2988.96 Q680.043 2989.44 681.942 2989.44 Q686.131 2989.44 688.215 2987.24 Q690.298 2985.07 690.298 2980.65 L690.298 2978.54 Q688.979 2980.83 686.918 2981.97 Q684.858 2983.1 681.988 2983.1 Q677.219 2983.1 674.303 2979.47 Q671.386 2975.83 671.386 2969.84 Q671.386 2963.82 674.303 2960.18 Q677.219 2956.55 681.988 2956.55 Q684.858 2956.55 686.918 2957.68 Q688.979 2958.82 690.298 2961.11 L690.298 2957.17 L694.557 2957.17 L694.557 2979.88 Z" fill="#000000" fill-rule="nonzero" fill-opacity="1" /><path clip-path="url(#clip170)" d="M713.377 2960.16 Q709.951 2960.16 707.96 2962.85 Q705.969 2965.51 705.969 2970.16 Q705.969 2974.81 707.937 2977.5 Q709.927 2980.16 713.377 2980.16 Q716.779 2980.16 718.77 2977.47 Q720.761 2974.79 720.761 2970.16 Q720.761 2965.55 718.77 2962.87 Q716.779 2960.16 713.377 2960.16 M713.377 2956.55 Q718.932 2956.55 722.103 2960.16 Q725.275 2963.77 725.275 2970.16 Q725.275 2976.53 722.103 2980.16 Q718.932 2983.77 713.377 2983.77 Q707.798 2983.77 704.627 2980.16 Q701.478 2976.53 701.478 2970.16 Q701.478 2963.77 704.627 2960.16 Q707.798 2956.55 713.377 2956.55 Z" fill="#000000" fill-rule="nonzero" fill-opacity="1" /><path clip-path="url(#clip170)" d="M747.358 2961.16 Q746.64 2960.74 745.784 2960.55 Q744.95 2960.35 743.932 2960.35 Q740.321 2960.35 738.376 2962.71 Q736.455 2965.04 736.455 2969.44 L736.455 2983.1 L732.173 2983.1 L732.173 2957.17 L736.455 2957.17 L736.455 2961.2 Q737.798 2958.84 739.95 2957.71 Q742.103 2956.55 745.182 2956.55 Q745.622 2956.55 746.154 2956.62 Q746.687 2956.66 747.335 2956.78 L747.358 2961.16 Z" fill="#000000" fill-rule="nonzero" fill-opacity="1" /><path clip-path="url(#clip170)" d="M751.825 2957.17 L756.085 2957.17 L756.085 2983.1 L751.825 2983.1 L751.825 2957.17 M751.825 2947.08 L756.085 2947.08 L756.085 2952.48 L751.825 2952.48 L751.825 2947.08 Z" fill="#000000" fill-rule="nonzero" fill-opacity="1" /><path clip-path="url(#clip170)" d="M769.21 2949.81 L769.21 2957.17 L777.983 2957.17 L777.983 2960.48 L769.21 2960.48 L769.21 2974.56 Q769.21 2977.73 770.066 2978.63 Q770.946 2979.54 773.608 2979.54 L777.983 2979.54 L777.983 2983.1 L773.608 2983.1 Q768.677 2983.1 766.802 2981.27 Q764.927 2979.42 764.927 2974.56 L764.927 2960.48 L761.802 2960.48 L761.802 2957.17 L764.927 2957.17 L764.927 2949.81 L769.21 2949.81 Z" fill="#000000" fill-rule="nonzero" fill-opacity="1" /><path clip-path="url(#clip170)" d="M803.77 2962.15 Q805.367 2959.28 807.589 2957.91 Q809.811 2956.55 812.82 2956.55 Q816.871 2956.55 819.07 2959.4 Q821.269 2962.22 821.269 2967.45 L821.269 2983.1 L816.987 2983.1 L816.987 2967.59 Q816.987 2963.86 815.668 2962.06 Q814.348 2960.25 811.64 2960.25 Q808.33 2960.25 806.408 2962.45 Q804.487 2964.65 804.487 2968.45 L804.487 2983.1 L800.205 2983.1 L800.205 2967.59 Q800.205 2963.84 798.885 2962.06 Q797.566 2960.25 794.811 2960.25 Q791.547 2960.25 789.626 2962.47 Q787.705 2964.67 787.705 2968.45 L787.705 2983.1 L783.422 2983.1 L783.422 2957.17 L787.705 2957.17 L787.705 2961.2 Q789.163 2958.82 791.2 2957.68 Q793.237 2956.55 796.038 2956.55 Q798.862 2956.55 800.83 2957.98 Q802.82 2959.42 803.77 2962.15 Z" fill="#000000" fill-rule="nonzero" fill-opacity="1" /><path clip-path="url(#clip170)" d="M839.811 2960.16 Q836.385 2960.16 834.394 2962.85 Q832.404 2965.51 832.404 2970.16 Q832.404 2974.81 834.371 2977.5 Q836.362 2980.16 839.811 2980.16 Q843.214 2980.16 845.205 2977.47 Q847.195 2974.79 847.195 2970.16 Q847.195 2965.55 845.205 2962.87 Q843.214 2960.16 839.811 2960.16 M839.811 2956.55 Q845.367 2956.55 848.538 2960.16 Q851.709 2963.77 851.709 2970.16 Q851.709 2976.53 848.538 2980.16 Q845.367 2983.77 839.811 2983.77 Q834.232 2983.77 831.061 2980.16 Q827.913 2976.53 827.913 2970.16 Q827.913 2963.77 831.061 2960.16 Q834.232 2956.55 839.811 2956.55 Z" fill="#000000" fill-rule="nonzero" fill-opacity="1" /><path clip-path="url(#clip170)" d="M659.835 3030.01 L659.835 3020.73 L652.196 3020.73 L652.196 3016.88 L664.465 3016.88 L664.465 3031.72 Q661.756 3033.64 658.493 3034.64 Q655.229 3035.61 651.525 3035.61 Q643.423 3035.61 638.84 3030.89 Q634.28 3026.14 634.28 3017.69 Q634.28 3009.22 638.84 3004.5 Q643.423 2999.75 651.525 2999.75 Q654.905 2999.75 657.937 3000.59 Q660.993 3001.42 663.562 3003.04 L663.562 3008.02 Q660.969 3005.82 658.053 3004.71 Q655.136 3003.6 651.919 3003.6 Q645.576 3003.6 642.382 3007.14 Q639.21 3010.68 639.21 3017.69 Q639.21 3024.69 642.382 3028.23 Q645.576 3031.77 651.919 3031.77 Q654.395 3031.77 656.34 3031.35 Q658.284 3030.91 659.835 3030.01 Z" fill="#000000" fill-rule="nonzero" fill-opacity="1" /><path clip-path="url(#clip170)" d="M694.997 3020.91 L694.997 3023 L675.414 3023 Q675.692 3027.39 678.053 3029.71 Q680.437 3032 684.673 3032 Q687.127 3032 689.418 3031.4 Q691.733 3030.8 694.002 3029.59 L694.002 3033.62 Q691.71 3034.59 689.303 3035.1 Q686.895 3035.61 684.418 3035.61 Q678.215 3035.61 674.58 3032 Q670.969 3028.39 670.969 3022.23 Q670.969 3015.87 674.395 3012.14 Q677.844 3008.39 683.678 3008.39 Q688.909 3008.39 691.941 3011.77 Q694.997 3015.13 694.997 3020.91 M690.738 3019.66 Q690.691 3016.17 688.77 3014.08 Q686.872 3012 683.724 3012 Q680.159 3012 678.006 3014.01 Q675.877 3016.03 675.553 3019.69 L690.738 3019.66 Z" fill="#000000" fill-rule="nonzero" fill-opacity="1" /><path clip-path="url(#clip170)" d="M723.539 3019.29 L723.539 3034.94 L719.279 3034.94 L719.279 3019.43 Q719.279 3015.75 717.844 3013.92 Q716.409 3012.09 713.539 3012.09 Q710.09 3012.09 708.099 3014.29 Q706.108 3016.49 706.108 3020.29 L706.108 3034.94 L701.826 3034.94 L701.826 3009.01 L706.108 3009.01 L706.108 3013.04 Q707.636 3010.7 709.696 3009.55 Q711.779 3008.39 714.488 3008.39 Q718.955 3008.39 721.247 3011.17 Q723.539 3013.92 723.539 3019.29 Z" fill="#000000" fill-rule="nonzero" fill-opacity="1" /><path clip-path="url(#clip170)" d="M754.21 3020.91 L754.21 3023 L734.626 3023 Q734.904 3027.39 737.265 3029.71 Q739.65 3032 743.886 3032 Q746.339 3032 748.631 3031.4 Q750.946 3030.8 753.214 3029.59 L753.214 3033.62 Q750.923 3034.59 748.515 3035.1 Q746.108 3035.61 743.631 3035.61 Q737.427 3035.61 733.793 3032 Q730.182 3028.39 730.182 3022.23 Q730.182 3015.87 733.608 3012.14 Q737.057 3008.39 742.89 3008.39 Q748.122 3008.39 751.154 3011.77 Q754.21 3015.13 754.21 3020.91 M749.95 3019.66 Q749.904 3016.17 747.983 3014.08 Q746.085 3012 742.937 3012 Q739.372 3012 737.219 3014.01 Q735.089 3016.03 734.765 3019.69 L749.95 3019.66 M745.853 2997.02 L750.46 2997.02 L742.913 3005.73 L739.372 3005.73 L745.853 2997.02 Z" fill="#000000" fill-rule="nonzero" fill-opacity="1" /><path clip-path="url(#clip170)" d="M765.413 3001.65 L765.413 3009.01 L774.186 3009.01 L774.186 3012.32 L765.413 3012.32 L765.413 3026.4 Q765.413 3029.57 766.27 3030.47 Q767.149 3031.38 769.811 3031.38 L774.186 3031.38 L774.186 3034.94 L769.811 3034.94 Q764.881 3034.94 763.006 3033.11 Q761.131 3031.26 761.131 3026.4 L761.131 3012.32 L758.006 3012.32 L758.006 3009.01 L761.131 3009.01 L761.131 3001.65 L765.413 3001.65 Z" fill="#000000" fill-rule="nonzero" fill-opacity="1" /><path clip-path="url(#clip170)" d="M779.788 3009.01 L784.047 3009.01 L784.047 3034.94 L779.788 3034.94 L779.788 3009.01 M779.788 2998.92 L784.047 2998.92 L784.047 3004.32 L779.788 3004.32 L779.788 2998.92 Z" fill="#000000" fill-rule="nonzero" fill-opacity="1" /><path clip-path="url(#clip170)" d="M811.617 3010.01 L811.617 3013.99 Q809.811 3013 807.983 3012.51 Q806.177 3012 804.325 3012 Q800.182 3012 797.89 3014.64 Q795.598 3017.25 795.598 3022 Q795.598 3026.75 797.89 3029.38 Q800.182 3032 804.325 3032 Q806.177 3032 807.983 3031.51 Q809.811 3031 811.617 3030.01 L811.617 3033.94 Q809.834 3034.78 807.913 3035.19 Q806.015 3035.61 803.862 3035.61 Q798.006 3035.61 794.557 3031.93 Q791.108 3028.25 791.108 3022 Q791.108 3015.66 794.58 3012.02 Q798.075 3008.39 804.14 3008.39 Q806.108 3008.39 807.983 3008.81 Q809.857 3009.2 811.617 3010.01 Z" fill="#000000" fill-rule="nonzero" fill-opacity="1" /><path clip-path="url(#clip170)" d="M829.07 3012 Q825.644 3012 823.654 3014.69 Q821.663 3017.35 821.663 3022 Q821.663 3026.65 823.631 3029.34 Q825.621 3032 829.07 3032 Q832.473 3032 834.464 3029.31 Q836.455 3026.63 836.455 3022 Q836.455 3017.39 834.464 3014.71 Q832.473 3012 829.07 3012 M829.07 3008.39 Q834.626 3008.39 837.797 3012 Q840.968 3015.61 840.968 3022 Q840.968 3028.37 837.797 3032 Q834.626 3035.61 829.07 3035.61 Q823.492 3035.61 820.32 3032 Q817.172 3028.37 817.172 3022 Q817.172 3015.61 820.32 3012 Q823.492 3008.39 829.07 3008.39 Z" fill="#000000" fill-rule="nonzero" fill-opacity="1" /><path clip-path="url(#clip170)" d="M1653.01 2948.54 L1657.69 2948.54 L1657.69 2979.16 L1674.52 2979.16 L1674.52 2983.1 L1653.01 2983.1 L1653.01 2948.54 Z" fill="#000000" fill-rule="nonzero" fill-opacity="1" /><path clip-path="url(#clip170)" d="M1688.45 2960.16 Q1685.03 2960.16 1683.04 2962.85 Q1681.05 2965.51 1681.05 2970.16 Q1681.05 2974.81 1683.01 2977.5 Q1685 2980.16 1688.45 2980.16 Q1691.86 2980.16 1693.85 2977.47 Q1695.84 2974.79 1695.84 2970.16 Q1695.84 2965.55 1693.85 2962.87 Q1691.86 2960.16 1688.45 2960.16 M1688.45 2956.55 Q1694.01 2956.55 1697.18 2960.16 Q1700.35 2963.77 1700.35 2970.16 Q1700.35 2976.53 1697.18 2980.16 Q1694.01 2983.77 1688.45 2983.77 Q1682.87 2983.77 1679.7 2980.16 Q1676.55 2976.53 1676.55 2970.16 Q1676.55 2963.77 1679.7 2960.16 Q1682.87 2956.55 1688.45 2956.55 Z" fill="#000000" fill-rule="nonzero" fill-opacity="1" /><path clip-path="url(#clip170)" d="M1726.07 2958.17 L1726.07 2962.15 Q1724.26 2961.16 1722.43 2960.67 Q1720.63 2960.16 1718.78 2960.16 Q1714.63 2960.16 1712.34 2962.8 Q1710.05 2965.41 1710.05 2970.16 Q1710.05 2974.91 1712.34 2977.54 Q1714.63 2980.16 1718.78 2980.16 Q1720.63 2980.16 1722.43 2979.67 Q1724.26 2979.16 1726.07 2978.17 L1726.07 2982.1 Q1724.29 2982.94 1722.36 2983.35 Q1720.47 2983.77 1718.31 2983.77 Q1712.46 2983.77 1709.01 2980.09 Q1705.56 2976.41 1705.56 2970.16 Q1705.56 2963.82 1709.03 2960.18 Q1712.53 2956.55 1718.59 2956.55 Q1720.56 2956.55 1722.43 2956.97 Q1724.31 2957.36 1726.07 2958.17 Z" fill="#000000" fill-rule="nonzero" fill-opacity="1" /><path clip-path="url(#clip170)" d="M1745.26 2970.07 Q1740.1 2970.07 1738.11 2971.25 Q1736.11 2972.43 1736.11 2975.28 Q1736.11 2977.54 1737.6 2978.89 Q1739.1 2980.21 1741.67 2980.21 Q1745.21 2980.21 1747.34 2977.71 Q1749.49 2975.18 1749.49 2971.02 L1749.49 2970.07 L1745.26 2970.07 M1753.75 2968.31 L1753.75 2983.1 L1749.49 2983.1 L1749.49 2979.16 Q1748.04 2981.53 1745.86 2982.66 Q1743.68 2983.77 1740.54 2983.77 Q1736.55 2983.77 1734.19 2981.55 Q1731.86 2979.3 1731.86 2975.55 Q1731.86 2971.18 1734.77 2968.96 Q1737.71 2966.73 1743.52 2966.73 L1749.49 2966.73 L1749.49 2966.32 Q1749.49 2963.38 1747.55 2961.78 Q1745.63 2960.16 1742.13 2960.16 Q1739.91 2960.16 1737.8 2960.69 Q1735.7 2961.22 1733.75 2962.29 L1733.75 2958.35 Q1736.09 2957.45 1738.29 2957.01 Q1740.49 2956.55 1742.57 2956.55 Q1748.2 2956.55 1750.98 2959.47 Q1753.75 2962.38 1753.75 2968.31 Z" fill="#000000" fill-rule="nonzero" fill-opacity="1" /><path clip-path="url(#clip170)" d="M1762.53 2947.08 L1766.79 2947.08 L1766.79 2983.1 L1762.53 2983.1 L1762.53 2947.08 Z" fill="#000000" fill-rule="nonzero" fill-opacity="1" /><path clip-path="url(#clip170)" d="M1654.29 3001.51 L1654.29 3006.07 Q1651.62 3004.8 1649.26 3004.18 Q1646.9 3003.55 1644.7 3003.55 Q1640.88 3003.55 1638.8 3005.03 Q1636.74 3006.51 1636.74 3009.25 Q1636.74 3011.54 1638.11 3012.72 Q1639.49 3013.88 1643.34 3014.59 L1646.16 3015.17 Q1651.39 3016.17 1653.87 3018.69 Q1656.37 3021.19 1656.37 3025.4 Q1656.37 3030.43 1652.99 3033.02 Q1649.63 3035.61 1643.13 3035.61 Q1640.68 3035.61 1637.9 3035.06 Q1635.14 3034.5 1632.18 3033.41 L1632.18 3028.6 Q1635.03 3030.19 1637.76 3031 Q1640.49 3031.81 1643.13 3031.81 Q1647.13 3031.81 1649.31 3030.24 Q1651.49 3028.67 1651.49 3025.75 Q1651.49 3023.2 1649.91 3021.77 Q1648.36 3020.33 1644.8 3019.62 L1641.95 3019.06 Q1636.72 3018.02 1634.38 3015.8 Q1632.04 3013.57 1632.04 3009.62 Q1632.04 3005.03 1635.26 3002.39 Q1638.5 2999.75 1644.17 2999.75 Q1646.6 2999.75 1649.12 3000.19 Q1651.65 3000.63 1654.29 3001.51 Z" fill="#000000" fill-rule="nonzero" fill-opacity="1" /><path clip-path="url(#clip170)" d="M1685.65 3020.91 L1685.65 3023 L1666.07 3023 Q1666.35 3027.39 1668.71 3029.71 Q1671.09 3032 1675.33 3032 Q1677.78 3032 1680.07 3031.4 Q1682.39 3030.8 1684.66 3029.59 L1684.66 3033.62 Q1682.36 3034.59 1679.96 3035.1 Q1677.55 3035.61 1675.07 3035.61 Q1668.87 3035.61 1665.24 3032 Q1661.62 3028.39 1661.62 3022.23 Q1661.62 3015.87 1665.05 3012.14 Q1668.5 3008.39 1674.33 3008.39 Q1679.56 3008.39 1682.6 3011.77 Q1685.65 3015.13 1685.65 3020.91 M1681.39 3019.66 Q1681.35 3016.17 1679.43 3014.08 Q1677.53 3012 1674.38 3012 Q1670.81 3012 1668.66 3014.01 Q1666.53 3016.03 1666.21 3019.69 L1681.39 3019.66 Z" fill="#000000" fill-rule="nonzero" fill-opacity="1" /><path clip-path="url(#clip170)" d="M1704.42 3021.91 Q1699.26 3021.91 1697.27 3023.09 Q1695.28 3024.27 1695.28 3027.12 Q1695.28 3029.38 1696.76 3030.73 Q1698.27 3032.05 1700.84 3032.05 Q1704.38 3032.05 1706.51 3029.55 Q1708.66 3027.02 1708.66 3022.86 L1708.66 3021.91 L1704.42 3021.91 M1712.92 3020.15 L1712.92 3034.94 L1708.66 3034.94 L1708.66 3031 Q1707.2 3033.37 1705.03 3034.5 Q1702.85 3035.61 1699.7 3035.61 Q1695.72 3035.61 1693.36 3033.39 Q1691.02 3031.14 1691.02 3027.39 Q1691.02 3023.02 1693.94 3020.8 Q1696.88 3018.57 1702.69 3018.57 L1708.66 3018.57 L1708.66 3018.16 Q1708.66 3015.22 1706.72 3013.62 Q1704.8 3012 1701.3 3012 Q1699.08 3012 1696.97 3012.53 Q1694.86 3013.06 1692.92 3014.13 L1692.92 3010.19 Q1695.26 3009.29 1697.46 3008.85 Q1699.66 3008.39 1701.74 3008.39 Q1707.36 3008.39 1710.14 3011.31 Q1712.92 3014.22 1712.92 3020.15 Z" fill="#000000" fill-rule="nonzero" fill-opacity="1" /><path clip-path="url(#clip170)" d="M1736.72 3013 Q1736 3012.58 1735.14 3012.39 Q1734.31 3012.19 1733.29 3012.19 Q1729.68 3012.19 1727.73 3014.55 Q1725.81 3016.88 1725.81 3021.28 L1725.81 3034.94 L1721.53 3034.94 L1721.53 3009.01 L1725.81 3009.01 L1725.81 3013.04 Q1727.16 3010.68 1729.31 3009.55 Q1731.46 3008.39 1734.54 3008.39 Q1734.98 3008.39 1735.51 3008.46 Q1736.05 3008.5 1736.69 3008.62 L1736.72 3013 Z" fill="#000000" fill-rule="nonzero" fill-opacity="1" /><path clip-path="url(#clip170)" d="M1758.8 3010.01 L1758.8 3013.99 Q1756.99 3013 1755.17 3012.51 Q1753.36 3012 1751.51 3012 Q1747.36 3012 1745.07 3014.64 Q1742.78 3017.25 1742.78 3022 Q1742.78 3026.75 1745.07 3029.38 Q1747.36 3032 1751.51 3032 Q1753.36 3032 1755.17 3031.51 Q1756.99 3031 1758.8 3030.01 L1758.8 3033.94 Q1757.02 3034.78 1755.1 3035.19 Q1753.2 3035.61 1751.04 3035.61 Q1745.19 3035.61 1741.74 3031.93 Q1738.29 3028.25 1738.29 3022 Q1738.29 3015.66 1741.76 3012.02 Q1745.26 3008.39 1751.32 3008.39 Q1753.29 3008.39 1755.17 3008.81 Q1757.04 3009.2 1758.8 3010.01 Z" fill="#000000" fill-rule="nonzero" fill-opacity="1" /><path clip-path="url(#clip170)" d="M1787.76 3019.29 L1787.76 3034.94 L1783.5 3034.94 L1783.5 3019.43 Q1783.5 3015.75 1782.06 3013.92 Q1780.63 3012.09 1777.76 3012.09 Q1774.31 3012.09 1772.32 3014.29 Q1770.33 3016.49 1770.33 3020.29 L1770.33 3034.94 L1766.04 3034.94 L1766.04 2998.92 L1770.33 2998.92 L1770.33 3013.04 Q1771.86 3010.7 1773.92 3009.55 Q1776 3008.39 1778.71 3008.39 Q1783.17 3008.39 1785.47 3011.17 Q1787.76 3013.92 1787.76 3019.29 Z" fill="#000000" fill-rule="nonzero" fill-opacity="1" /><path clip-path="url(#clip170)" d="M2588.36 2949.67 L2588.36 2954.23 Q2585.69 2952.96 2583.33 2952.34 Q2580.97 2951.71 2578.77 2951.71 Q2574.95 2951.71 2572.87 2953.19 Q2570.81 2954.67 2570.81 2957.41 Q2570.81 2959.7 2572.18 2960.88 Q2573.56 2962.04 2577.41 2962.75 L2580.23 2963.33 Q2585.46 2964.33 2587.94 2966.85 Q2590.44 2969.35 2590.44 2973.56 Q2590.44 2978.59 2587.06 2981.18 Q2583.7 2983.77 2577.2 2983.77 Q2574.74 2983.77 2571.97 2983.22 Q2569.21 2982.66 2566.25 2981.57 L2566.25 2976.76 Q2569.1 2978.35 2571.83 2979.16 Q2574.56 2979.97 2577.2 2979.97 Q2581.2 2979.97 2583.38 2978.4 Q2585.55 2976.83 2585.55 2973.91 Q2585.55 2971.36 2583.98 2969.93 Q2582.43 2968.49 2578.87 2967.78 L2576.02 2967.22 Q2570.79 2966.18 2568.45 2963.96 Q2566.11 2961.73 2566.11 2957.78 Q2566.11 2953.19 2569.33 2950.55 Q2572.57 2947.91 2578.24 2947.91 Q2580.67 2947.91 2583.19 2948.35 Q2585.72 2948.79 2588.36 2949.67 Z" fill="#000000" fill-rule="nonzero" fill-opacity="1" /><path clip-path="url(#clip170)" d="M2597.55 2957.17 L2601.8 2957.17 L2601.8 2983.1 L2597.55 2983.1 L2597.55 2957.17 M2597.55 2947.08 L2601.8 2947.08 L2601.8 2952.48 L2597.55 2952.48 L2597.55 2947.08 Z" fill="#000000" fill-rule="nonzero" fill-opacity="1" /><path clip-path="url(#clip170)" d="M2630.9 2962.15 Q2632.5 2959.28 2634.72 2957.91 Q2636.94 2956.55 2639.95 2956.55 Q2644 2956.55 2646.2 2959.4 Q2648.4 2962.22 2648.4 2967.45 L2648.4 2983.1 L2644.12 2983.1 L2644.12 2967.59 Q2644.12 2963.86 2642.8 2962.06 Q2641.48 2960.25 2638.77 2960.25 Q2635.46 2960.25 2633.54 2962.45 Q2631.62 2964.65 2631.62 2968.45 L2631.62 2983.1 L2627.34 2983.1 L2627.34 2967.59 Q2627.34 2963.84 2626.02 2962.06 Q2624.7 2960.25 2621.94 2960.25 Q2618.68 2960.25 2616.76 2962.47 Q2614.84 2964.67 2614.84 2968.45 L2614.84 2983.1 L2610.55 2983.1 L2610.55 2957.17 L2614.84 2957.17 L2614.84 2961.2 Q2616.3 2958.82 2618.33 2957.68 Q2620.37 2956.55 2623.17 2956.55 Q2625.99 2956.55 2627.96 2957.98 Q2629.95 2959.42 2630.9 2962.15 Z" fill="#000000" fill-rule="nonzero" fill-opacity="1" /><path clip-path="url(#clip170)" d="M2656.46 2972.87 L2656.46 2957.17 L2660.72 2957.17 L2660.72 2972.71 Q2660.72 2976.39 2662.15 2978.24 Q2663.59 2980.07 2666.46 2980.07 Q2669.91 2980.07 2671.9 2977.87 Q2673.91 2975.67 2673.91 2971.87 L2673.91 2957.17 L2678.17 2957.17 L2678.17 2983.1 L2673.91 2983.1 L2673.91 2979.12 Q2672.36 2981.48 2670.3 2982.64 Q2668.26 2983.77 2665.55 2983.77 Q2661.09 2983.77 2658.77 2980.99 Q2656.46 2978.22 2656.46 2972.87 M2667.17 2956.55 L2667.17 2956.55 Z" fill="#000000" fill-rule="nonzero" fill-opacity="1" /><path clip-path="url(#clip170)" d="M2686.94 2947.08 L2691.2 2947.08 L2691.2 2983.1 L2686.94 2983.1 L2686.94 2947.08 Z" fill="#000000" fill-rule="nonzero" fill-opacity="1" /><path clip-path="url(#clip170)" d="M2711.9 2970.07 Q2706.73 2970.07 2704.74 2971.25 Q2702.75 2972.43 2702.75 2975.28 Q2702.75 2977.54 2704.23 2978.89 Q2705.74 2980.21 2708.31 2980.21 Q2711.85 2980.21 2713.98 2977.71 Q2716.13 2975.18 2716.13 2971.02 L2716.13 2970.07 L2711.9 2970.07 M2720.39 2968.31 L2720.39 2983.1 L2716.13 2983.1 L2716.13 2979.16 Q2714.67 2981.53 2712.5 2982.66 Q2710.32 2983.77 2707.17 2983.77 Q2703.19 2983.77 2700.83 2981.55 Q2698.49 2979.3 2698.49 2975.55 Q2698.49 2971.18 2701.41 2968.96 Q2704.35 2966.73 2710.16 2966.73 L2716.13 2966.73 L2716.13 2966.32 Q2716.13 2963.38 2714.19 2961.78 Q2712.27 2960.16 2708.77 2960.16 Q2706.55 2960.16 2704.44 2960.69 Q2702.34 2961.22 2700.39 2962.29 L2700.39 2958.35 Q2702.73 2957.45 2704.93 2957.01 Q2707.13 2956.55 2709.21 2956.55 Q2714.84 2956.55 2717.61 2959.47 Q2720.39 2962.38 2720.39 2968.31 Z" fill="#000000" fill-rule="nonzero" fill-opacity="1" /><path clip-path="url(#clip170)" d="M2733.38 2949.81 L2733.38 2957.17 L2742.15 2957.17 L2742.15 2960.48 L2733.38 2960.48 L2733.38 2974.56 Q2733.38 2977.73 2734.23 2978.63 Q2735.11 2979.54 2737.78 2979.54 L2742.15 2979.54 L2742.15 2983.1 L2737.78 2983.1 Q2732.85 2983.1 2730.97 2981.27 Q2729.1 2979.42 2729.1 2974.56 L2729.1 2960.48 L2725.97 2960.48 L2725.97 2957.17 L2729.1 2957.17 L2729.1 2949.81 L2733.38 2949.81 Z" fill="#000000" fill-rule="nonzero" fill-opacity="1" /><path clip-path="url(#clip170)" d="M2769.93 2969.07 L2769.93 2971.16 L2750.35 2971.16 Q2750.62 2975.55 2752.98 2977.87 Q2755.37 2980.16 2759.6 2980.16 Q2762.06 2980.16 2764.35 2979.56 Q2766.66 2978.96 2768.93 2977.75 L2768.93 2981.78 Q2766.64 2982.75 2764.23 2983.26 Q2761.83 2983.77 2759.35 2983.77 Q2753.15 2983.77 2749.51 2980.16 Q2745.9 2976.55 2745.9 2970.39 Q2745.9 2964.03 2749.33 2960.3 Q2752.78 2956.55 2758.61 2956.55 Q2763.84 2956.55 2766.87 2959.93 Q2769.93 2963.29 2769.93 2969.07 M2765.67 2967.82 Q2765.62 2964.33 2763.7 2962.24 Q2761.8 2960.16 2758.66 2960.16 Q2755.09 2960.16 2752.94 2962.17 Q2750.81 2964.19 2750.48 2967.85 L2765.67 2967.82 Z" fill="#000000" fill-rule="nonzero" fill-opacity="1" /><path clip-path="url(#clip170)" d="M2793.98 2961.11 L2793.98 2947.08 L2798.24 2947.08 L2798.24 2983.1 L2793.98 2983.1 L2793.98 2979.21 Q2792.64 2981.53 2790.58 2982.66 Q2788.54 2983.77 2785.67 2983.77 Q2780.97 2983.77 2778.01 2980.02 Q2775.07 2976.27 2775.07 2970.16 Q2775.07 2964.05 2778.01 2960.3 Q2780.97 2956.55 2785.67 2956.55 Q2788.54 2956.55 2790.58 2957.68 Q2792.64 2958.79 2793.98 2961.11 M2779.47 2970.16 Q2779.47 2974.86 2781.39 2977.54 Q2783.33 2980.21 2786.71 2980.21 Q2790.09 2980.21 2792.04 2977.54 Q2793.98 2974.86 2793.98 2970.16 Q2793.98 2965.46 2792.04 2962.8 Q2790.09 2960.11 2786.71 2960.11 Q2783.33 2960.11 2781.39 2962.8 Q2779.47 2965.46 2779.47 2970.16 Z" fill="#000000" fill-rule="nonzero" fill-opacity="1" /><path clip-path="url(#clip170)" d="M2581.74 3004.99 L2575.39 3022.19 L2588.1 3022.19 L2581.74 3004.99 M2579.1 3000.38 L2584.4 3000.38 L2597.57 3034.94 L2592.71 3034.94 L2589.56 3026.07 L2573.98 3026.07 L2570.83 3034.94 L2565.9 3034.94 L2579.1 3000.38 Z" fill="#000000" fill-rule="nonzero" fill-opacity="1" /><path clip-path="url(#clip170)" d="M2623.98 3019.29 L2623.98 3034.94 L2619.72 3034.94 L2619.72 3019.43 Q2619.72 3015.75 2618.29 3013.92 Q2616.85 3012.09 2613.98 3012.09 Q2610.53 3012.09 2608.54 3014.29 Q2606.55 3016.49 2606.55 3020.29 L2606.55 3034.94 L2602.27 3034.94 L2602.27 3009.01 L2606.55 3009.01 L2606.55 3013.04 Q2608.08 3010.7 2610.14 3009.55 Q2612.22 3008.39 2614.93 3008.39 Q2619.4 3008.39 2621.69 3011.17 Q2623.98 3013.92 2623.98 3019.29 Z" fill="#000000" fill-rule="nonzero" fill-opacity="1" /><path clip-path="url(#clip170)" d="M2654.03 3019.29 L2654.03 3034.94 L2649.77 3034.94 L2649.77 3019.43 Q2649.77 3015.75 2648.33 3013.92 Q2646.9 3012.09 2644.03 3012.09 Q2640.58 3012.09 2638.59 3014.29 Q2636.6 3016.49 2636.6 3020.29 L2636.6 3034.94 L2632.31 3034.94 L2632.31 3009.01 L2636.6 3009.01 L2636.6 3013.04 Q2638.12 3010.7 2640.18 3009.55 Q2642.27 3008.39 2644.98 3008.39 Q2649.44 3008.39 2651.74 3011.17 Q2654.03 3013.92 2654.03 3019.29 Z" fill="#000000" fill-rule="nonzero" fill-opacity="1" /><path clip-path="url(#clip170)" d="M2684.7 3020.91 L2684.7 3023 L2665.11 3023 Q2665.39 3027.39 2667.75 3029.71 Q2670.14 3032 2674.37 3032 Q2676.83 3032 2679.12 3031.4 Q2681.43 3030.8 2683.7 3029.59 L2683.7 3033.62 Q2681.41 3034.59 2679 3035.1 Q2676.6 3035.61 2674.12 3035.61 Q2667.92 3035.61 2664.28 3032 Q2660.67 3028.39 2660.67 3022.23 Q2660.67 3015.87 2664.1 3012.14 Q2667.55 3008.39 2673.38 3008.39 Q2678.61 3008.39 2681.64 3011.77 Q2684.7 3015.13 2684.7 3020.91 M2680.44 3019.66 Q2680.39 3016.17 2678.47 3014.08 Q2676.57 3012 2673.42 3012 Q2669.86 3012 2667.71 3014.01 Q2665.58 3016.03 2665.25 3019.69 L2680.44 3019.66 Z" fill="#000000" fill-rule="nonzero" fill-opacity="1" /><path clip-path="url(#clip170)" d="M2703.47 3021.91 Q2698.31 3021.91 2696.32 3023.09 Q2694.33 3024.27 2694.33 3027.12 Q2694.33 3029.38 2695.81 3030.73 Q2697.31 3032.05 2699.88 3032.05 Q2703.42 3032.05 2705.55 3029.55 Q2707.71 3027.02 2707.71 3022.86 L2707.71 3021.91 L2703.47 3021.91 M2711.97 3020.15 L2711.97 3034.94 L2707.71 3034.94 L2707.71 3031 Q2706.25 3033.37 2704.07 3034.5 Q2701.9 3035.61 2698.75 3035.61 Q2694.77 3035.61 2692.41 3033.39 Q2690.07 3031.14 2690.07 3027.39 Q2690.07 3023.02 2692.98 3020.8 Q2695.92 3018.57 2701.73 3018.57 L2707.71 3018.57 L2707.71 3018.16 Q2707.71 3015.22 2705.76 3013.62 Q2703.84 3012 2700.35 3012 Q2698.12 3012 2696.02 3012.53 Q2693.91 3013.06 2691.97 3014.13 L2691.97 3010.19 Q2694.3 3009.29 2696.5 3008.85 Q2698.7 3008.39 2700.79 3008.39 Q2706.41 3008.39 2709.19 3011.31 Q2711.97 3014.22 2711.97 3020.15 Z" fill="#000000" fill-rule="nonzero" fill-opacity="1" /><path clip-path="url(#clip170)" d="M2720.74 2998.92 L2725 2998.92 L2725 3034.94 L2720.74 3034.94 L2720.74 2998.92 Z" fill="#000000" fill-rule="nonzero" fill-opacity="1" /><path clip-path="url(#clip170)" d="M2733.91 3009.01 L2738.17 3009.01 L2738.17 3034.94 L2733.91 3034.94 L2733.91 3009.01 M2733.91 2998.92 L2738.17 2998.92 L2738.17 3004.32 L2733.91 3004.32 L2733.91 2998.92 Z" fill="#000000" fill-rule="nonzero" fill-opacity="1" /><path clip-path="url(#clip170)" d="M2768.63 3019.29 L2768.63 3034.94 L2764.37 3034.94 L2764.37 3019.43 Q2764.37 3015.75 2762.94 3013.92 Q2761.5 3012.09 2758.63 3012.09 Q2755.18 3012.09 2753.19 3014.29 Q2751.2 3016.49 2751.2 3020.29 L2751.2 3034.94 L2746.92 3034.94 L2746.92 3009.01 L2751.2 3009.01 L2751.2 3013.04 Q2752.73 3010.7 2754.79 3009.55 Q2756.87 3008.39 2759.58 3008.39 Q2764.05 3008.39 2766.34 3011.17 Q2768.63 3013.92 2768.63 3019.29 Z" fill="#000000" fill-rule="nonzero" fill-opacity="1" /><path clip-path="url(#clip170)" d="M2794.19 3021.68 Q2794.19 3017.05 2792.27 3014.5 Q2790.37 3011.95 2786.92 3011.95 Q2783.49 3011.95 2781.57 3014.5 Q2779.67 3017.05 2779.67 3021.68 Q2779.67 3026.28 2781.57 3028.83 Q2783.49 3031.38 2786.92 3031.38 Q2790.37 3031.38 2792.27 3028.83 Q2794.19 3026.28 2794.19 3021.68 M2798.45 3031.72 Q2798.45 3038.34 2795.51 3041.56 Q2792.57 3044.8 2786.5 3044.8 Q2784.26 3044.8 2782.27 3044.45 Q2780.28 3044.13 2778.4 3043.44 L2778.4 3039.29 Q2780.28 3040.31 2782.1 3040.8 Q2783.93 3041.28 2785.83 3041.28 Q2790.02 3041.28 2792.1 3039.08 Q2794.19 3036.91 2794.19 3032.49 L2794.19 3030.38 Q2792.87 3032.67 2790.81 3033.81 Q2788.75 3034.94 2785.88 3034.94 Q2781.11 3034.94 2778.19 3031.31 Q2775.28 3027.67 2775.28 3021.68 Q2775.28 3015.66 2778.19 3012.02 Q2781.11 3008.39 2785.88 3008.39 Q2788.75 3008.39 2790.81 3009.52 Q2792.87 3010.66 2794.19 3012.95 L2794.19 3009.01 L2798.45 3009.01 L2798.45 3031.72 Z" fill="#000000" fill-rule="nonzero" fill-opacity="1" /><path clip-path="url(#clip170)" d="M1474.61 3075.48 L1484.19 3075.48 L1496.31 3107.82 L1508.5 3075.48 L1518.08 3075.48 L1518.08 3123 L1511.81 3123 L1511.81 3081.28 L1499.56 3113.87 L1493.1 3113.87 L1480.85 3081.28 L1480.85 3123 L1474.61 3123 L1474.61 3075.48 Z" fill="#000000" fill-rule="nonzero" fill-opacity="1" /><path clip-path="url(#clip170)" d="M1561.09 3103.72 L1561.09 3106.58 L1534.16 3106.58 Q1534.54 3112.63 1537.79 3115.81 Q1541.06 3118.96 1546.89 3118.96 Q1550.26 3118.96 1553.41 3118.13 Q1556.6 3117.31 1559.72 3115.65 L1559.72 3121.19 Q1556.57 3122.53 1553.26 3123.23 Q1549.95 3123.93 1546.54 3123.93 Q1538.01 3123.93 1533.01 3118.96 Q1528.05 3114 1528.05 3105.53 Q1528.05 3096.78 1532.76 3091.65 Q1537.5 3086.5 1545.52 3086.5 Q1552.71 3086.5 1556.88 3091.14 Q1561.09 3095.76 1561.09 3103.72 M1555.23 3102 Q1555.16 3097.19 1552.52 3094.33 Q1549.91 3091.46 1545.58 3091.46 Q1540.68 3091.46 1537.72 3094.23 Q1534.79 3097 1534.35 3102.03 L1555.23 3102 Z" fill="#000000" fill-rule="nonzero" fill-opacity="1" /><path clip-path="url(#clip170)" d="M1576.49 3077.23 L1576.49 3087.36 L1588.55 3087.36 L1588.55 3091.91 L1576.49 3091.91 L1576.49 3111.26 Q1576.49 3115.62 1577.67 3116.86 Q1578.88 3118.1 1582.54 3118.1 L1588.55 3118.1 L1588.55 3123 L1582.54 3123 Q1575.76 3123 1573.18 3120.49 Q1570.6 3117.94 1570.6 3111.26 L1570.6 3091.91 L1566.3 3091.91 L1566.3 3087.36 L1570.6 3087.36 L1570.6 3077.23 L1576.49 3077.23 Z" fill="#000000" fill-rule="nonzero" fill-opacity="1" /><path clip-path="url(#clip170)" d="M1612.46 3105.08 Q1605.36 3105.08 1602.62 3106.71 Q1599.88 3108.33 1599.88 3112.25 Q1599.88 3115.36 1601.92 3117.21 Q1603.99 3119.03 1607.52 3119.03 Q1612.39 3119.03 1615.32 3115.59 Q1618.28 3112.12 1618.28 3106.39 L1618.28 3105.08 L1612.46 3105.08 M1624.14 3102.67 L1624.14 3123 L1618.28 3123 L1618.28 3117.59 Q1616.28 3120.84 1613.28 3122.4 Q1610.29 3123.93 1605.96 3123.93 Q1600.49 3123.93 1597.24 3120.87 Q1594.03 3117.78 1594.03 3112.63 Q1594.03 3106.61 1598.04 3103.56 Q1602.08 3100.5 1610.07 3100.5 L1618.28 3100.5 L1618.28 3099.93 Q1618.28 3095.89 1615.61 3093.69 Q1612.97 3091.46 1608.16 3091.46 Q1605.1 3091.46 1602.21 3092.19 Q1599.31 3092.93 1596.64 3094.39 L1596.64 3088.98 Q1599.85 3087.74 1602.88 3087.13 Q1605.9 3086.5 1608.76 3086.5 Q1616.5 3086.5 1620.32 3090.51 Q1624.14 3094.52 1624.14 3102.67 Z" fill="#000000" fill-rule="nonzero" fill-opacity="1" /><path clip-path="url(#clip170)" d="M1665.83 3101.49 L1665.83 3123 L1659.98 3123 L1659.98 3101.68 Q1659.98 3096.62 1658 3094.1 Q1656.03 3091.59 1652.08 3091.59 Q1647.34 3091.59 1644.6 3094.61 Q1641.87 3097.64 1641.87 3102.86 L1641.87 3123 L1635.98 3123 L1635.98 3073.48 L1641.87 3073.48 L1641.87 3092.89 Q1643.97 3089.68 1646.8 3088.09 Q1649.66 3086.5 1653.39 3086.5 Q1659.53 3086.5 1662.68 3090.32 Q1665.83 3094.1 1665.83 3101.49 Z" fill="#000000" fill-rule="nonzero" fill-opacity="1" /><path clip-path="url(#clip170)" d="M1708.01 3103.72 L1708.01 3106.58 L1681.08 3106.58 Q1681.46 3112.63 1684.71 3115.81 Q1687.99 3118.96 1693.81 3118.96 Q1697.18 3118.96 1700.33 3118.13 Q1703.52 3117.31 1706.64 3115.65 L1706.64 3121.19 Q1703.49 3122.53 1700.18 3123.23 Q1696.87 3123.93 1693.46 3123.93 Q1684.93 3123.93 1679.93 3118.96 Q1674.97 3114 1674.97 3105.53 Q1674.97 3096.78 1679.68 3091.65 Q1684.42 3086.5 1692.44 3086.5 Q1699.63 3086.5 1703.8 3091.14 Q1708.01 3095.76 1708.01 3103.72 M1702.15 3102 Q1702.09 3097.19 1699.44 3094.33 Q1696.83 3091.46 1692.51 3091.46 Q1687.6 3091.46 1684.64 3094.23 Q1681.72 3097 1681.27 3102.03 L1702.15 3102 Z" fill="#000000" fill-rule="nonzero" fill-opacity="1" /><path clip-path="url(#clip170)" d="M1717.01 3108.94 L1717.01 3087.36 L1722.87 3087.36 L1722.87 3108.71 Q1722.87 3113.77 1724.84 3116.32 Q1726.82 3118.83 1730.76 3118.83 Q1735.51 3118.83 1738.24 3115.81 Q1741.01 3112.79 1741.01 3107.57 L1741.01 3087.36 L1746.87 3087.36 L1746.87 3123 L1741.01 3123 L1741.01 3117.53 Q1738.88 3120.78 1736.05 3122.37 Q1733.25 3123.93 1729.52 3123.93 Q1723.38 3123.93 1720.2 3120.11 Q1717.01 3116.29 1717.01 3108.94 M1731.75 3086.5 L1731.75 3086.5 Z" fill="#000000" fill-rule="nonzero" fill-opacity="1" /><path clip-path="url(#clip170)" d="M1779.59 3092.83 Q1778.6 3092.26 1777.42 3092 Q1776.28 3091.72 1774.88 3091.72 Q1769.91 3091.72 1767.24 3094.96 Q1764.6 3098.18 1764.6 3104.23 L1764.6 3123 L1758.71 3123 L1758.71 3087.36 L1764.6 3087.36 L1764.6 3092.89 Q1766.44 3089.65 1769.4 3088.09 Q1772.36 3086.5 1776.6 3086.5 Q1777.2 3086.5 1777.93 3086.59 Q1778.66 3086.66 1779.56 3086.81 L1779.59 3092.83 Z" fill="#000000" fill-rule="nonzero" fill-opacity="1" /><path clip-path="url(#clip170)" d="M1793.08 3070.87 L1799.42 3070.87 L1789.04 3082.84 L1784.17 3082.84 L1793.08 3070.87 M1785.73 3087.36 L1791.59 3087.36 L1791.59 3123 L1785.73 3123 L1785.73 3087.36 M1788.66 3086.5 L1788.66 3086.5 Z" fill="#000000" fill-rule="nonzero" fill-opacity="1" /><path clip-path="url(#clip170)" d="M1826.57 3088.41 L1826.57 3093.94 Q1824.08 3092.67 1821.41 3092.03 Q1818.74 3091.4 1815.87 3091.4 Q1811.51 3091.4 1809.32 3092.73 Q1807.15 3094.07 1807.15 3096.75 Q1807.15 3098.78 1808.71 3099.96 Q1810.27 3101.11 1814.98 3102.16 L1816.99 3102.6 Q1823.22 3103.94 1825.83 3106.39 Q1828.48 3108.81 1828.48 3113.17 Q1828.48 3118.13 1824.53 3121.03 Q1820.61 3123.93 1813.74 3123.93 Q1810.88 3123.93 1807.76 3123.35 Q1804.67 3122.81 1801.23 3121.7 L1801.23 3115.65 Q1804.48 3117.34 1807.63 3118.2 Q1810.78 3119.03 1813.87 3119.03 Q1818 3119.03 1820.23 3117.62 Q1822.46 3116.19 1822.46 3113.61 Q1822.46 3111.23 1820.84 3109.95 Q1819.25 3108.68 1813.8 3107.5 L1811.77 3107.03 Q1806.32 3105.88 1803.9 3103.52 Q1801.49 3101.14 1801.49 3097 Q1801.49 3091.97 1805.05 3089.23 Q1808.62 3086.5 1815.17 3086.5 Q1818.42 3086.5 1821.28 3086.97 Q1824.15 3087.45 1826.57 3088.41 Z" fill="#000000" fill-rule="nonzero" fill-opacity="1" /><path clip-path="url(#clip170)" d="M1843.6 3077.23 L1843.6 3087.36 L1855.66 3087.36 L1855.66 3091.91 L1843.6 3091.91 L1843.6 3111.26 Q1843.6 3115.62 1844.77 3116.86 Q1845.98 3118.1 1849.64 3118.1 L1855.66 3118.1 L1855.66 3123 L1849.64 3123 Q1842.86 3123 1840.28 3120.49 Q1837.71 3117.94 1837.71 3111.26 L1837.71 3091.91 L1833.41 3091.91 L1833.41 3087.36 L1837.71 3087.36 L1837.71 3077.23 L1843.6 3077.23 Z" fill="#000000" fill-rule="nonzero" fill-opacity="1" /><path clip-path="url(#clip170)" d="M1863.36 3087.36 L1869.22 3087.36 L1869.22 3123 L1863.36 3123 L1863.36 3087.36 M1863.36 3073.48 L1869.22 3073.48 L1869.22 3080.89 L1863.36 3080.89 L1863.36 3073.48 Z" fill="#000000" fill-rule="nonzero" fill-opacity="1" /><path clip-path="url(#clip170)" d="M1907.12 3088.72 L1907.12 3094.2 Q1904.64 3092.83 1902.13 3092.16 Q1899.65 3091.46 1897.1 3091.46 Q1891.4 3091.46 1888.25 3095.09 Q1885.1 3098.69 1885.1 3105.21 Q1885.1 3111.74 1888.25 3115.36 Q1891.4 3118.96 1897.1 3118.96 Q1899.65 3118.96 1902.13 3118.29 Q1904.64 3117.59 1907.12 3116.22 L1907.12 3121.64 Q1904.67 3122.78 1902.03 3123.35 Q1899.42 3123.93 1896.46 3123.93 Q1888.41 3123.93 1883.67 3118.87 Q1878.92 3113.81 1878.92 3105.21 Q1878.92 3096.49 1883.7 3091.49 Q1888.51 3086.5 1896.84 3086.5 Q1899.55 3086.5 1902.13 3087.07 Q1904.71 3087.61 1907.12 3088.72 Z" fill="#000000" fill-rule="nonzero" fill-opacity="1" /><path clip-path="url(#clip170)" d="M1933.51 3105.08 Q1926.41 3105.08 1923.68 3106.71 Q1920.94 3108.33 1920.94 3112.25 Q1920.94 3115.36 1922.98 3117.21 Q1925.04 3119.03 1928.58 3119.03 Q1933.45 3119.03 1936.38 3115.59 Q1939.34 3112.12 1939.34 3106.39 L1939.34 3105.08 L1933.51 3105.08 M1945.19 3102.67 L1945.19 3123 L1939.34 3123 L1939.34 3117.59 Q1937.33 3120.84 1934.34 3122.4 Q1931.35 3123.93 1927.02 3123.93 Q1921.54 3123.93 1918.3 3120.87 Q1915.08 3117.78 1915.08 3112.63 Q1915.08 3106.61 1919.09 3103.56 Q1923.13 3100.5 1931.12 3100.5 L1939.34 3100.5 L1939.34 3099.93 Q1939.34 3095.89 1936.66 3093.69 Q1934.02 3091.46 1929.21 3091.46 Q1926.16 3091.46 1923.26 3092.19 Q1920.37 3092.93 1917.69 3094.39 L1917.69 3088.98 Q1920.91 3087.74 1923.93 3087.13 Q1926.95 3086.5 1929.82 3086.5 Q1937.55 3086.5 1941.37 3090.51 Q1945.19 3094.52 1945.19 3102.67 Z" fill="#000000" fill-rule="nonzero" fill-opacity="1" /><polyline clip-path="url(#clip172)" style="stroke:#000000; stroke-linecap:round; stroke-linejoin:round; stroke-width:2; stroke-opacity:0.1; fill:none" points="267.043,2380.92 3152.76,2380.92 "/>
<polyline clip-path="url(#clip172)" style="stroke:#000000; stroke-linecap:round; stroke-linejoin:round; stroke-width:2; stroke-opacity:0.1; fill:none" points="267.043,1679.53 3152.76,1679.53 "/>
<polyline clip-path="url(#clip172)" style="stroke:#000000; stroke-linecap:round; stroke-linejoin:round; stroke-width:2; stroke-opacity:0.1; fill:none" points="267.043,978.142 3152.76,978.142 "/>
<polyline clip-path="url(#clip172)" style="stroke:#000000; stroke-linecap:round; stroke-linejoin:round; stroke-width:2; stroke-opacity:0.1; fill:none" points="267.043,276.753 3152.76,276.753 "/>
<polyline clip-path="url(#clip170)" style="stroke:#000000; stroke-linecap:round; stroke-linejoin:round; stroke-width:4; stroke-opacity:1; fill:none" points="267.043,2914.3 267.043,47.2441 "/>
<polyline clip-path="url(#clip170)" style="stroke:#000000; stroke-linecap:round; stroke-linejoin:round; stroke-width:4; stroke-opacity:1; fill:none" points="267.043,2380.92 285.94,2380.92 "/>
<polyline clip-path="url(#clip170)" style="stroke:#000000; stroke-linecap:round; stroke-linejoin:round; stroke-width:4; stroke-opacity:1; fill:none" points="267.043,1679.53 285.94,1679.53 "/>
<polyline clip-path="url(#clip170)" style="stroke:#000000; stroke-linecap:round; stroke-linejoin:round; stroke-width:4; stroke-opacity:1; fill:none" points="267.043,978.142 285.94,978.142 "/>
<polyline clip-path="url(#clip170)" style="stroke:#000000; stroke-linecap:round; stroke-linejoin:round; stroke-width:4; stroke-opacity:1; fill:none" points="267.043,276.753 285.94,276.753 "/>
<path clip-path="url(#clip170)" d="M137.585 2394.27 L145.224 2394.27 L145.224 2367.9 L136.914 2369.57 L136.914 2365.31 L145.178 2363.64 L149.853 2363.64 L149.853 2394.27 L157.492 2394.27 L157.492 2398.2 L137.585 2398.2 L137.585 2394.27 Z" fill="#000000" fill-rule="nonzero" fill-opacity="1" /><path clip-path="url(#clip170)" d="M176.937 2366.72 Q173.326 2366.72 171.497 2370.29 Q169.691 2373.83 169.691 2380.96 Q169.691 2388.06 171.497 2391.63 Q173.326 2395.17 176.937 2395.17 Q180.571 2395.17 182.376 2391.63 Q184.205 2388.06 184.205 2380.96 Q184.205 2373.83 182.376 2370.29 Q180.571 2366.72 176.937 2366.72 M176.937 2363.02 Q182.747 2363.02 185.802 2367.62 Q188.881 2372.21 188.881 2380.96 Q188.881 2389.68 185.802 2394.29 Q182.747 2398.87 176.937 2398.87 Q171.126 2398.87 168.048 2394.29 Q164.992 2389.68 164.992 2380.96 Q164.992 2372.21 168.048 2367.62 Q171.126 2363.02 176.937 2363.02 Z" fill="#000000" fill-rule="nonzero" fill-opacity="1" /><path clip-path="url(#clip170)" d="M207.098 2366.72 Q203.487 2366.72 201.659 2370.29 Q199.853 2373.83 199.853 2380.96 Q199.853 2388.06 201.659 2391.63 Q203.487 2395.17 207.098 2395.17 Q210.733 2395.17 212.538 2391.63 Q214.367 2388.06 214.367 2380.96 Q214.367 2373.83 212.538 2370.29 Q210.733 2366.72 207.098 2366.72 M207.098 2363.02 Q212.909 2363.02 215.964 2367.62 Q219.043 2372.21 219.043 2380.96 Q219.043 2389.68 215.964 2394.29 Q212.909 2398.87 207.098 2398.87 Q201.288 2398.87 198.21 2394.29 Q195.154 2389.68 195.154 2380.96 Q195.154 2372.21 198.21 2367.62 Q201.288 2363.02 207.098 2363.02 Z" fill="#000000" fill-rule="nonzero" fill-opacity="1" /><path clip-path="url(#clip170)" d="M140.803 1692.88 L157.122 1692.88 L157.122 1696.81 L135.178 1696.81 L135.178 1692.88 Q137.84 1690.12 142.423 1685.49 Q147.029 1680.84 148.21 1679.5 Q150.455 1676.97 151.335 1675.24 Q152.238 1673.48 152.238 1671.79 Q152.238 1669.03 150.293 1667.3 Q148.372 1665.56 145.27 1665.56 Q143.071 1665.56 140.617 1666.33 Q138.187 1667.09 135.409 1668.64 L135.409 1663.92 Q138.233 1662.78 140.687 1662.21 Q143.14 1661.63 145.178 1661.63 Q150.548 1661.63 153.742 1664.31 Q156.937 1667 156.937 1671.49 Q156.937 1673.62 156.127 1675.54 Q155.339 1677.44 153.233 1680.03 Q152.654 1680.7 149.552 1683.92 Q146.451 1687.11 140.803 1692.88 Z" fill="#000000" fill-rule="nonzero" fill-opacity="1" /><path clip-path="url(#clip170)" d="M176.937 1665.33 Q173.326 1665.33 171.497 1668.9 Q169.691 1672.44 169.691 1679.57 Q169.691 1686.67 171.497 1690.24 Q173.326 1693.78 176.937 1693.78 Q180.571 1693.78 182.376 1690.24 Q184.205 1686.67 184.205 1679.57 Q184.205 1672.44 182.376 1668.9 Q180.571 1665.33 176.937 1665.33 M176.937 1661.63 Q182.747 1661.63 185.802 1666.23 Q188.881 1670.82 188.881 1679.57 Q188.881 1688.29 185.802 1692.9 Q182.747 1697.48 176.937 1697.48 Q171.126 1697.48 168.048 1692.9 Q164.992 1688.29 164.992 1679.57 Q164.992 1670.82 168.048 1666.23 Q171.126 1661.63 176.937 1661.63 Z" fill="#000000" fill-rule="nonzero" fill-opacity="1" /><path clip-path="url(#clip170)" d="M207.098 1665.33 Q203.487 1665.33 201.659 1668.9 Q199.853 1672.44 199.853 1679.57 Q199.853 1686.67 201.659 1690.24 Q203.487 1693.78 207.098 1693.78 Q210.733 1693.78 212.538 1690.24 Q214.367 1686.67 214.367 1679.57 Q214.367 1672.44 212.538 1668.9 Q210.733 1665.33 207.098 1665.33 M207.098 1661.63 Q212.909 1661.63 215.964 1666.23 Q219.043 1670.82 219.043 1679.57 Q219.043 1688.29 215.964 1692.9 Q212.909 1697.48 207.098 1697.48 Q201.288 1697.48 198.21 1692.9 Q195.154 1688.29 195.154 1679.57 Q195.154 1670.82 198.21 1666.23 Q201.288 1661.63 207.098 1661.63 Z" fill="#000000" fill-rule="nonzero" fill-opacity="1" /><path clip-path="url(#clip170)" d="M150.941 976.788 Q154.298 977.506 156.173 979.774 Q158.071 982.043 158.071 985.376 Q158.071 990.492 154.552 993.293 Q151.034 996.094 144.553 996.094 Q142.377 996.094 140.062 995.654 Q137.77 995.237 135.316 994.381 L135.316 989.867 Q137.261 991.001 139.576 991.58 Q141.89 992.159 144.414 992.159 Q148.812 992.159 151.103 990.422 Q153.418 988.686 153.418 985.376 Q153.418 982.321 151.265 980.608 Q149.136 978.872 145.316 978.872 L141.289 978.872 L141.289 975.029 L145.502 975.029 Q148.951 975.029 150.779 973.663 Q152.608 972.274 152.608 969.682 Q152.608 967.02 150.71 965.608 Q148.835 964.173 145.316 964.173 Q143.395 964.173 141.196 964.589 Q138.997 965.006 136.358 965.886 L136.358 961.719 Q139.02 960.978 141.335 960.608 Q143.673 960.237 145.733 960.237 Q151.057 960.237 154.159 962.668 Q157.261 965.075 157.261 969.196 Q157.261 972.066 155.617 974.057 Q153.974 976.024 150.941 976.788 Z" fill="#000000" fill-rule="nonzero" fill-opacity="1" /><path clip-path="url(#clip170)" d="M176.937 963.941 Q173.326 963.941 171.497 967.506 Q169.691 971.048 169.691 978.177 Q169.691 985.284 171.497 988.848 Q173.326 992.39 176.937 992.39 Q180.571 992.39 182.376 988.848 Q184.205 985.284 184.205 978.177 Q184.205 971.048 182.376 967.506 Q180.571 963.941 176.937 963.941 M176.937 960.237 Q182.747 960.237 185.802 964.844 Q188.881 969.427 188.881 978.177 Q188.881 986.904 185.802 991.51 Q182.747 996.094 176.937 996.094 Q171.126 996.094 168.048 991.51 Q164.992 986.904 164.992 978.177 Q164.992 969.427 168.048 964.844 Q171.126 960.237 176.937 960.237 Z" fill="#000000" fill-rule="nonzero" fill-opacity="1" /><path clip-path="url(#clip170)" d="M207.098 963.941 Q203.487 963.941 201.659 967.506 Q199.853 971.048 199.853 978.177 Q199.853 985.284 201.659 988.848 Q203.487 992.39 207.098 992.39 Q210.733 992.39 212.538 988.848 Q214.367 985.284 214.367 978.177 Q214.367 971.048 212.538 967.506 Q210.733 963.941 207.098 963.941 M207.098 960.237 Q212.909 960.237 215.964 964.844 Q219.043 969.427 219.043 978.177 Q219.043 986.904 215.964 991.51 Q212.909 996.094 207.098 996.094 Q201.288 996.094 198.21 991.51 Q195.154 986.904 195.154 978.177 Q195.154 969.427 198.21 964.844 Q201.288 960.237 207.098 960.237 Z" fill="#000000" fill-rule="nonzero" fill-opacity="1" /><path clip-path="url(#clip170)" d="M149.622 263.547 L137.816 281.996 L149.622 281.996 L149.622 263.547 M148.395 259.473 L154.275 259.473 L154.275 281.996 L159.205 281.996 L159.205 285.885 L154.275 285.885 L154.275 294.033 L149.622 294.033 L149.622 285.885 L134.02 285.885 L134.02 281.371 L148.395 259.473 Z" fill="#000000" fill-rule="nonzero" fill-opacity="1" /><path clip-path="url(#clip170)" d="M176.937 262.551 Q173.326 262.551 171.497 266.116 Q169.691 269.658 169.691 276.787 Q169.691 283.894 171.497 287.459 Q173.326 291 176.937 291 Q180.571 291 182.376 287.459 Q184.205 283.894 184.205 276.787 Q184.205 269.658 182.376 266.116 Q180.571 262.551 176.937 262.551 M176.937 258.848 Q182.747 258.848 185.802 263.454 Q188.881 268.038 188.881 276.787 Q188.881 285.514 185.802 290.121 Q182.747 294.704 176.937 294.704 Q171.126 294.704 168.048 290.121 Q164.992 285.514 164.992 276.787 Q164.992 268.038 168.048 263.454 Q171.126 258.848 176.937 258.848 Z" fill="#000000" fill-rule="nonzero" fill-opacity="1" /><path clip-path="url(#clip170)" d="M207.098 262.551 Q203.487 262.551 201.659 266.116 Q199.853 269.658 199.853 276.787 Q199.853 283.894 201.659 287.459 Q203.487 291 207.098 291 Q210.733 291 212.538 287.459 Q214.367 283.894 214.367 276.787 Q214.367 269.658 212.538 266.116 Q210.733 262.551 207.098 262.551 M207.098 258.848 Q212.909 258.848 215.964 263.454 Q219.043 268.038 219.043 276.787 Q219.043 285.514 215.964 290.121 Q212.909 294.704 207.098 294.704 Q201.288 294.704 198.21 290.121 Q195.154 285.514 195.154 276.787 Q195.154 268.038 198.21 263.454 Q201.288 258.848 207.098 258.848 Z" fill="#000000" fill-rule="nonzero" fill-opacity="1" /><path clip-path="url(#clip170)" d="M24.2442 1585.89 L24.2442 1545.69 L29.655 1545.69 L29.655 1562.56 L71.7642 1562.56 L71.7642 1569.02 L29.655 1569.02 L29.655 1585.89 L24.2442 1585.89 Z" fill="#000000" fill-rule="nonzero" fill-opacity="1" /><path clip-path="url(#clip170)" d="M52.4761 1520.32 L55.3406 1520.32 L55.3406 1547.25 Q61.3881 1546.86 64.5709 1543.62 Q67.7219 1540.34 67.7219 1534.51 Q67.7219 1531.14 66.8944 1527.99 Q66.0669 1524.81 64.4118 1521.69 L69.9499 1521.69 Q71.2867 1524.84 71.987 1528.15 Q72.6872 1531.46 72.6872 1534.86 Q72.6872 1543.39 67.7219 1548.39 Q62.7567 1553.36 54.2903 1553.36 Q45.5374 1553.36 40.4131 1548.65 Q35.2568 1543.9 35.2568 1535.88 Q35.2568 1528.69 39.9038 1524.52 Q44.5189 1520.32 52.4761 1520.32 M50.7573 1526.18 Q45.9512 1526.24 43.0866 1528.88 Q40.2221 1531.49 40.2221 1535.82 Q40.2221 1540.72 42.9912 1543.68 Q45.7602 1546.61 50.7892 1547.05 L50.7573 1526.18 Z" fill="#000000" fill-rule="nonzero" fill-opacity="1" /><path clip-path="url(#clip170)" d="M42.9593 1482.95 Q39.0126 1480.76 37.1347 1477.7 Q35.2568 1474.64 35.2568 1470.51 Q35.2568 1464.94 39.1717 1461.91 Q43.0548 1458.89 50.2481 1458.89 L71.7642 1458.89 L71.7642 1464.78 L50.439 1464.78 Q45.3146 1464.78 42.832 1466.59 Q40.3494 1468.41 40.3494 1472.13 Q40.3494 1476.68 43.3731 1479.32 Q46.3968 1481.97 51.6167 1481.97 L71.7642 1481.97 L71.7642 1487.85 L50.439 1487.85 Q45.2828 1487.85 42.832 1489.67 Q40.3494 1491.48 40.3494 1495.27 Q40.3494 1499.76 43.4049 1502.4 Q46.4286 1505.04 51.6167 1505.04 L71.7642 1505.04 L71.7642 1510.93 L36.1162 1510.93 L36.1162 1505.04 L41.6544 1505.04 Q38.376 1503.04 36.8164 1500.24 Q35.2568 1497.43 35.2568 1493.58 Q35.2568 1489.7 37.2302 1486.99 Q39.2036 1484.26 42.9593 1482.95 Z" fill="#000000" fill-rule="nonzero" fill-opacity="1" /><path clip-path="url(#clip170)" d="M66.417 1441.54 L85.3231 1441.54 L85.3231 1447.43 L36.1162 1447.43 L36.1162 1441.54 L41.5271 1441.54 Q38.3442 1439.7 36.8164 1436.9 Q35.2568 1434.06 35.2568 1430.15 Q35.2568 1423.66 40.4131 1419.61 Q45.5693 1415.54 53.972 1415.54 Q62.3747 1415.54 67.531 1419.61 Q72.6872 1423.66 72.6872 1430.15 Q72.6872 1434.06 71.1594 1436.9 Q69.5998 1439.7 66.417 1441.54 M53.972 1421.62 Q47.5108 1421.62 43.8505 1424.29 Q40.1584 1426.93 40.1584 1431.58 Q40.1584 1436.23 43.8505 1438.9 Q47.5108 1441.54 53.972 1441.54 Q60.4332 1441.54 64.1253 1438.9 Q67.7856 1436.23 67.7856 1431.58 Q67.7856 1426.93 64.1253 1424.29 Q60.4332 1421.62 53.972 1421.62 Z" fill="#000000" fill-rule="nonzero" fill-opacity="1" /><path clip-path="url(#clip170)" d="M40.2221 1392.02 Q40.2221 1396.73 43.9142 1399.47 Q47.5745 1402.2 53.972 1402.2 Q60.3695 1402.2 64.0617 1399.5 Q67.7219 1396.76 67.7219 1392.02 Q67.7219 1387.34 64.0298 1384.6 Q60.3377 1381.86 53.972 1381.86 Q47.6381 1381.86 43.946 1384.6 Q40.2221 1387.34 40.2221 1392.02 M35.2568 1392.02 Q35.2568 1384.38 40.2221 1380.02 Q45.1873 1375.66 53.972 1375.66 Q62.7249 1375.66 67.7219 1380.02 Q72.6872 1384.38 72.6872 1392.02 Q72.6872 1399.69 67.7219 1404.05 Q62.7249 1408.38 53.972 1408.38 Q45.1873 1408.38 40.2221 1404.05 Q35.2568 1399.69 35.2568 1392.02 Z" fill="#000000" fill-rule="nonzero" fill-opacity="1" /><path clip-path="url(#clip172)" d="M737.624 2403.44 L543.169 2403.44 L932.079 2403.44 L737.624 2403.44 L737.624 2321.83 L737.624 2403.44  Z" fill="#009af9" fill-rule="evenodd" fill-opacity="1"/>
<polyline clip-path="url(#clip172)" style="stroke:#000000; stroke-linecap:round; stroke-linejoin:round; stroke-width:4; stroke-opacity:1; fill:none" points="737.624,2403.44 543.169,2403.44 932.079,2403.44 737.624,2403.44 737.624,2321.83 737.624,2403.44 "/>
<path clip-path="url(#clip172)" d="M1126.53 2321.83 L1126.53 2295.62 L348.714 2295.62 L348.714 2321.83 L1126.53 2321.83 L1126.53 2295.62 L1126.53 2321.83  Z" fill="#009af9" fill-rule="evenodd" fill-opacity="1"/>
<polyline clip-path="url(#clip172)" style="stroke:#000000; stroke-linecap:round; stroke-linejoin:round; stroke-width:4; stroke-opacity:1; fill:none" points="1126.53,2321.83 1126.53,2295.62 348.714,2295.62 348.714,2321.83 1126.53,2321.83 1126.53,2295.62 1126.53,2321.83 "/>
<path clip-path="url(#clip172)" d="M1126.53 2264.75 L348.714 2264.75 L348.714 2295.62 L1126.53 2295.62 L1126.53 2264.75 L737.624 2264.75 L1126.53 2264.75  Z" fill="#009af9" fill-rule="evenodd" fill-opacity="1"/>
<polyline clip-path="url(#clip172)" style="stroke:#000000; stroke-linecap:round; stroke-linejoin:round; stroke-width:4; stroke-opacity:1; fill:none" points="1126.53,2264.75 348.714,2264.75 348.714,2295.62 1126.53,2295.62 1126.53,2264.75 737.624,2264.75 1126.53,2264.75 "/>
<path clip-path="url(#clip172)" d="M737.624 2181.65 L543.169 2181.65 L932.079 2181.65 L737.624 2181.65 L737.624 2264.75 L737.624 2181.65  Z" fill="#009af9" fill-rule="evenodd" fill-opacity="1"/>
<polyline clip-path="url(#clip172)" style="stroke:#000000; stroke-linecap:round; stroke-linejoin:round; stroke-width:4; stroke-opacity:1; fill:none" points="737.624,2181.65 543.169,2181.65 932.079,2181.65 737.624,2181.65 737.624,2264.75 737.624,2181.65 "/>
<circle clip-path="url(#clip172)" cx="737.624" cy="2442.38" r="14.4" fill="#009af9" fill-rule="evenodd" fill-opacity="1" stroke="#000000" stroke-opacity="1" stroke-width="6.4"/>
<circle clip-path="url(#clip172)" cx="737.624" cy="2175.64" r="14.4" fill="#009af9" fill-rule="evenodd" fill-opacity="1" stroke="#000000" stroke-opacity="1" stroke-width="6.4"/>
<circle clip-path="url(#clip172)" cx="737.624" cy="2470.25" r="14.4" fill="#009af9" fill-rule="evenodd" fill-opacity="1" stroke="#000000" stroke-opacity="1" stroke-width="6.4"/>
<circle clip-path="url(#clip172)" cx="737.624" cy="2168.44" r="14.4" fill="#009af9" fill-rule="evenodd" fill-opacity="1" stroke="#000000" stroke-opacity="1" stroke-width="6.4"/>
<circle clip-path="url(#clip172)" cx="737.624" cy="2483.96" r="14.4" fill="#009af9" fill-rule="evenodd" fill-opacity="1" stroke="#000000" stroke-opacity="1" stroke-width="6.4"/>
<circle clip-path="url(#clip172)" cx="737.624" cy="2804.86" r="14.4" fill="#009af9" fill-rule="evenodd" fill-opacity="1" stroke="#000000" stroke-opacity="1" stroke-width="6.4"/>
<circle clip-path="url(#clip172)" cx="737.624" cy="2456.67" r="14.4" fill="#009af9" fill-rule="evenodd" fill-opacity="1" stroke="#000000" stroke-opacity="1" stroke-width="6.4"/>
<circle clip-path="url(#clip172)" cx="737.624" cy="2170.88" r="14.4" fill="#009af9" fill-rule="evenodd" fill-opacity="1" stroke="#000000" stroke-opacity="1" stroke-width="6.4"/>
<circle clip-path="url(#clip172)" cx="737.624" cy="2450.39" r="14.4" fill="#009af9" fill-rule="evenodd" fill-opacity="1" stroke="#000000" stroke-opacity="1" stroke-width="6.4"/>
<polyline clip-path="url(#clip172)" style="stroke:#009af9; stroke-linecap:round; stroke-linejoin:round; stroke-width:0; stroke-opacity:1; fill:none" points="737.624,2403.44 543.169,2403.44 932.079,2403.44 737.624,2403.44 737.624,2321.83 "/>
<polyline clip-path="url(#clip172)" style="stroke:#009af9; stroke-linecap:round; stroke-linejoin:round; stroke-width:0; stroke-opacity:1; fill:none" points="1126.53,2321.83 1126.53,2295.62 348.714,2295.62 348.714,2321.83 1126.53,2321.83 1126.53,2295.62 "/>
<polyline clip-path="url(#clip172)" style="stroke:#009af9; stroke-linecap:round; stroke-linejoin:round; stroke-width:0; stroke-opacity:1; fill:none" points="1126.53,2264.75 348.714,2264.75 348.714,2295.62 1126.53,2295.62 1126.53,2264.75 737.624,2264.75 "/>
<polyline clip-path="url(#clip172)" style="stroke:#009af9; stroke-linecap:round; stroke-linejoin:round; stroke-width:0; stroke-opacity:1; fill:none" points="737.624,2181.65 543.169,2181.65 932.079,2181.65 737.624,2181.65 737.624,2264.75 "/>
<path clip-path="url(#clip172)" d="M1709.9 2723.18 L1515.44 2723.18 L1904.35 2723.18 L1709.9 2723.18 L1709.9 2215.21 L1709.9 2723.18  Z" fill="#e26f46" fill-rule="evenodd" fill-opacity="1"/>
<polyline clip-path="url(#clip172)" style="stroke:#000000; stroke-linecap:round; stroke-linejoin:round; stroke-width:4; stroke-opacity:1; fill:none" points="1709.9,2723.18 1515.44,2723.18 1904.35,2723.18 1709.9,2723.18 1709.9,2215.21 1709.9,2723.18 "/>
<path clip-path="url(#clip172)" d="M2098.81 2215.21 L2098.81 1993.56 L1320.99 1993.56 L1320.99 2215.21 L2098.81 2215.21 L2098.81 1993.56 L2098.81 2215.21  Z" fill="#e26f46" fill-rule="evenodd" fill-opacity="1"/>
<polyline clip-path="url(#clip172)" style="stroke:#000000; stroke-linecap:round; stroke-linejoin:round; stroke-width:4; stroke-opacity:1; fill:none" points="2098.81,2215.21 2098.81,1993.56 1320.99,1993.56 1320.99,2215.21 2098.81,2215.21 2098.81,1993.56 2098.81,2215.21 "/>
<path clip-path="url(#clip172)" d="M2098.81 1700.14 L1320.99 1700.14 L1320.99 1993.56 L2098.81 1993.56 L2098.81 1700.14 L1709.9 1700.14 L2098.81 1700.14  Z" fill="#e26f46" fill-rule="evenodd" fill-opacity="1"/>
<polyline clip-path="url(#clip172)" style="stroke:#000000; stroke-linecap:round; stroke-linejoin:round; stroke-width:4; stroke-opacity:1; fill:none" points="2098.81,1700.14 1320.99,1700.14 1320.99,1993.56 2098.81,1993.56 2098.81,1700.14 1709.9,1700.14 2098.81,1700.14 "/>
<path clip-path="url(#clip172)" d="M1709.9 942.255 L1515.44 942.255 L1904.35 942.255 L1709.9 942.255 L1709.9 1700.14 L1709.9 942.255  Z" fill="#e26f46" fill-rule="evenodd" fill-opacity="1"/>
<polyline clip-path="url(#clip172)" style="stroke:#000000; stroke-linecap:round; stroke-linejoin:round; stroke-width:4; stroke-opacity:1; fill:none" points="1709.9,942.255 1515.44,942.255 1904.35,942.255 1709.9,942.255 1709.9,1700.14 1709.9,942.255 "/>
<circle clip-path="url(#clip172)" cx="1709.9" cy="828.309" r="14.4" fill="#e26f46" fill-rule="evenodd" fill-opacity="1" stroke="#000000" stroke-opacity="1" stroke-width="6.4"/>
<circle clip-path="url(#clip172)" cx="1709.9" cy="566.208" r="14.4" fill="#e26f46" fill-rule="evenodd" fill-opacity="1" stroke="#000000" stroke-opacity="1" stroke-width="6.4"/>
<circle clip-path="url(#clip172)" cx="1709.9" cy="481.618" r="14.4" fill="#e26f46" fill-rule="evenodd" fill-opacity="1" stroke="#000000" stroke-opacity="1" stroke-width="6.4"/>
<circle clip-path="url(#clip172)" cx="1709.9" cy="899.304" r="14.4" fill="#e26f46" fill-rule="evenodd" fill-opacity="1" stroke="#000000" stroke-opacity="1" stroke-width="6.4"/>
<circle clip-path="url(#clip172)" cx="1709.9" cy="870.636" r="14.4" fill="#e26f46" fill-rule="evenodd" fill-opacity="1" stroke="#000000" stroke-opacity="1" stroke-width="6.4"/>
<circle clip-path="url(#clip172)" cx="1709.9" cy="919.051" r="14.4" fill="#e26f46" fill-rule="evenodd" fill-opacity="1" stroke="#000000" stroke-opacity="1" stroke-width="6.4"/>
<circle clip-path="url(#clip172)" cx="1709.9" cy="891.355" r="14.4" fill="#e26f46" fill-rule="evenodd" fill-opacity="1" stroke="#000000" stroke-opacity="1" stroke-width="6.4"/>
<circle clip-path="url(#clip172)" cx="1709.9" cy="405.768" r="14.4" fill="#e26f46" fill-rule="evenodd" fill-opacity="1" stroke="#000000" stroke-opacity="1" stroke-width="6.4"/>
<circle clip-path="url(#clip172)" cx="1709.9" cy="919.085" r="14.4" fill="#e26f46" fill-rule="evenodd" fill-opacity="1" stroke="#000000" stroke-opacity="1" stroke-width="6.4"/>
<circle clip-path="url(#clip172)" cx="1709.9" cy="841.241" r="14.4" fill="#e26f46" fill-rule="evenodd" fill-opacity="1" stroke="#000000" stroke-opacity="1" stroke-width="6.4"/>
<circle clip-path="url(#clip172)" cx="1709.9" cy="703.594" r="14.4" fill="#e26f46" fill-rule="evenodd" fill-opacity="1" stroke="#000000" stroke-opacity="1" stroke-width="6.4"/>
<circle clip-path="url(#clip172)" cx="1709.9" cy="279.412" r="14.4" fill="#e26f46" fill-rule="evenodd" fill-opacity="1" stroke="#000000" stroke-opacity="1" stroke-width="6.4"/>
<circle clip-path="url(#clip172)" cx="1709.9" cy="884.923" r="14.4" fill="#e26f46" fill-rule="evenodd" fill-opacity="1" stroke="#000000" stroke-opacity="1" stroke-width="6.4"/>
<circle clip-path="url(#clip172)" cx="1709.9" cy="625.813" r="14.4" fill="#e26f46" fill-rule="evenodd" fill-opacity="1" stroke="#000000" stroke-opacity="1" stroke-width="6.4"/>
<circle clip-path="url(#clip172)" cx="1709.9" cy="874.946" r="14.4" fill="#e26f46" fill-rule="evenodd" fill-opacity="1" stroke="#000000" stroke-opacity="1" stroke-width="6.4"/>
<circle clip-path="url(#clip172)" cx="1709.9" cy="128.387" r="14.4" fill="#e26f46" fill-rule="evenodd" fill-opacity="1" stroke="#000000" stroke-opacity="1" stroke-width="6.4"/>
<circle clip-path="url(#clip172)" cx="1709.9" cy="869.834" r="14.4" fill="#e26f46" fill-rule="evenodd" fill-opacity="1" stroke="#000000" stroke-opacity="1" stroke-width="6.4"/>
<circle clip-path="url(#clip172)" cx="1709.9" cy="774.736" r="14.4" fill="#e26f46" fill-rule="evenodd" fill-opacity="1" stroke="#000000" stroke-opacity="1" stroke-width="6.4"/>
<circle clip-path="url(#clip172)" cx="1709.9" cy="809.636" r="14.4" fill="#e26f46" fill-rule="evenodd" fill-opacity="1" stroke="#000000" stroke-opacity="1" stroke-width="6.4"/>
<circle clip-path="url(#clip172)" cx="1709.9" cy="691.748" r="14.4" fill="#e26f46" fill-rule="evenodd" fill-opacity="1" stroke="#000000" stroke-opacity="1" stroke-width="6.4"/>
<circle clip-path="url(#clip172)" cx="1709.9" cy="480.365" r="14.4" fill="#e26f46" fill-rule="evenodd" fill-opacity="1" stroke="#000000" stroke-opacity="1" stroke-width="6.4"/>
<circle clip-path="url(#clip172)" cx="1709.9" cy="612.628" r="14.4" fill="#e26f46" fill-rule="evenodd" fill-opacity="1" stroke="#000000" stroke-opacity="1" stroke-width="6.4"/>
<circle clip-path="url(#clip172)" cx="1709.9" cy="557.521" r="14.4" fill="#e26f46" fill-rule="evenodd" fill-opacity="1" stroke="#000000" stroke-opacity="1" stroke-width="6.4"/>
<circle clip-path="url(#clip172)" cx="1709.9" cy="809.582" r="14.4" fill="#e26f46" fill-rule="evenodd" fill-opacity="1" stroke="#000000" stroke-opacity="1" stroke-width="6.4"/>
<circle clip-path="url(#clip172)" cx="1709.9" cy="576.804" r="14.4" fill="#e26f46" fill-rule="evenodd" fill-opacity="1" stroke="#000000" stroke-opacity="1" stroke-width="6.4"/>
<circle clip-path="url(#clip172)" cx="1709.9" cy="529.142" r="14.4" fill="#e26f46" fill-rule="evenodd" fill-opacity="1" stroke="#000000" stroke-opacity="1" stroke-width="6.4"/>
<polyline clip-path="url(#clip172)" style="stroke:#e26f46; stroke-linecap:round; stroke-linejoin:round; stroke-width:0; stroke-opacity:1; fill:none" points="1709.9,2723.18 1515.44,2723.18 1904.35,2723.18 1709.9,2723.18 1709.9,2215.21 "/>
<polyline clip-path="url(#clip172)" style="stroke:#e26f46; stroke-linecap:round; stroke-linejoin:round; stroke-width:0; stroke-opacity:1; fill:none" points="2098.81,2215.21 2098.81,1993.56 1320.99,1993.56 1320.99,2215.21 2098.81,2215.21 2098.81,1993.56 "/>
<polyline clip-path="url(#clip172)" style="stroke:#e26f46; stroke-linecap:round; stroke-linejoin:round; stroke-width:0; stroke-opacity:1; fill:none" points="2098.81,1700.14 1320.99,1700.14 1320.99,1993.56 2098.81,1993.56 2098.81,1700.14 1709.9,1700.14 "/>
<polyline clip-path="url(#clip172)" style="stroke:#e26f46; stroke-linecap:round; stroke-linejoin:round; stroke-width:0; stroke-opacity:1; fill:none" points="1709.9,942.255 1515.44,942.255 1904.35,942.255 1709.9,942.255 1709.9,1700.14 "/>
<path clip-path="url(#clip172)" d="M2682.17 2725.28 L2487.72 2725.28 L2876.63 2725.28 L2682.17 2725.28 L2682.17 2431.41 L2682.17 2725.28  Z" fill="#3da44d" fill-rule="evenodd" fill-opacity="1"/>
<polyline clip-path="url(#clip172)" style="stroke:#000000; stroke-linecap:round; stroke-linejoin:round; stroke-width:4; stroke-opacity:1; fill:none" points="2682.17,2725.28 2487.72,2725.28 2876.63,2725.28 2682.17,2725.28 2682.17,2431.41 2682.17,2725.28 "/>
<path clip-path="url(#clip172)" d="M3071.08 2431.41 L3071.08 2349.31 L2293.26 2349.31 L2293.26 2431.41 L3071.08 2431.41 L3071.08 2349.31 L3071.08 2431.41  Z" fill="#3da44d" fill-rule="evenodd" fill-opacity="1"/>
<polyline clip-path="url(#clip172)" style="stroke:#000000; stroke-linecap:round; stroke-linejoin:round; stroke-width:4; stroke-opacity:1; fill:none" points="3071.08,2431.41 3071.08,2349.31 2293.26,2349.31 2293.26,2431.41 3071.08,2431.41 3071.08,2349.31 3071.08,2431.41 "/>
<path clip-path="url(#clip172)" d="M3071.08 2215.77 L2293.26 2215.77 L2293.26 2349.31 L3071.08 2349.31 L3071.08 2215.77 L2682.17 2215.77 L3071.08 2215.77  Z" fill="#3da44d" fill-rule="evenodd" fill-opacity="1"/>
<polyline clip-path="url(#clip172)" style="stroke:#000000; stroke-linecap:round; stroke-linejoin:round; stroke-width:4; stroke-opacity:1; fill:none" points="3071.08,2215.77 2293.26,2215.77 2293.26,2349.31 3071.08,2349.31 3071.08,2215.77 2682.17,2215.77 3071.08,2215.77 "/>
<path clip-path="url(#clip172)" d="M2682.17 1896.24 L2487.72 1896.24 L2876.63 1896.24 L2682.17 1896.24 L2682.17 2215.77 L2682.17 1896.24  Z" fill="#3da44d" fill-rule="evenodd" fill-opacity="1"/>
<polyline clip-path="url(#clip172)" style="stroke:#000000; stroke-linecap:round; stroke-linejoin:round; stroke-width:4; stroke-opacity:1; fill:none" points="2682.17,1896.24 2487.72,1896.24 2876.63,1896.24 2682.17,1896.24 2682.17,2215.77 2682.17,1896.24 "/>
<circle clip-path="url(#clip172)" cx="2682.17" cy="1799.86" r="14.4" fill="#3da44d" fill-rule="evenodd" fill-opacity="1" stroke="#000000" stroke-opacity="1" stroke-width="6.4"/>
<circle clip-path="url(#clip172)" cx="2682.17" cy="1606.14" r="14.4" fill="#3da44d" fill-rule="evenodd" fill-opacity="1" stroke="#000000" stroke-opacity="1" stroke-width="6.4"/>
<circle clip-path="url(#clip172)" cx="2682.17" cy="1843.74" r="14.4" fill="#3da44d" fill-rule="evenodd" fill-opacity="1" stroke="#000000" stroke-opacity="1" stroke-width="6.4"/>
<circle clip-path="url(#clip172)" cx="2682.17" cy="1872.42" r="14.4" fill="#3da44d" fill-rule="evenodd" fill-opacity="1" stroke="#000000" stroke-opacity="1" stroke-width="6.4"/>
<circle clip-path="url(#clip172)" cx="2682.17" cy="1814.64" r="14.4" fill="#3da44d" fill-rule="evenodd" fill-opacity="1" stroke="#000000" stroke-opacity="1" stroke-width="6.4"/>
<circle clip-path="url(#clip172)" cx="2682.17" cy="1609.21" r="14.4" fill="#3da44d" fill-rule="evenodd" fill-opacity="1" stroke="#000000" stroke-opacity="1" stroke-width="6.4"/>
<circle clip-path="url(#clip172)" cx="2682.17" cy="1820.91" r="14.4" fill="#3da44d" fill-rule="evenodd" fill-opacity="1" stroke="#000000" stroke-opacity="1" stroke-width="6.4"/>
<circle clip-path="url(#clip172)" cx="2682.17" cy="1624.14" r="14.4" fill="#3da44d" fill-rule="evenodd" fill-opacity="1" stroke="#000000" stroke-opacity="1" stroke-width="6.4"/>
<circle clip-path="url(#clip172)" cx="2682.17" cy="1865.15" r="14.4" fill="#3da44d" fill-rule="evenodd" fill-opacity="1" stroke="#000000" stroke-opacity="1" stroke-width="6.4"/>
<circle clip-path="url(#clip172)" cx="2682.17" cy="1890.74" r="14.4" fill="#3da44d" fill-rule="evenodd" fill-opacity="1" stroke="#000000" stroke-opacity="1" stroke-width="6.4"/>
<circle clip-path="url(#clip172)" cx="2682.17" cy="1664.86" r="14.4" fill="#3da44d" fill-rule="evenodd" fill-opacity="1" stroke="#000000" stroke-opacity="1" stroke-width="6.4"/>
<circle clip-path="url(#clip172)" cx="2682.17" cy="1637.29" r="14.4" fill="#3da44d" fill-rule="evenodd" fill-opacity="1" stroke="#000000" stroke-opacity="1" stroke-width="6.4"/>
<circle clip-path="url(#clip172)" cx="2682.17" cy="1561.01" r="14.4" fill="#3da44d" fill-rule="evenodd" fill-opacity="1" stroke="#000000" stroke-opacity="1" stroke-width="6.4"/>
<circle clip-path="url(#clip172)" cx="2682.17" cy="1594.46" r="14.4" fill="#3da44d" fill-rule="evenodd" fill-opacity="1" stroke="#000000" stroke-opacity="1" stroke-width="6.4"/>
<circle clip-path="url(#clip172)" cx="2682.17" cy="2774.61" r="14.4" fill="#3da44d" fill-rule="evenodd" fill-opacity="1" stroke="#000000" stroke-opacity="1" stroke-width="6.4"/>
<circle clip-path="url(#clip172)" cx="2682.17" cy="2757.79" r="14.4" fill="#3da44d" fill-rule="evenodd" fill-opacity="1" stroke="#000000" stroke-opacity="1" stroke-width="6.4"/>
<circle clip-path="url(#clip172)" cx="2682.17" cy="2808.66" r="14.4" fill="#3da44d" fill-rule="evenodd" fill-opacity="1" stroke="#000000" stroke-opacity="1" stroke-width="6.4"/>
<circle clip-path="url(#clip172)" cx="2682.17" cy="2824.4" r="14.4" fill="#3da44d" fill-rule="evenodd" fill-opacity="1" stroke="#000000" stroke-opacity="1" stroke-width="6.4"/>
<circle clip-path="url(#clip172)" cx="2682.17" cy="1838.82" r="14.4" fill="#3da44d" fill-rule="evenodd" fill-opacity="1" stroke="#000000" stroke-opacity="1" stroke-width="6.4"/>
<circle clip-path="url(#clip172)" cx="2682.17" cy="1713.55" r="14.4" fill="#3da44d" fill-rule="evenodd" fill-opacity="1" stroke="#000000" stroke-opacity="1" stroke-width="6.4"/>
<circle clip-path="url(#clip172)" cx="2682.17" cy="1766.21" r="14.4" fill="#3da44d" fill-rule="evenodd" fill-opacity="1" stroke="#000000" stroke-opacity="1" stroke-width="6.4"/>
<circle clip-path="url(#clip172)" cx="2682.17" cy="1572.21" r="14.4" fill="#3da44d" fill-rule="evenodd" fill-opacity="1" stroke="#000000" stroke-opacity="1" stroke-width="6.4"/>
<circle clip-path="url(#clip172)" cx="2682.17" cy="1731.08" r="14.4" fill="#3da44d" fill-rule="evenodd" fill-opacity="1" stroke="#000000" stroke-opacity="1" stroke-width="6.4"/>
<circle clip-path="url(#clip172)" cx="2682.17" cy="1475.38" r="14.4" fill="#3da44d" fill-rule="evenodd" fill-opacity="1" stroke="#000000" stroke-opacity="1" stroke-width="6.4"/>
<circle clip-path="url(#clip172)" cx="2682.17" cy="1614.12" r="14.4" fill="#3da44d" fill-rule="evenodd" fill-opacity="1" stroke="#000000" stroke-opacity="1" stroke-width="6.4"/>
<circle clip-path="url(#clip172)" cx="2682.17" cy="2833.16" r="14.4" fill="#3da44d" fill-rule="evenodd" fill-opacity="1" stroke="#000000" stroke-opacity="1" stroke-width="6.4"/>
<circle clip-path="url(#clip172)" cx="2682.17" cy="1747.08" r="14.4" fill="#3da44d" fill-rule="evenodd" fill-opacity="1" stroke="#000000" stroke-opacity="1" stroke-width="6.4"/>
<circle clip-path="url(#clip172)" cx="2682.17" cy="1855.82" r="14.4" fill="#3da44d" fill-rule="evenodd" fill-opacity="1" stroke="#000000" stroke-opacity="1" stroke-width="6.4"/>
<circle clip-path="url(#clip172)" cx="2682.17" cy="1871.33" r="14.4" fill="#3da44d" fill-rule="evenodd" fill-opacity="1" stroke="#000000" stroke-opacity="1" stroke-width="6.4"/>
<circle clip-path="url(#clip172)" cx="2682.17" cy="1854.38" r="14.4" fill="#3da44d" fill-rule="evenodd" fill-opacity="1" stroke="#000000" stroke-opacity="1" stroke-width="6.4"/>
<circle clip-path="url(#clip172)" cx="2682.17" cy="1123.29" r="14.4" fill="#3da44d" fill-rule="evenodd" fill-opacity="1" stroke="#000000" stroke-opacity="1" stroke-width="6.4"/>
<circle clip-path="url(#clip172)" cx="2682.17" cy="1729.23" r="14.4" fill="#3da44d" fill-rule="evenodd" fill-opacity="1" stroke="#000000" stroke-opacity="1" stroke-width="6.4"/>
<circle clip-path="url(#clip172)" cx="2682.17" cy="1877.28" r="14.4" fill="#3da44d" fill-rule="evenodd" fill-opacity="1" stroke="#000000" stroke-opacity="1" stroke-width="6.4"/>
<circle clip-path="url(#clip172)" cx="2682.17" cy="1354.21" r="14.4" fill="#3da44d" fill-rule="evenodd" fill-opacity="1" stroke="#000000" stroke-opacity="1" stroke-width="6.4"/>
<circle clip-path="url(#clip172)" cx="2682.17" cy="1643.87" r="14.4" fill="#3da44d" fill-rule="evenodd" fill-opacity="1" stroke="#000000" stroke-opacity="1" stroke-width="6.4"/>
<circle clip-path="url(#clip172)" cx="2682.17" cy="1851.89" r="14.4" fill="#3da44d" fill-rule="evenodd" fill-opacity="1" stroke="#000000" stroke-opacity="1" stroke-width="6.4"/>
<circle clip-path="url(#clip172)" cx="2682.17" cy="1552.18" r="14.4" fill="#3da44d" fill-rule="evenodd" fill-opacity="1" stroke="#000000" stroke-opacity="1" stroke-width="6.4"/>
<circle clip-path="url(#clip172)" cx="2682.17" cy="1731.57" r="14.4" fill="#3da44d" fill-rule="evenodd" fill-opacity="1" stroke="#000000" stroke-opacity="1" stroke-width="6.4"/>
<circle clip-path="url(#clip172)" cx="2682.17" cy="1842.08" r="14.4" fill="#3da44d" fill-rule="evenodd" fill-opacity="1" stroke="#000000" stroke-opacity="1" stroke-width="6.4"/>
<circle clip-path="url(#clip172)" cx="2682.17" cy="1734.15" r="14.4" fill="#3da44d" fill-rule="evenodd" fill-opacity="1" stroke="#000000" stroke-opacity="1" stroke-width="6.4"/>
<circle clip-path="url(#clip172)" cx="2682.17" cy="1580.35" r="14.4" fill="#3da44d" fill-rule="evenodd" fill-opacity="1" stroke="#000000" stroke-opacity="1" stroke-width="6.4"/>
<circle clip-path="url(#clip172)" cx="2682.17" cy="1815.1" r="14.4" fill="#3da44d" fill-rule="evenodd" fill-opacity="1" stroke="#000000" stroke-opacity="1" stroke-width="6.4"/>
<circle clip-path="url(#clip172)" cx="2682.17" cy="1864.67" r="14.4" fill="#3da44d" fill-rule="evenodd" fill-opacity="1" stroke="#000000" stroke-opacity="1" stroke-width="6.4"/>
<circle clip-path="url(#clip172)" cx="2682.17" cy="1785.9" r="14.4" fill="#3da44d" fill-rule="evenodd" fill-opacity="1" stroke="#000000" stroke-opacity="1" stroke-width="6.4"/>
<circle clip-path="url(#clip172)" cx="2682.17" cy="1750.59" r="14.4" fill="#3da44d" fill-rule="evenodd" fill-opacity="1" stroke="#000000" stroke-opacity="1" stroke-width="6.4"/>
<circle clip-path="url(#clip172)" cx="2682.17" cy="1614.08" r="14.4" fill="#3da44d" fill-rule="evenodd" fill-opacity="1" stroke="#000000" stroke-opacity="1" stroke-width="6.4"/>
<circle clip-path="url(#clip172)" cx="2682.17" cy="1475" r="14.4" fill="#3da44d" fill-rule="evenodd" fill-opacity="1" stroke="#000000" stroke-opacity="1" stroke-width="6.4"/>
<circle clip-path="url(#clip172)" cx="2682.17" cy="1835.27" r="14.4" fill="#3da44d" fill-rule="evenodd" fill-opacity="1" stroke="#000000" stroke-opacity="1" stroke-width="6.4"/>
<circle clip-path="url(#clip172)" cx="2682.17" cy="1757.73" r="14.4" fill="#3da44d" fill-rule="evenodd" fill-opacity="1" stroke="#000000" stroke-opacity="1" stroke-width="6.4"/>
<circle clip-path="url(#clip172)" cx="2682.17" cy="1807.12" r="14.4" fill="#3da44d" fill-rule="evenodd" fill-opacity="1" stroke="#000000" stroke-opacity="1" stroke-width="6.4"/>
<circle clip-path="url(#clip172)" cx="2682.17" cy="1731.21" r="14.4" fill="#3da44d" fill-rule="evenodd" fill-opacity="1" stroke="#000000" stroke-opacity="1" stroke-width="6.4"/>
<circle clip-path="url(#clip172)" cx="2682.17" cy="1816.43" r="14.4" fill="#3da44d" fill-rule="evenodd" fill-opacity="1" stroke="#000000" stroke-opacity="1" stroke-width="6.4"/>
<circle clip-path="url(#clip172)" cx="2682.17" cy="1888.42" r="14.4" fill="#3da44d" fill-rule="evenodd" fill-opacity="1" stroke="#000000" stroke-opacity="1" stroke-width="6.4"/>
<circle clip-path="url(#clip172)" cx="2682.17" cy="2764.01" r="14.4" fill="#3da44d" fill-rule="evenodd" fill-opacity="1" stroke="#000000" stroke-opacity="1" stroke-width="6.4"/>
<polyline clip-path="url(#clip172)" style="stroke:#3da44d; stroke-linecap:round; stroke-linejoin:round; stroke-width:0; stroke-opacity:1; fill:none" points="2682.17,2725.28 2487.72,2725.28 2876.63,2725.28 2682.17,2725.28 2682.17,2431.41 "/>
<polyline clip-path="url(#clip172)" style="stroke:#3da44d; stroke-linecap:round; stroke-linejoin:round; stroke-width:0; stroke-opacity:1; fill:none" points="3071.08,2431.41 3071.08,2349.31 2293.26,2349.31 2293.26,2431.41 3071.08,2431.41 3071.08,2349.31 "/>
<polyline clip-path="url(#clip172)" style="stroke:#3da44d; stroke-linecap:round; stroke-linejoin:round; stroke-width:0; stroke-opacity:1; fill:none" points="3071.08,2215.77 2293.26,2215.77 2293.26,2349.31 3071.08,2349.31 3071.08,2215.77 2682.17,2215.77 "/>
<polyline clip-path="url(#clip172)" style="stroke:#3da44d; stroke-linecap:round; stroke-linejoin:round; stroke-width:0; stroke-opacity:1; fill:none" points="2682.17,1896.24 2487.72,1896.24 2876.63,1896.24 2682.17,1896.24 2682.17,2215.77 "/>
</svg>
