<?xml version="1.0" encoding="utf-8"?>
<svg xmlns="http://www.w3.org/2000/svg" xmlns:xlink="http://www.w3.org/1999/xlink" width="800" height="600" viewBox="0 0 3200 2400">
<defs>
  <clipPath id="clip640">
    <rect x="0" y="0" width="3200" height="2400"/>
  </clipPath>
</defs>
<path clip-path="url(#clip640)" d="M0 2400 L3200 2400 L3200 0 L0 0  Z" fill="#ffffff" fill-rule="evenodd" fill-opacity="1"/>
<defs>
  <clipPath id="clip641">
    <rect x="640" y="0" width="2241" height="2241"/>
  </clipPath>
</defs>
<path clip-path="url(#clip640)" d="M323.806 2204.92 L3152.76 2204.92 L3152.76 47.2441 L323.806 47.2441  Z" fill="#ffffff" fill-rule="evenodd" fill-opacity="1"/>
<defs>
  <clipPath id="clip642">
    <rect x="323" y="47" width="2830" height="2159"/>
  </clipPath>
</defs>
<polyline clip-path="url(#clip642)" style="stroke:#000000; stroke-linecap:round; stroke-linejoin:round; stroke-width:2; stroke-opacity:0.1; fill:none" points="825.263,2204.92 825.263,47.2441 "/>
<polyline clip-path="url(#clip642)" style="stroke:#000000; stroke-linecap:round; stroke-linejoin:round; stroke-width:2; stroke-opacity:0.1; fill:none" points="1387.12,2204.92 1387.12,47.2441 "/>
<polyline clip-path="url(#clip642)" style="stroke:#000000; stroke-linecap:round; stroke-linejoin:round; stroke-width:2; stroke-opacity:0.1; fill:none" points="1948.98,2204.92 1948.98,47.2441 "/>
<polyline clip-path="url(#clip642)" style="stroke:#000000; stroke-linecap:round; stroke-linejoin:round; stroke-width:2; stroke-opacity:0.1; fill:none" points="2510.83,2204.92 2510.83,47.2441 "/>
<polyline clip-path="url(#clip642)" style="stroke:#000000; stroke-linecap:round; stroke-linejoin:round; stroke-width:2; stroke-opacity:0.1; fill:none" points="3072.69,2204.92 3072.69,47.2441 "/>
<polyline clip-path="url(#clip640)" style="stroke:#000000; stroke-linecap:round; stroke-linejoin:round; stroke-width:4; stroke-opacity:1; fill:none" points="323.806,2204.92 3152.76,2204.92 "/>
<polyline clip-path="url(#clip640)" style="stroke:#000000; stroke-linecap:round; stroke-linejoin:round; stroke-width:4; stroke-opacity:1; fill:none" points="825.263,2204.92 825.263,2186.02 "/>
<polyline clip-path="url(#clip640)" style="stroke:#000000; stroke-linecap:round; stroke-linejoin:round; stroke-width:4; stroke-opacity:1; fill:none" points="1387.12,2204.92 1387.12,2186.02 "/>
<polyline clip-path="url(#clip640)" style="stroke:#000000; stroke-linecap:round; stroke-linejoin:round; stroke-width:4; stroke-opacity:1; fill:none" points="1948.98,2204.92 1948.98,2186.02 "/>
<polyline clip-path="url(#clip640)" style="stroke:#000000; stroke-linecap:round; stroke-linejoin:round; stroke-width:4; stroke-opacity:1; fill:none" points="2510.83,2204.92 2510.83,2186.02 "/>
<polyline clip-path="url(#clip640)" style="stroke:#000000; stroke-linecap:round; stroke-linejoin:round; stroke-width:4; stroke-opacity:1; fill:none" points="3072.69,2204.92 3072.69,2186.02 "/>
<path clip-path="url(#clip640)" d="M804.036 2269.78 L820.356 2269.78 L820.356 2273.72 L798.411 2273.72 L798.411 2269.78 Q801.073 2267.03 805.657 2262.4 Q810.263 2257.75 811.444 2256.41 Q813.689 2253.88 814.569 2252.15 Q815.472 2250.39 815.472 2248.7 Q815.472 2245.94 813.527 2244.21 Q811.606 2242.47 808.504 2242.47 Q806.305 2242.47 803.851 2243.23 Q801.421 2244 798.643 2245.55 L798.643 2240.83 Q801.467 2239.69 803.921 2239.11 Q806.374 2238.53 808.411 2238.53 Q813.782 2238.53 816.976 2241.22 Q820.171 2243.91 820.171 2248.4 Q820.171 2250.53 819.36 2252.45 Q818.573 2254.34 816.467 2256.94 Q815.888 2257.61 812.786 2260.83 Q809.685 2264.02 804.036 2269.78 Z" fill="#000000" fill-rule="nonzero" fill-opacity="1" /><path clip-path="url(#clip640)" d="M840.171 2242.24 Q836.559 2242.24 834.731 2245.8 Q832.925 2249.34 832.925 2256.47 Q832.925 2263.58 834.731 2267.15 Q836.559 2270.69 840.171 2270.69 Q843.805 2270.69 845.61 2267.15 Q847.439 2263.58 847.439 2256.47 Q847.439 2249.34 845.61 2245.8 Q843.805 2242.24 840.171 2242.24 M840.171 2238.53 Q845.981 2238.53 849.036 2243.14 Q852.115 2247.72 852.115 2256.47 Q852.115 2265.2 849.036 2269.81 Q845.981 2274.39 840.171 2274.39 Q834.36 2274.39 831.282 2269.81 Q828.226 2265.2 828.226 2256.47 Q828.226 2247.72 831.282 2243.14 Q834.36 2238.53 840.171 2238.53 Z" fill="#000000" fill-rule="nonzero" fill-opacity="1" /><path clip-path="url(#clip640)" d="M1375.29 2243.23 L1363.49 2261.68 L1375.29 2261.68 L1375.29 2243.23 M1374.06 2239.16 L1379.94 2239.16 L1379.94 2261.68 L1384.87 2261.68 L1384.87 2265.57 L1379.94 2265.57 L1379.94 2273.72 L1375.29 2273.72 L1375.29 2265.57 L1359.69 2265.57 L1359.69 2261.06 L1374.06 2239.16 Z" fill="#000000" fill-rule="nonzero" fill-opacity="1" /><path clip-path="url(#clip640)" d="M1402.61 2242.24 Q1399 2242.24 1397.17 2245.8 Q1395.36 2249.34 1395.36 2256.47 Q1395.36 2263.58 1397.17 2267.15 Q1399 2270.69 1402.61 2270.69 Q1406.24 2270.69 1408.05 2267.15 Q1409.87 2263.58 1409.87 2256.47 Q1409.87 2249.34 1408.05 2245.8 Q1406.24 2242.24 1402.61 2242.24 M1402.61 2238.53 Q1408.42 2238.53 1411.47 2243.14 Q1414.55 2247.72 1414.55 2256.47 Q1414.55 2265.2 1411.47 2269.81 Q1408.42 2274.39 1402.61 2274.39 Q1396.8 2274.39 1393.72 2269.81 Q1390.66 2265.2 1390.66 2256.47 Q1390.66 2247.72 1393.72 2243.14 Q1396.8 2238.53 1402.61 2238.53 Z" fill="#000000" fill-rule="nonzero" fill-opacity="1" /><path clip-path="url(#clip640)" d="M1934.38 2254.58 Q1931.23 2254.58 1929.38 2256.73 Q1927.55 2258.88 1927.55 2262.63 Q1927.55 2266.36 1929.38 2268.53 Q1931.23 2270.69 1934.38 2270.69 Q1937.53 2270.69 1939.36 2268.53 Q1941.21 2266.36 1941.21 2262.63 Q1941.21 2258.88 1939.36 2256.73 Q1937.53 2254.58 1934.38 2254.58 M1943.66 2239.92 L1943.66 2244.18 Q1941.91 2243.35 1940.1 2242.91 Q1938.32 2242.47 1936.56 2242.47 Q1931.93 2242.47 1929.48 2245.59 Q1927.04 2248.72 1926.7 2255.04 Q1928.06 2253.03 1930.12 2251.96 Q1932.18 2250.87 1934.66 2250.87 Q1939.87 2250.87 1942.88 2254.04 Q1945.91 2257.19 1945.91 2262.63 Q1945.91 2267.96 1942.76 2271.17 Q1939.61 2274.39 1934.38 2274.39 Q1928.39 2274.39 1925.22 2269.81 Q1922.04 2265.2 1922.04 2256.47 Q1922.04 2248.28 1925.93 2243.42 Q1929.82 2238.53 1936.37 2238.53 Q1938.13 2238.53 1939.91 2238.88 Q1941.72 2239.23 1943.66 2239.92 Z" fill="#000000" fill-rule="nonzero" fill-opacity="1" /><path clip-path="url(#clip640)" d="M1963.97 2242.24 Q1960.35 2242.24 1958.53 2245.8 Q1956.72 2249.34 1956.72 2256.47 Q1956.72 2263.58 1958.53 2267.15 Q1960.35 2270.69 1963.97 2270.69 Q1967.6 2270.69 1969.41 2267.15 Q1971.23 2263.58 1971.23 2256.47 Q1971.23 2249.34 1969.41 2245.8 Q1967.6 2242.24 1963.97 2242.24 M1963.97 2238.53 Q1969.78 2238.53 1972.83 2243.14 Q1975.91 2247.72 1975.91 2256.47 Q1975.91 2265.2 1972.83 2269.81 Q1969.78 2274.39 1963.97 2274.39 Q1958.16 2274.39 1955.08 2269.81 Q1952.02 2265.2 1952.02 2256.47 Q1952.02 2247.72 1955.08 2243.14 Q1958.16 2238.53 1963.97 2238.53 Z" fill="#000000" fill-rule="nonzero" fill-opacity="1" /><path clip-path="url(#clip640)" d="M2495.71 2257.31 Q2492.37 2257.31 2490.45 2259.09 Q2488.55 2260.87 2488.55 2264 Q2488.55 2267.12 2490.45 2268.91 Q2492.37 2270.69 2495.71 2270.69 Q2499.04 2270.69 2500.96 2268.91 Q2502.88 2267.1 2502.88 2264 Q2502.88 2260.87 2500.96 2259.09 Q2499.06 2257.31 2495.71 2257.31 M2491.03 2255.32 Q2488.02 2254.58 2486.33 2252.52 Q2484.67 2250.46 2484.67 2247.49 Q2484.67 2243.35 2487.61 2240.94 Q2490.57 2238.53 2495.71 2238.53 Q2500.87 2238.53 2503.81 2240.94 Q2506.75 2243.35 2506.75 2247.49 Q2506.75 2250.46 2505.06 2252.52 Q2503.39 2254.58 2500.41 2255.32 Q2503.79 2256.1 2505.66 2258.4 Q2507.56 2260.69 2507.56 2264 Q2507.56 2269.02 2504.48 2271.71 Q2501.42 2274.39 2495.71 2274.39 Q2489.99 2274.39 2486.91 2271.71 Q2483.86 2269.02 2483.86 2264 Q2483.86 2260.69 2485.75 2258.4 Q2487.65 2256.1 2491.03 2255.32 M2489.32 2247.93 Q2489.32 2250.62 2490.98 2252.12 Q2492.67 2253.63 2495.71 2253.63 Q2498.72 2253.63 2500.41 2252.12 Q2502.12 2250.62 2502.12 2247.93 Q2502.12 2245.25 2500.41 2243.74 Q2498.72 2242.24 2495.71 2242.24 Q2492.67 2242.24 2490.98 2243.74 Q2489.32 2245.25 2489.32 2247.93 Z" fill="#000000" fill-rule="nonzero" fill-opacity="1" /><path clip-path="url(#clip640)" d="M2525.87 2242.24 Q2522.26 2242.24 2520.43 2245.8 Q2518.62 2249.34 2518.62 2256.47 Q2518.62 2263.58 2520.43 2267.15 Q2522.26 2270.69 2525.87 2270.69 Q2529.5 2270.69 2531.31 2267.15 Q2533.14 2263.58 2533.14 2256.47 Q2533.14 2249.34 2531.31 2245.8 Q2529.5 2242.24 2525.87 2242.24 M2525.87 2238.53 Q2531.68 2238.53 2534.73 2243.14 Q2537.81 2247.72 2537.81 2256.47 Q2537.81 2265.2 2534.73 2269.81 Q2531.68 2274.39 2525.87 2274.39 Q2520.06 2274.39 2516.98 2269.81 Q2513.92 2265.2 2513.92 2256.47 Q2513.92 2247.72 2516.98 2243.14 Q2520.06 2238.53 2525.87 2238.53 Z" fill="#000000" fill-rule="nonzero" fill-opacity="1" /><path clip-path="url(#clip640)" d="M3032.3 2269.78 L3039.94 2269.78 L3039.94 2243.42 L3031.63 2245.09 L3031.63 2240.83 L3039.89 2239.16 L3044.57 2239.16 L3044.57 2269.78 L3052.21 2269.78 L3052.21 2273.72 L3032.3 2273.72 L3032.3 2269.78 Z" fill="#000000" fill-rule="nonzero" fill-opacity="1" /><path clip-path="url(#clip640)" d="M3071.65 2242.24 Q3068.04 2242.24 3066.21 2245.8 Q3064.4 2249.34 3064.4 2256.47 Q3064.4 2263.58 3066.21 2267.15 Q3068.04 2270.69 3071.65 2270.69 Q3075.28 2270.69 3077.09 2267.15 Q3078.92 2263.58 3078.92 2256.47 Q3078.92 2249.34 3077.09 2245.8 Q3075.28 2242.24 3071.65 2242.24 M3071.65 2238.53 Q3077.46 2238.53 3080.52 2243.14 Q3083.59 2247.72 3083.59 2256.47 Q3083.59 2265.2 3080.52 2269.81 Q3077.46 2274.39 3071.65 2274.39 Q3065.84 2274.39 3062.76 2269.81 Q3059.71 2265.2 3059.71 2256.47 Q3059.71 2247.72 3062.76 2243.14 Q3065.84 2238.53 3071.65 2238.53 Z" fill="#000000" fill-rule="nonzero" fill-opacity="1" /><path clip-path="url(#clip640)" d="M3101.81 2242.24 Q3098.2 2242.24 3096.37 2245.8 Q3094.57 2249.34 3094.57 2256.47 Q3094.57 2263.58 3096.37 2267.15 Q3098.2 2270.69 3101.81 2270.69 Q3105.45 2270.69 3107.25 2267.15 Q3109.08 2263.58 3109.08 2256.47 Q3109.08 2249.34 3107.25 2245.8 Q3105.45 2242.24 3101.81 2242.24 M3101.81 2238.53 Q3107.62 2238.53 3110.68 2243.14 Q3113.76 2247.72 3113.76 2256.47 Q3113.76 2265.2 3110.68 2269.81 Q3107.62 2274.39 3101.81 2274.39 Q3096 2274.39 3092.92 2269.81 Q3089.87 2265.2 3089.87 2256.47 Q3089.87 2247.72 3092.92 2243.14 Q3096 2238.53 3101.81 2238.53 Z" fill="#000000" fill-rule="nonzero" fill-opacity="1" /><path clip-path="url(#clip640)" d="M1539.15 2333.11 L1529.88 2333.11 L1527.21 2343.74 L1536.54 2343.74 L1539.15 2333.11 M1534.37 2315 L1531.06 2328.2 L1540.36 2328.2 L1543.7 2315 L1548.79 2315 L1545.51 2328.2 L1555.44 2328.2 L1555.44 2333.11 L1544.27 2333.11 L1541.66 2343.74 L1551.78 2343.74 L1551.78 2348.61 L1540.42 2348.61 L1537.11 2361.78 L1532.02 2361.78 L1535.29 2348.61 L1525.97 2348.61 L1522.69 2361.78 L1517.57 2361.78 L1520.88 2348.61 L1510.85 2348.61 L1510.85 2343.74 L1522.05 2343.74 L1524.73 2333.11 L1514.48 2333.11 L1514.48 2328.2 L1525.97 2328.2 L1529.22 2315 L1534.37 2315 Z" fill="#000000" fill-rule="nonzero" fill-opacity="1" /><path clip-path="url(#clip640)" d="M1610.76 2331.55 L1610.76 2312.26 L1616.62 2312.26 L1616.62 2361.78 L1610.76 2361.78 L1610.76 2356.44 Q1608.91 2359.62 1606.08 2361.18 Q1603.28 2362.71 1599.33 2362.71 Q1592.87 2362.71 1588.8 2357.55 Q1584.76 2352.39 1584.76 2343.99 Q1584.76 2335.59 1588.8 2330.43 Q1592.87 2325.28 1599.33 2325.28 Q1603.28 2325.28 1606.08 2326.84 Q1608.91 2328.36 1610.76 2331.55 M1590.8 2343.99 Q1590.8 2350.45 1593.45 2354.14 Q1596.12 2357.81 1600.77 2357.81 Q1605.41 2357.81 1608.09 2354.14 Q1610.76 2350.45 1610.76 2343.99 Q1610.76 2337.53 1608.09 2333.87 Q1605.41 2330.18 1600.77 2330.18 Q1596.12 2330.18 1593.45 2333.87 Q1590.8 2337.53 1590.8 2343.99 Z" fill="#000000" fill-rule="nonzero" fill-opacity="1" /><path clip-path="url(#clip640)" d="M1659.17 2342.5 L1659.17 2345.36 L1632.24 2345.36 Q1632.63 2351.41 1635.87 2354.59 Q1639.15 2357.74 1644.98 2357.74 Q1648.35 2357.74 1651.5 2356.91 Q1654.68 2356.09 1657.8 2354.43 L1657.8 2359.97 Q1654.65 2361.31 1651.34 2362.01 Q1648.03 2362.71 1644.63 2362.71 Q1636.1 2362.71 1631.1 2357.74 Q1626.13 2352.78 1626.13 2344.31 Q1626.13 2335.56 1630.84 2330.43 Q1635.59 2325.28 1643.61 2325.28 Q1650.8 2325.28 1654.97 2329.92 Q1659.17 2334.54 1659.17 2342.5 M1653.31 2340.78 Q1653.25 2335.97 1650.61 2333.11 Q1648 2330.24 1643.67 2330.24 Q1638.77 2330.24 1635.81 2333.01 Q1632.88 2335.78 1632.44 2340.81 L1653.31 2340.78 Z" fill="#000000" fill-rule="nonzero" fill-opacity="1" /><path clip-path="url(#clip640)" d="M1689.76 2314.26 L1696.19 2314.26 L1696.19 2356.37 L1719.33 2356.37 L1719.33 2361.78 L1689.76 2361.78 L1689.76 2314.26 Z" fill="#000000" fill-rule="nonzero" fill-opacity="1" /><path clip-path="url(#clip640)" d="M1725.82 2326.14 L1731.68 2326.14 L1731.68 2361.78 L1725.82 2361.78 L1725.82 2326.14 M1725.82 2312.26 L1731.68 2312.26 L1731.68 2319.67 L1725.82 2319.67 L1725.82 2312.26 Z" fill="#000000" fill-rule="nonzero" fill-opacity="1" /><path clip-path="url(#clip640)" d="M1767.39 2343.55 Q1767.39 2337.18 1764.75 2333.68 Q1762.14 2330.18 1757.39 2330.18 Q1752.68 2330.18 1750.04 2333.68 Q1747.43 2337.18 1747.43 2343.55 Q1747.43 2349.88 1750.04 2353.38 Q1752.68 2356.88 1757.39 2356.88 Q1762.14 2356.88 1764.75 2353.38 Q1767.39 2349.88 1767.39 2343.55 M1773.24 2357.36 Q1773.24 2366.46 1769.2 2370.89 Q1765.16 2375.34 1756.82 2375.34 Q1753.73 2375.34 1751 2374.87 Q1748.26 2374.42 1745.68 2373.46 L1745.68 2367.77 Q1748.26 2369.17 1750.77 2369.84 Q1753.29 2370.5 1755.9 2370.5 Q1761.66 2370.5 1764.52 2367.48 Q1767.39 2364.49 1767.39 2358.41 L1767.39 2355.51 Q1765.57 2358.66 1762.74 2360.22 Q1759.91 2361.78 1755.96 2361.78 Q1749.4 2361.78 1745.39 2356.79 Q1741.38 2351.79 1741.38 2343.55 Q1741.38 2335.27 1745.39 2330.27 Q1749.4 2325.28 1755.96 2325.28 Q1759.91 2325.28 1762.74 2326.84 Q1765.57 2328.4 1767.39 2331.55 L1767.39 2326.14 L1773.24 2326.14 L1773.24 2357.36 Z" fill="#000000" fill-rule="nonzero" fill-opacity="1" /><path clip-path="url(#clip640)" d="M1801.51 2343.86 Q1794.41 2343.86 1791.67 2345.49 Q1788.94 2347.11 1788.94 2351.03 Q1788.94 2354.14 1790.97 2355.99 Q1793.04 2357.81 1796.57 2357.81 Q1801.44 2357.81 1804.37 2354.37 Q1807.33 2350.9 1807.33 2345.17 L1807.33 2343.86 L1801.51 2343.86 M1813.19 2341.45 L1813.19 2361.78 L1807.33 2361.78 L1807.33 2356.37 Q1805.33 2359.62 1802.34 2361.18 Q1799.34 2362.71 1795.02 2362.71 Q1789.54 2362.71 1786.29 2359.65 Q1783.08 2356.56 1783.08 2351.41 Q1783.08 2345.39 1787.09 2342.34 Q1791.13 2339.28 1799.12 2339.28 L1807.33 2339.28 L1807.33 2338.71 Q1807.33 2334.67 1804.66 2332.47 Q1802.02 2330.24 1797.21 2330.24 Q1794.16 2330.24 1791.26 2330.97 Q1788.36 2331.71 1785.69 2333.17 L1785.69 2327.76 Q1788.9 2326.52 1791.93 2325.91 Q1794.95 2325.28 1797.82 2325.28 Q1805.55 2325.28 1809.37 2329.29 Q1813.19 2333.3 1813.19 2341.45 Z" fill="#000000" fill-rule="nonzero" fill-opacity="1" /><path clip-path="url(#clip640)" d="M1850.91 2327.5 L1850.91 2332.98 Q1848.42 2331.61 1845.91 2330.94 Q1843.43 2330.24 1840.88 2330.24 Q1835.18 2330.24 1832.03 2333.87 Q1828.88 2337.47 1828.88 2343.99 Q1828.88 2350.52 1832.03 2354.14 Q1835.18 2357.74 1840.88 2357.74 Q1843.43 2357.74 1845.91 2357.07 Q1848.42 2356.37 1850.91 2355 L1850.91 2360.42 Q1848.46 2361.56 1845.81 2362.13 Q1843.2 2362.71 1840.24 2362.71 Q1832.19 2362.71 1827.45 2357.65 Q1822.71 2352.59 1822.71 2343.99 Q1822.71 2335.27 1827.48 2330.27 Q1832.29 2325.28 1840.63 2325.28 Q1843.33 2325.28 1845.91 2325.85 Q1848.49 2326.39 1850.91 2327.5 M1842.63 2361.78 Q1844.38 2363.76 1845.24 2365.41 Q1846.1 2367.1 1846.1 2368.63 Q1846.1 2371.46 1844.19 2372.89 Q1842.28 2374.36 1838.52 2374.36 Q1837.06 2374.36 1835.66 2374.17 Q1834.29 2373.97 1832.92 2373.59 L1832.92 2369.42 Q1834.01 2369.96 1835.18 2370.19 Q1836.36 2370.44 1837.86 2370.44 Q1839.73 2370.44 1840.69 2369.68 Q1841.64 2368.91 1841.64 2367.45 Q1841.64 2366.49 1840.94 2365.09 Q1840.28 2363.73 1838.84 2361.78 L1842.63 2361.78 Z" fill="#000000" fill-rule="nonzero" fill-opacity="1" /><path clip-path="url(#clip640)" d="M1874.9 2330.24 Q1870.19 2330.24 1867.46 2333.93 Q1864.72 2337.59 1864.72 2343.99 Q1864.72 2350.39 1867.43 2354.08 Q1870.16 2357.74 1874.9 2357.74 Q1879.58 2357.74 1882.32 2354.05 Q1885.06 2350.36 1885.06 2343.99 Q1885.06 2337.66 1882.32 2333.97 Q1879.58 2330.24 1874.9 2330.24 M1874.9 2325.28 Q1882.54 2325.28 1886.9 2330.24 Q1891.26 2335.21 1891.26 2343.99 Q1891.26 2352.74 1886.9 2357.74 Q1882.54 2362.71 1874.9 2362.71 Q1867.23 2362.71 1862.87 2357.74 Q1858.54 2352.74 1858.54 2343.99 Q1858.54 2335.21 1862.87 2330.24 Q1867.23 2325.28 1874.9 2325.28 M1874.78 2318.18 L1872.96 2316.43 Q1872.26 2315.79 1871.72 2315.51 Q1871.21 2315.19 1870.8 2315.19 Q1869.59 2315.19 1869.02 2316.36 Q1868.44 2317.51 1868.38 2320.12 L1864.4 2320.12 Q1864.47 2315.82 1866.09 2313.5 Q1867.71 2311.14 1870.61 2311.14 Q1871.82 2311.14 1872.84 2311.59 Q1873.85 2312.04 1875.03 2313.09 L1876.85 2314.84 Q1877.55 2315.47 1878.06 2315.79 Q1878.6 2316.08 1879.01 2316.08 Q1880.22 2316.08 1880.79 2314.93 Q1881.37 2313.75 1881.43 2311.14 L1885.41 2311.14 Q1885.34 2315.44 1883.72 2317.8 Q1882.1 2320.12 1879.2 2320.12 Q1877.99 2320.12 1876.97 2319.67 Q1875.96 2319.23 1874.78 2318.18 Z" fill="#000000" fill-rule="nonzero" fill-opacity="1" /><path clip-path="url(#clip640)" d="M1931.46 2342.5 L1931.46 2345.36 L1904.54 2345.36 Q1904.92 2351.41 1908.17 2354.59 Q1911.44 2357.74 1917.27 2357.74 Q1920.64 2357.74 1923.79 2356.91 Q1926.98 2356.09 1930.1 2354.43 L1930.1 2359.97 Q1926.94 2361.31 1923.63 2362.01 Q1920.32 2362.71 1916.92 2362.71 Q1908.39 2362.71 1903.39 2357.74 Q1898.43 2352.78 1898.43 2344.31 Q1898.43 2335.56 1903.14 2330.43 Q1907.88 2325.28 1915.9 2325.28 Q1923.09 2325.28 1927.26 2329.92 Q1931.46 2334.54 1931.46 2342.5 M1925.61 2340.78 Q1925.54 2335.97 1922.9 2333.11 Q1920.29 2330.24 1915.96 2330.24 Q1911.06 2330.24 1908.1 2333.01 Q1905.17 2335.78 1904.73 2340.81 L1925.61 2340.78 Z" fill="#000000" fill-rule="nonzero" fill-opacity="1" /><path clip-path="url(#clip640)" d="M1963.8 2327.19 L1963.8 2332.72 Q1961.32 2331.45 1958.65 2330.81 Q1955.97 2330.18 1953.11 2330.18 Q1948.75 2330.18 1946.55 2331.51 Q1944.39 2332.85 1944.39 2335.53 Q1944.39 2337.56 1945.95 2338.74 Q1947.51 2339.89 1952.22 2340.94 L1954.22 2341.38 Q1960.46 2342.72 1963.07 2345.17 Q1965.71 2347.59 1965.71 2351.95 Q1965.71 2356.91 1961.76 2359.81 Q1957.85 2362.71 1950.98 2362.71 Q1948.11 2362.71 1944.99 2362.13 Q1941.9 2361.59 1938.47 2360.48 L1938.47 2354.43 Q1941.71 2356.12 1944.86 2356.98 Q1948.01 2357.81 1951.1 2357.81 Q1955.24 2357.81 1957.47 2356.4 Q1959.7 2354.97 1959.7 2352.39 Q1959.7 2350.01 1958.07 2348.73 Q1956.48 2347.46 1951.04 2346.28 L1949 2345.81 Q1943.56 2344.66 1941.14 2342.3 Q1938.72 2339.92 1938.72 2335.78 Q1938.72 2330.75 1942.29 2328.01 Q1945.85 2325.28 1952.41 2325.28 Q1955.65 2325.28 1958.52 2325.75 Q1961.38 2326.23 1963.8 2327.19 Z" fill="#000000" fill-rule="nonzero" fill-opacity="1" /><polyline clip-path="url(#clip642)" style="stroke:#000000; stroke-linecap:round; stroke-linejoin:round; stroke-width:2; stroke-opacity:0.1; fill:none" points="323.806,1884.59 3152.76,1884.59 "/>
<polyline clip-path="url(#clip642)" style="stroke:#000000; stroke-linecap:round; stroke-linejoin:round; stroke-width:2; stroke-opacity:0.1; fill:none" points="323.806,1545.8 3152.76,1545.8 "/>
<polyline clip-path="url(#clip642)" style="stroke:#000000; stroke-linecap:round; stroke-linejoin:round; stroke-width:2; stroke-opacity:0.1; fill:none" points="323.806,1207.02 3152.76,1207.02 "/>
<polyline clip-path="url(#clip642)" style="stroke:#000000; stroke-linecap:round; stroke-linejoin:round; stroke-width:2; stroke-opacity:0.1; fill:none" points="323.806,868.24 3152.76,868.24 "/>
<polyline clip-path="url(#clip642)" style="stroke:#000000; stroke-linecap:round; stroke-linejoin:round; stroke-width:2; stroke-opacity:0.1; fill:none" points="323.806,529.458 3152.76,529.458 "/>
<polyline clip-path="url(#clip642)" style="stroke:#000000; stroke-linecap:round; stroke-linejoin:round; stroke-width:2; stroke-opacity:0.1; fill:none" points="323.806,190.676 3152.76,190.676 "/>
<polyline clip-path="url(#clip640)" style="stroke:#000000; stroke-linecap:round; stroke-linejoin:round; stroke-width:4; stroke-opacity:1; fill:none" points="323.806,2204.92 323.806,47.2441 "/>
<polyline clip-path="url(#clip640)" style="stroke:#000000; stroke-linecap:round; stroke-linejoin:round; stroke-width:4; stroke-opacity:1; fill:none" points="323.806,1884.59 342.703,1884.59 "/>
<polyline clip-path="url(#clip640)" style="stroke:#000000; stroke-linecap:round; stroke-linejoin:round; stroke-width:4; stroke-opacity:1; fill:none" points="323.806,1545.8 342.703,1545.8 "/>
<polyline clip-path="url(#clip640)" style="stroke:#000000; stroke-linecap:round; stroke-linejoin:round; stroke-width:4; stroke-opacity:1; fill:none" points="323.806,1207.02 342.703,1207.02 "/>
<polyline clip-path="url(#clip640)" style="stroke:#000000; stroke-linecap:round; stroke-linejoin:round; stroke-width:4; stroke-opacity:1; fill:none" points="323.806,868.24 342.703,868.24 "/>
<polyline clip-path="url(#clip640)" style="stroke:#000000; stroke-linecap:round; stroke-linejoin:round; stroke-width:4; stroke-opacity:1; fill:none" points="323.806,529.458 342.703,529.458 "/>
<polyline clip-path="url(#clip640)" style="stroke:#000000; stroke-linecap:round; stroke-linejoin:round; stroke-width:4; stroke-opacity:1; fill:none" points="323.806,190.676 342.703,190.676 "/>
<path clip-path="url(#clip640)" d="M129.14 1870.38 Q125.529 1870.38 123.7 1873.95 Q121.895 1877.49 121.895 1884.62 Q121.895 1891.73 123.7 1895.29 Q125.529 1898.83 129.14 1898.83 Q132.774 1898.83 134.58 1895.29 Q136.408 1891.73 136.408 1884.62 Q136.408 1877.49 134.58 1873.95 Q132.774 1870.38 129.14 1870.38 M129.14 1866.68 Q134.95 1866.68 138.006 1871.29 Q141.084 1875.87 141.084 1884.62 Q141.084 1893.35 138.006 1897.95 Q134.95 1902.54 129.14 1902.54 Q123.33 1902.54 120.251 1897.95 Q117.196 1893.35 117.196 1884.62 Q117.196 1875.87 120.251 1871.29 Q123.33 1866.68 129.14 1866.68 Z" fill="#000000" fill-rule="nonzero" fill-opacity="1" /><path clip-path="url(#clip640)" d="M149.302 1895.99 L154.186 1895.99 L154.186 1901.87 L149.302 1901.87 L149.302 1895.99 Z" fill="#000000" fill-rule="nonzero" fill-opacity="1" /><path clip-path="url(#clip640)" d="M174.371 1870.38 Q170.76 1870.38 168.931 1873.95 Q167.126 1877.49 167.126 1884.62 Q167.126 1891.73 168.931 1895.29 Q170.76 1898.83 174.371 1898.83 Q178.005 1898.83 179.811 1895.29 Q181.64 1891.73 181.64 1884.62 Q181.64 1877.49 179.811 1873.95 Q178.005 1870.38 174.371 1870.38 M174.371 1866.68 Q180.181 1866.68 183.237 1871.29 Q186.316 1875.87 186.316 1884.62 Q186.316 1893.35 183.237 1897.95 Q180.181 1902.54 174.371 1902.54 Q168.561 1902.54 165.482 1897.95 Q162.427 1893.35 162.427 1884.62 Q162.427 1875.87 165.482 1871.29 Q168.561 1866.68 174.371 1866.68 Z" fill="#000000" fill-rule="nonzero" fill-opacity="1" /><path clip-path="url(#clip640)" d="M204.533 1870.38 Q200.922 1870.38 199.093 1873.95 Q197.288 1877.49 197.288 1884.62 Q197.288 1891.73 199.093 1895.29 Q200.922 1898.83 204.533 1898.83 Q208.167 1898.83 209.973 1895.29 Q211.801 1891.73 211.801 1884.62 Q211.801 1877.49 209.973 1873.95 Q208.167 1870.38 204.533 1870.38 M204.533 1866.68 Q210.343 1866.68 213.399 1871.29 Q216.477 1875.87 216.477 1884.62 Q216.477 1893.35 213.399 1897.95 Q210.343 1902.54 204.533 1902.54 Q198.723 1902.54 195.644 1897.95 Q192.589 1893.35 192.589 1884.62 Q192.589 1875.87 195.644 1871.29 Q198.723 1866.68 204.533 1866.68 Z" fill="#000000" fill-rule="nonzero" fill-opacity="1" /><path clip-path="url(#clip640)" d="M234.695 1870.38 Q231.084 1870.38 229.255 1873.95 Q227.45 1877.49 227.45 1884.62 Q227.45 1891.73 229.255 1895.29 Q231.084 1898.83 234.695 1898.83 Q238.329 1898.83 240.135 1895.29 Q241.963 1891.73 241.963 1884.62 Q241.963 1877.49 240.135 1873.95 Q238.329 1870.38 234.695 1870.38 M234.695 1866.68 Q240.505 1866.68 243.561 1871.29 Q246.639 1875.87 246.639 1884.62 Q246.639 1893.35 243.561 1897.95 Q240.505 1902.54 234.695 1902.54 Q228.885 1902.54 225.806 1897.95 Q222.751 1893.35 222.751 1884.62 Q222.751 1875.87 225.806 1871.29 Q228.885 1866.68 234.695 1866.68 Z" fill="#000000" fill-rule="nonzero" fill-opacity="1" /><path clip-path="url(#clip640)" d="M254.903 1867.31 L273.26 1867.31 L273.26 1871.24 L259.186 1871.24 L259.186 1879.71 Q260.204 1879.37 261.223 1879.2 Q262.241 1879.02 263.26 1879.02 Q269.047 1879.02 272.426 1882.19 Q275.806 1885.36 275.806 1890.78 Q275.806 1896.36 272.334 1899.46 Q268.861 1902.54 262.542 1902.54 Q260.366 1902.54 258.098 1902.17 Q255.852 1901.8 253.445 1901.06 L253.445 1896.36 Q255.528 1897.49 257.75 1898.05 Q259.973 1898.6 262.449 1898.6 Q266.454 1898.6 268.792 1896.49 Q271.13 1894.39 271.13 1890.78 Q271.13 1887.17 268.792 1885.06 Q266.454 1882.95 262.449 1882.95 Q260.574 1882.95 258.699 1883.37 Q256.848 1883.79 254.903 1884.67 L254.903 1867.31 Z" fill="#000000" fill-rule="nonzero" fill-opacity="1" /><path clip-path="url(#clip640)" d="M128.145 1531.6 Q124.533 1531.6 122.705 1535.17 Q120.899 1538.71 120.899 1545.84 Q120.899 1552.94 122.705 1556.51 Q124.533 1560.05 128.145 1560.05 Q131.779 1560.05 133.584 1556.51 Q135.413 1552.94 135.413 1545.84 Q135.413 1538.71 133.584 1535.17 Q131.779 1531.6 128.145 1531.6 M128.145 1527.9 Q133.955 1527.9 137.01 1532.5 Q140.089 1537.09 140.089 1545.84 Q140.089 1554.56 137.01 1559.17 Q133.955 1563.75 128.145 1563.75 Q122.334 1563.75 119.256 1559.17 Q116.2 1554.56 116.2 1545.84 Q116.2 1537.09 119.256 1532.5 Q122.334 1527.9 128.145 1527.9 Z" fill="#000000" fill-rule="nonzero" fill-opacity="1" /><path clip-path="url(#clip640)" d="M148.306 1557.2 L153.191 1557.2 L153.191 1563.08 L148.306 1563.08 L148.306 1557.2 Z" fill="#000000" fill-rule="nonzero" fill-opacity="1" /><path clip-path="url(#clip640)" d="M173.376 1531.6 Q169.765 1531.6 167.936 1535.17 Q166.13 1538.71 166.13 1545.84 Q166.13 1552.94 167.936 1556.51 Q169.765 1560.05 173.376 1560.05 Q177.01 1560.05 178.816 1556.51 Q180.644 1552.94 180.644 1545.84 Q180.644 1538.71 178.816 1535.17 Q177.01 1531.6 173.376 1531.6 M173.376 1527.9 Q179.186 1527.9 182.241 1532.5 Q185.32 1537.09 185.32 1545.84 Q185.32 1554.56 182.241 1559.17 Q179.186 1563.75 173.376 1563.75 Q167.566 1563.75 164.487 1559.17 Q161.431 1554.56 161.431 1545.84 Q161.431 1537.09 164.487 1532.5 Q167.566 1527.9 173.376 1527.9 Z" fill="#000000" fill-rule="nonzero" fill-opacity="1" /><path clip-path="url(#clip640)" d="M203.538 1531.6 Q199.927 1531.6 198.098 1535.17 Q196.292 1538.71 196.292 1545.84 Q196.292 1552.94 198.098 1556.51 Q199.927 1560.05 203.538 1560.05 Q207.172 1560.05 208.977 1556.51 Q210.806 1552.94 210.806 1545.84 Q210.806 1538.71 208.977 1535.17 Q207.172 1531.6 203.538 1531.6 M203.538 1527.9 Q209.348 1527.9 212.403 1532.5 Q215.482 1537.09 215.482 1545.84 Q215.482 1554.56 212.403 1559.17 Q209.348 1563.75 203.538 1563.75 Q197.727 1563.75 194.649 1559.17 Q191.593 1554.56 191.593 1545.84 Q191.593 1537.09 194.649 1532.5 Q197.727 1527.9 203.538 1527.9 Z" fill="#000000" fill-rule="nonzero" fill-opacity="1" /><path clip-path="url(#clip640)" d="M224.51 1559.15 L232.149 1559.15 L232.149 1532.78 L223.838 1534.45 L223.838 1530.19 L232.102 1528.52 L236.778 1528.52 L236.778 1559.15 L244.417 1559.15 L244.417 1563.08 L224.51 1563.08 L224.51 1559.15 Z" fill="#000000" fill-rule="nonzero" fill-opacity="1" /><path clip-path="url(#clip640)" d="M263.861 1531.6 Q260.25 1531.6 258.422 1535.17 Q256.616 1538.71 256.616 1545.84 Q256.616 1552.94 258.422 1556.51 Q260.25 1560.05 263.861 1560.05 Q267.496 1560.05 269.301 1556.51 Q271.13 1552.94 271.13 1545.84 Q271.13 1538.71 269.301 1535.17 Q267.496 1531.6 263.861 1531.6 M263.861 1527.9 Q269.672 1527.9 272.727 1532.5 Q275.806 1537.09 275.806 1545.84 Q275.806 1554.56 272.727 1559.17 Q269.672 1563.75 263.861 1563.75 Q258.051 1563.75 254.973 1559.17 Q251.917 1554.56 251.917 1545.84 Q251.917 1537.09 254.973 1532.5 Q258.051 1527.9 263.861 1527.9 Z" fill="#000000" fill-rule="nonzero" fill-opacity="1" /><path clip-path="url(#clip640)" d="M129.14 1192.82 Q125.529 1192.82 123.7 1196.39 Q121.895 1199.93 121.895 1207.06 Q121.895 1214.16 123.7 1217.73 Q125.529 1221.27 129.14 1221.27 Q132.774 1221.27 134.58 1217.73 Q136.408 1214.16 136.408 1207.06 Q136.408 1199.93 134.58 1196.39 Q132.774 1192.82 129.14 1192.82 M129.14 1189.12 Q134.95 1189.12 138.006 1193.72 Q141.084 1198.31 141.084 1207.06 Q141.084 1215.78 138.006 1220.39 Q134.95 1224.97 129.14 1224.97 Q123.33 1224.97 120.251 1220.39 Q117.196 1215.78 117.196 1207.06 Q117.196 1198.31 120.251 1193.72 Q123.33 1189.12 129.14 1189.12 Z" fill="#000000" fill-rule="nonzero" fill-opacity="1" /><path clip-path="url(#clip640)" d="M149.302 1218.42 L154.186 1218.42 L154.186 1224.3 L149.302 1224.3 L149.302 1218.42 Z" fill="#000000" fill-rule="nonzero" fill-opacity="1" /><path clip-path="url(#clip640)" d="M174.371 1192.82 Q170.76 1192.82 168.931 1196.39 Q167.126 1199.93 167.126 1207.06 Q167.126 1214.16 168.931 1217.73 Q170.76 1221.27 174.371 1221.27 Q178.005 1221.27 179.811 1217.73 Q181.64 1214.16 181.64 1207.06 Q181.64 1199.93 179.811 1196.39 Q178.005 1192.82 174.371 1192.82 M174.371 1189.12 Q180.181 1189.12 183.237 1193.72 Q186.316 1198.31 186.316 1207.06 Q186.316 1215.78 183.237 1220.39 Q180.181 1224.97 174.371 1224.97 Q168.561 1224.97 165.482 1220.39 Q162.427 1215.78 162.427 1207.06 Q162.427 1198.31 165.482 1193.72 Q168.561 1189.12 174.371 1189.12 Z" fill="#000000" fill-rule="nonzero" fill-opacity="1" /><path clip-path="url(#clip640)" d="M204.533 1192.82 Q200.922 1192.82 199.093 1196.39 Q197.288 1199.93 197.288 1207.06 Q197.288 1214.16 199.093 1217.73 Q200.922 1221.27 204.533 1221.27 Q208.167 1221.27 209.973 1217.73 Q211.801 1214.16 211.801 1207.06 Q211.801 1199.93 209.973 1196.39 Q208.167 1192.82 204.533 1192.82 M204.533 1189.12 Q210.343 1189.12 213.399 1193.72 Q216.477 1198.31 216.477 1207.06 Q216.477 1215.78 213.399 1220.39 Q210.343 1224.97 204.533 1224.97 Q198.723 1224.97 195.644 1220.39 Q192.589 1215.78 192.589 1207.06 Q192.589 1198.31 195.644 1193.72 Q198.723 1189.12 204.533 1189.12 Z" fill="#000000" fill-rule="nonzero" fill-opacity="1" /><path clip-path="url(#clip640)" d="M225.505 1220.37 L233.144 1220.37 L233.144 1194 L224.834 1195.67 L224.834 1191.41 L233.098 1189.74 L237.774 1189.74 L237.774 1220.37 L245.412 1220.37 L245.412 1224.3 L225.505 1224.3 L225.505 1220.37 Z" fill="#000000" fill-rule="nonzero" fill-opacity="1" /><path clip-path="url(#clip640)" d="M254.903 1189.74 L273.26 1189.74 L273.26 1193.68 L259.186 1193.68 L259.186 1202.15 Q260.204 1201.8 261.223 1201.64 Q262.241 1201.45 263.26 1201.45 Q269.047 1201.45 272.426 1204.63 Q275.806 1207.8 275.806 1213.21 Q275.806 1218.79 272.334 1221.89 Q268.861 1224.97 262.542 1224.97 Q260.366 1224.97 258.098 1224.6 Q255.852 1224.23 253.445 1223.49 L253.445 1218.79 Q255.528 1219.93 257.75 1220.48 Q259.973 1221.04 262.449 1221.04 Q266.454 1221.04 268.792 1218.93 Q271.13 1216.82 271.13 1213.21 Q271.13 1209.6 268.792 1207.5 Q266.454 1205.39 262.449 1205.39 Q260.574 1205.39 258.699 1205.81 Q256.848 1206.22 254.903 1207.1 L254.903 1189.74 Z" fill="#000000" fill-rule="nonzero" fill-opacity="1" /><path clip-path="url(#clip640)" d="M128.145 854.038 Q124.533 854.038 122.705 857.603 Q120.899 861.145 120.899 868.274 Q120.899 875.381 122.705 878.946 Q124.533 882.487 128.145 882.487 Q131.779 882.487 133.584 878.946 Q135.413 875.381 135.413 868.274 Q135.413 861.145 133.584 857.603 Q131.779 854.038 128.145 854.038 M128.145 850.335 Q133.955 850.335 137.01 854.941 Q140.089 859.524 140.089 868.274 Q140.089 877.001 137.01 881.608 Q133.955 886.191 128.145 886.191 Q122.334 886.191 119.256 881.608 Q116.2 877.001 116.2 868.274 Q116.2 859.524 119.256 854.941 Q122.334 850.335 128.145 850.335 Z" fill="#000000" fill-rule="nonzero" fill-opacity="1" /><path clip-path="url(#clip640)" d="M148.306 879.64 L153.191 879.64 L153.191 885.52 L148.306 885.52 L148.306 879.64 Z" fill="#000000" fill-rule="nonzero" fill-opacity="1" /><path clip-path="url(#clip640)" d="M173.376 854.038 Q169.765 854.038 167.936 857.603 Q166.13 861.145 166.13 868.274 Q166.13 875.381 167.936 878.946 Q169.765 882.487 173.376 882.487 Q177.01 882.487 178.816 878.946 Q180.644 875.381 180.644 868.274 Q180.644 861.145 178.816 857.603 Q177.01 854.038 173.376 854.038 M173.376 850.335 Q179.186 850.335 182.241 854.941 Q185.32 859.524 185.32 868.274 Q185.32 877.001 182.241 881.608 Q179.186 886.191 173.376 886.191 Q167.566 886.191 164.487 881.608 Q161.431 877.001 161.431 868.274 Q161.431 859.524 164.487 854.941 Q167.566 850.335 173.376 850.335 Z" fill="#000000" fill-rule="nonzero" fill-opacity="1" /><path clip-path="url(#clip640)" d="M203.538 854.038 Q199.927 854.038 198.098 857.603 Q196.292 861.145 196.292 868.274 Q196.292 875.381 198.098 878.946 Q199.927 882.487 203.538 882.487 Q207.172 882.487 208.977 878.946 Q210.806 875.381 210.806 868.274 Q210.806 861.145 208.977 857.603 Q207.172 854.038 203.538 854.038 M203.538 850.335 Q209.348 850.335 212.403 854.941 Q215.482 859.524 215.482 868.274 Q215.482 877.001 212.403 881.608 Q209.348 886.191 203.538 886.191 Q197.727 886.191 194.649 881.608 Q191.593 877.001 191.593 868.274 Q191.593 859.524 194.649 854.941 Q197.727 850.335 203.538 850.335 Z" fill="#000000" fill-rule="nonzero" fill-opacity="1" /><path clip-path="url(#clip640)" d="M227.727 881.585 L244.047 881.585 L244.047 885.52 L222.102 885.52 L222.102 881.585 Q224.764 878.83 229.348 874.2 Q233.954 869.548 235.135 868.205 Q237.38 865.682 238.26 863.946 Q239.162 862.186 239.162 860.497 Q239.162 857.742 237.218 856.006 Q235.297 854.27 232.195 854.27 Q229.996 854.27 227.542 855.034 Q225.112 855.798 222.334 857.349 L222.334 852.626 Q225.158 851.492 227.612 850.913 Q230.065 850.335 232.102 850.335 Q237.473 850.335 240.667 853.02 Q243.862 855.705 243.862 860.196 Q243.862 862.325 243.051 864.247 Q242.264 866.145 240.158 868.737 Q239.579 869.409 236.477 872.626 Q233.375 875.821 227.727 881.585 Z" fill="#000000" fill-rule="nonzero" fill-opacity="1" /><path clip-path="url(#clip640)" d="M263.861 854.038 Q260.25 854.038 258.422 857.603 Q256.616 861.145 256.616 868.274 Q256.616 875.381 258.422 878.946 Q260.25 882.487 263.861 882.487 Q267.496 882.487 269.301 878.946 Q271.13 875.381 271.13 868.274 Q271.13 861.145 269.301 857.603 Q267.496 854.038 263.861 854.038 M263.861 850.335 Q269.672 850.335 272.727 854.941 Q275.806 859.524 275.806 868.274 Q275.806 877.001 272.727 881.608 Q269.672 886.191 263.861 886.191 Q258.051 886.191 254.973 881.608 Q251.917 877.001 251.917 868.274 Q251.917 859.524 254.973 854.941 Q258.051 850.335 263.861 850.335 Z" fill="#000000" fill-rule="nonzero" fill-opacity="1" /><path clip-path="url(#clip640)" d="M129.14 515.257 Q125.529 515.257 123.7 518.821 Q121.895 522.363 121.895 529.493 Q121.895 536.599 123.7 540.164 Q125.529 543.705 129.14 543.705 Q132.774 543.705 134.58 540.164 Q136.408 536.599 136.408 529.493 Q136.408 522.363 134.58 518.821 Q132.774 515.257 129.14 515.257 M129.14 511.553 Q134.95 511.553 138.006 516.159 Q141.084 520.743 141.084 529.493 Q141.084 538.219 138.006 542.826 Q134.95 547.409 129.14 547.409 Q123.33 547.409 120.251 542.826 Q117.196 538.219 117.196 529.493 Q117.196 520.743 120.251 516.159 Q123.33 511.553 129.14 511.553 Z" fill="#000000" fill-rule="nonzero" fill-opacity="1" /><path clip-path="url(#clip640)" d="M149.302 540.858 L154.186 540.858 L154.186 546.738 L149.302 546.738 L149.302 540.858 Z" fill="#000000" fill-rule="nonzero" fill-opacity="1" /><path clip-path="url(#clip640)" d="M174.371 515.257 Q170.76 515.257 168.931 518.821 Q167.126 522.363 167.126 529.493 Q167.126 536.599 168.931 540.164 Q170.76 543.705 174.371 543.705 Q178.005 543.705 179.811 540.164 Q181.64 536.599 181.64 529.493 Q181.64 522.363 179.811 518.821 Q178.005 515.257 174.371 515.257 M174.371 511.553 Q180.181 511.553 183.237 516.159 Q186.316 520.743 186.316 529.493 Q186.316 538.219 183.237 542.826 Q180.181 547.409 174.371 547.409 Q168.561 547.409 165.482 542.826 Q162.427 538.219 162.427 529.493 Q162.427 520.743 165.482 516.159 Q168.561 511.553 174.371 511.553 Z" fill="#000000" fill-rule="nonzero" fill-opacity="1" /><path clip-path="url(#clip640)" d="M204.533 515.257 Q200.922 515.257 199.093 518.821 Q197.288 522.363 197.288 529.493 Q197.288 536.599 199.093 540.164 Q200.922 543.705 204.533 543.705 Q208.167 543.705 209.973 540.164 Q211.801 536.599 211.801 529.493 Q211.801 522.363 209.973 518.821 Q208.167 515.257 204.533 515.257 M204.533 511.553 Q210.343 511.553 213.399 516.159 Q216.477 520.743 216.477 529.493 Q216.477 538.219 213.399 542.826 Q210.343 547.409 204.533 547.409 Q198.723 547.409 195.644 542.826 Q192.589 538.219 192.589 529.493 Q192.589 520.743 195.644 516.159 Q198.723 511.553 204.533 511.553 Z" fill="#000000" fill-rule="nonzero" fill-opacity="1" /><path clip-path="url(#clip640)" d="M228.723 542.803 L245.042 542.803 L245.042 546.738 L223.098 546.738 L223.098 542.803 Q225.76 540.048 230.343 535.418 Q234.95 530.766 236.13 529.423 Q238.375 526.9 239.255 525.164 Q240.158 523.405 240.158 521.715 Q240.158 518.96 238.213 517.224 Q236.292 515.488 233.19 515.488 Q230.991 515.488 228.538 516.252 Q226.107 517.016 223.329 518.567 L223.329 513.844 Q226.153 512.71 228.607 512.132 Q231.061 511.553 233.098 511.553 Q238.468 511.553 241.662 514.238 Q244.857 516.923 244.857 521.414 Q244.857 523.544 244.047 525.465 Q243.26 527.363 241.153 529.956 Q240.574 530.627 237.473 533.844 Q234.371 537.039 228.723 542.803 Z" fill="#000000" fill-rule="nonzero" fill-opacity="1" /><path clip-path="url(#clip640)" d="M254.903 512.178 L273.26 512.178 L273.26 516.113 L259.186 516.113 L259.186 524.585 Q260.204 524.238 261.223 524.076 Q262.241 523.891 263.26 523.891 Q269.047 523.891 272.426 527.062 Q275.806 530.233 275.806 535.65 Q275.806 541.229 272.334 544.33 Q268.861 547.409 262.542 547.409 Q260.366 547.409 258.098 547.039 Q255.852 546.668 253.445 545.928 L253.445 541.229 Q255.528 542.363 257.75 542.918 Q259.973 543.474 262.449 543.474 Q266.454 543.474 268.792 541.367 Q271.13 539.261 271.13 535.65 Q271.13 532.039 268.792 529.932 Q266.454 527.826 262.449 527.826 Q260.574 527.826 258.699 528.243 Q256.848 528.659 254.903 529.539 L254.903 512.178 Z" fill="#000000" fill-rule="nonzero" fill-opacity="1" /><path clip-path="url(#clip640)" d="M128.145 176.475 Q124.533 176.475 122.705 180.039 Q120.899 183.581 120.899 190.711 Q120.899 197.817 122.705 201.382 Q124.533 204.924 128.145 204.924 Q131.779 204.924 133.584 201.382 Q135.413 197.817 135.413 190.711 Q135.413 183.581 133.584 180.039 Q131.779 176.475 128.145 176.475 M128.145 172.771 Q133.955 172.771 137.01 177.377 Q140.089 181.961 140.089 190.711 Q140.089 199.438 137.01 204.044 Q133.955 208.627 128.145 208.627 Q122.334 208.627 119.256 204.044 Q116.2 199.438 116.2 190.711 Q116.2 181.961 119.256 177.377 Q122.334 172.771 128.145 172.771 Z" fill="#000000" fill-rule="nonzero" fill-opacity="1" /><path clip-path="url(#clip640)" d="M148.306 202.076 L153.191 202.076 L153.191 207.956 L148.306 207.956 L148.306 202.076 Z" fill="#000000" fill-rule="nonzero" fill-opacity="1" /><path clip-path="url(#clip640)" d="M173.376 176.475 Q169.765 176.475 167.936 180.039 Q166.13 183.581 166.13 190.711 Q166.13 197.817 167.936 201.382 Q169.765 204.924 173.376 204.924 Q177.01 204.924 178.816 201.382 Q180.644 197.817 180.644 190.711 Q180.644 183.581 178.816 180.039 Q177.01 176.475 173.376 176.475 M173.376 172.771 Q179.186 172.771 182.241 177.377 Q185.32 181.961 185.32 190.711 Q185.32 199.438 182.241 204.044 Q179.186 208.627 173.376 208.627 Q167.566 208.627 164.487 204.044 Q161.431 199.438 161.431 190.711 Q161.431 181.961 164.487 177.377 Q167.566 172.771 173.376 172.771 Z" fill="#000000" fill-rule="nonzero" fill-opacity="1" /><path clip-path="url(#clip640)" d="M203.538 176.475 Q199.927 176.475 198.098 180.039 Q196.292 183.581 196.292 190.711 Q196.292 197.817 198.098 201.382 Q199.927 204.924 203.538 204.924 Q207.172 204.924 208.977 201.382 Q210.806 197.817 210.806 190.711 Q210.806 183.581 208.977 180.039 Q207.172 176.475 203.538 176.475 M203.538 172.771 Q209.348 172.771 212.403 177.377 Q215.482 181.961 215.482 190.711 Q215.482 199.438 212.403 204.044 Q209.348 208.627 203.538 208.627 Q197.727 208.627 194.649 204.044 Q191.593 199.438 191.593 190.711 Q191.593 181.961 194.649 177.377 Q197.727 172.771 203.538 172.771 Z" fill="#000000" fill-rule="nonzero" fill-opacity="1" /><path clip-path="url(#clip640)" d="M237.866 189.322 Q241.223 190.039 243.098 192.308 Q244.996 194.576 244.996 197.91 Q244.996 203.025 241.477 205.826 Q237.959 208.627 231.477 208.627 Q229.301 208.627 226.987 208.187 Q224.695 207.771 222.241 206.914 L222.241 202.4 Q224.186 203.535 226.5 204.113 Q228.815 204.692 231.338 204.692 Q235.737 204.692 238.028 202.956 Q240.343 201.22 240.343 197.91 Q240.343 194.854 238.19 193.141 Q236.061 191.405 232.241 191.405 L228.213 191.405 L228.213 187.563 L232.426 187.563 Q235.875 187.563 237.704 186.197 Q239.533 184.808 239.533 182.215 Q239.533 179.553 237.635 178.141 Q235.76 176.706 232.241 176.706 Q230.32 176.706 228.121 177.123 Q225.922 177.539 223.283 178.419 L223.283 174.252 Q225.945 173.512 228.26 173.141 Q230.598 172.771 232.658 172.771 Q237.982 172.771 241.084 175.202 Q244.186 177.609 244.186 181.729 Q244.186 184.6 242.542 186.59 Q240.899 188.558 237.866 189.322 Z" fill="#000000" fill-rule="nonzero" fill-opacity="1" /><path clip-path="url(#clip640)" d="M263.861 176.475 Q260.25 176.475 258.422 180.039 Q256.616 183.581 256.616 190.711 Q256.616 197.817 258.422 201.382 Q260.25 204.924 263.861 204.924 Q267.496 204.924 269.301 201.382 Q271.13 197.817 271.13 190.711 Q271.13 183.581 269.301 180.039 Q267.496 176.475 263.861 176.475 M263.861 172.771 Q269.672 172.771 272.727 177.377 Q275.806 181.961 275.806 190.711 Q275.806 199.438 272.727 204.044 Q269.672 208.627 263.861 208.627 Q258.051 208.627 254.973 204.044 Q251.917 199.438 251.917 190.711 Q251.917 181.961 254.973 177.377 Q258.051 172.771 263.861 172.771 Z" fill="#000000" fill-rule="nonzero" fill-opacity="1" /><path clip-path="url(#clip640)" d="M10.0844 1293.32 L16.8639 1293.32 Q13.8402 1296.57 12.3443 1300.26 Q10.8483 1303.92 10.8483 1308.06 Q10.8483 1316.21 15.8454 1320.54 Q20.8107 1324.87 30.2319 1324.87 Q39.6213 1324.87 44.6184 1320.54 Q49.5836 1316.21 49.5836 1308.06 Q49.5836 1303.92 48.0877 1300.26 Q46.5918 1296.57 43.5681 1293.32 L50.2839 1293.32 Q52.5755 1296.7 53.7214 1300.49 Q54.8672 1304.24 54.8672 1308.44 Q54.8672 1319.23 48.2787 1325.44 Q41.6583 1331.65 30.2319 1331.65 Q18.7736 1331.65 12.1851 1325.44 Q5.56479 1319.23 5.56479 1308.44 Q5.56479 1304.18 6.71061 1300.42 Q7.82461 1296.64 10.0844 1293.32 Z" fill="#000000" fill-rule="nonzero" fill-opacity="1" /><path clip-path="url(#clip640)" d="M34.6561 1253.16 L37.5206 1253.16 L37.5206 1280.08 Q43.5681 1279.7 46.7509 1276.46 Q49.9019 1273.18 49.9019 1267.35 Q49.9019 1263.98 49.0744 1260.83 Q48.2469 1257.65 46.5918 1254.53 L52.1299 1254.53 Q53.4667 1257.68 54.167 1260.99 Q54.8672 1264.3 54.8672 1267.7 Q54.8672 1276.23 49.9019 1281.23 Q44.9367 1286.2 36.4703 1286.2 Q27.7174 1286.2 22.5931 1281.48 Q17.4368 1276.74 17.4368 1268.72 Q17.4368 1261.53 22.0838 1257.36 Q26.6989 1253.16 34.6561 1253.16 M32.9373 1259.01 Q28.1312 1259.08 25.2666 1261.72 Q22.4021 1264.33 22.4021 1268.66 Q22.4021 1273.56 25.1712 1276.52 Q27.9402 1279.45 32.9692 1279.89 L32.9373 1259.01 Z" fill="#000000" fill-rule="nonzero" fill-opacity="1" /><path clip-path="url(#clip640)" d="M32.4281 1213.91 L53.9442 1213.91 L53.9442 1219.77 L32.619 1219.77 Q27.5583 1219.77 25.0438 1221.74 Q22.5294 1223.72 22.5294 1227.66 Q22.5294 1232.41 25.5531 1235.14 Q28.5768 1237.88 33.7967 1237.88 L53.9442 1237.88 L53.9442 1243.77 L18.2962 1243.77 L18.2962 1237.88 L23.8344 1237.88 Q20.6197 1235.78 19.0283 1232.95 Q17.4368 1230.08 17.4368 1226.36 Q17.4368 1220.21 21.2563 1217.06 Q25.0438 1213.91 32.4281 1213.91 Z" fill="#000000" fill-rule="nonzero" fill-opacity="1" /><path clip-path="url(#clip640)" d="M8.17473 1196.44 L18.2962 1196.44 L18.2962 1184.38 L22.8477 1184.38 L22.8477 1196.44 L42.1994 1196.44 Q46.5599 1196.44 47.8013 1195.26 Q49.0426 1194.05 49.0426 1190.39 L49.0426 1184.38 L53.9442 1184.38 L53.9442 1190.39 Q53.9442 1197.17 51.4297 1199.75 Q48.8834 1202.33 42.1994 1202.33 L22.8477 1202.33 L22.8477 1206.62 L18.2962 1206.62 L18.2962 1202.33 L8.17473 1202.33 L8.17473 1196.44 Z" fill="#000000" fill-rule="nonzero" fill-opacity="1" /><path clip-path="url(#clip640)" d="M23.7707 1156.02 Q23.1978 1157 22.9432 1158.18 Q22.6567 1159.33 22.6567 1160.73 Q22.6567 1165.69 25.9032 1168.37 Q29.1179 1171.01 35.1653 1171.01 L53.9442 1171.01 L53.9442 1176.9 L18.2962 1176.9 L18.2962 1171.01 L23.8344 1171.01 Q20.5879 1169.16 19.0283 1166.2 Q17.4368 1163.24 17.4368 1159.01 Q17.4368 1158.4 17.5323 1157.67 Q17.596 1156.94 17.7551 1156.05 L23.7707 1156.02 Z" fill="#000000" fill-rule="nonzero" fill-opacity="1" /><path clip-path="url(#clip640)" d="M36.0247 1133.67 Q36.0247 1140.77 37.6479 1143.51 Q39.2712 1146.25 43.1861 1146.25 Q46.3053 1146.25 48.1514 1144.21 Q49.9656 1142.14 49.9656 1138.61 Q49.9656 1133.74 46.5281 1130.81 Q43.0588 1127.85 37.3297 1127.85 L36.0247 1127.85 L36.0247 1133.67 M33.6057 1121.99 L53.9442 1121.99 L53.9442 1127.85 L48.5333 1127.85 Q51.7798 1129.85 53.3394 1132.85 Q54.8672 1135.84 54.8672 1140.17 Q54.8672 1145.64 51.8116 1148.89 Q48.7243 1152.1 43.5681 1152.1 Q37.5525 1152.1 34.4969 1148.09 Q31.4414 1144.05 31.4414 1136.06 L31.4414 1127.85 L30.8685 1127.85 Q26.8262 1127.85 24.6301 1130.52 Q22.4021 1133.16 22.4021 1137.97 Q22.4021 1141.03 23.1341 1143.92 Q23.8662 1146.82 25.3303 1149.49 L19.9195 1149.49 Q18.6781 1146.28 18.0734 1143.25 Q17.4368 1140.23 17.4368 1137.37 Q17.4368 1129.63 21.4472 1125.81 Q25.4576 1121.99 33.6057 1121.99 Z" fill="#000000" fill-rule="nonzero" fill-opacity="1" /><path clip-path="url(#clip640)" d="M4.41896 1109.93 L4.41896 1104.07 L53.9442 1104.07 L53.9442 1109.93 L4.41896 1109.93 Z" fill="#000000" fill-rule="nonzero" fill-opacity="1" /><path clip-path="url(#clip640)" d="M18.2962 1091.82 L18.2962 1085.96 L53.9442 1085.96 L53.9442 1091.82 L18.2962 1091.82 M4.41896 1091.82 L4.41896 1085.96 L11.835 1085.96 L11.835 1091.82 L4.41896 1091.82 Z" fill="#000000" fill-rule="nonzero" fill-opacity="1" /><path clip-path="url(#clip640)" d="M23.7071 1050.25 L4.41896 1050.25 L4.41896 1044.39 L53.9442 1044.39 L53.9442 1050.25 L48.597 1050.25 Q51.7798 1052.1 53.3394 1054.93 Q54.8672 1057.73 54.8672 1061.68 Q54.8672 1068.14 49.711 1072.21 Q44.5547 1076.25 36.152 1076.25 Q27.7493 1076.25 22.5931 1072.21 Q17.4368 1068.14 17.4368 1061.68 Q17.4368 1057.73 18.9964 1054.93 Q20.5242 1052.1 23.7071 1050.25 M36.152 1070.21 Q42.6132 1070.21 46.3053 1067.57 Q49.9656 1064.89 49.9656 1060.24 Q49.9656 1055.6 46.3053 1052.92 Q42.6132 1050.25 36.152 1050.25 Q29.6908 1050.25 26.0305 1052.92 Q22.3384 1055.6 22.3384 1060.24 Q22.3384 1064.89 26.0305 1067.57 Q29.6908 1070.21 36.152 1070.21 Z" fill="#000000" fill-rule="nonzero" fill-opacity="1" /><path clip-path="url(#clip640)" d="M36.0247 1016.13 Q36.0247 1023.23 37.6479 1025.97 Q39.2712 1028.7 43.1861 1028.7 Q46.3053 1028.7 48.1514 1026.67 Q49.9656 1024.6 49.9656 1021.06 Q49.9656 1016.19 46.5281 1013.27 Q43.0588 1010.31 37.3297 1010.31 L36.0247 1010.31 L36.0247 1016.13 M33.6057 1004.45 L53.9442 1004.45 L53.9442 1010.31 L48.5333 1010.31 Q51.7798 1012.31 53.3394 1015.3 Q54.8672 1018.29 54.8672 1022.62 Q54.8672 1028.1 51.8116 1031.34 Q48.7243 1034.56 43.5681 1034.56 Q37.5525 1034.56 34.4969 1030.55 Q31.4414 1026.51 31.4414 1018.52 L31.4414 1010.31 L30.8685 1010.31 Q26.8262 1010.31 24.6301 1012.98 Q22.4021 1015.62 22.4021 1020.43 Q22.4021 1023.48 23.1341 1026.38 Q23.8662 1029.28 25.3303 1031.95 L19.9195 1031.95 Q18.6781 1028.73 18.0734 1025.71 Q17.4368 1022.69 17.4368 1019.82 Q17.4368 1012.09 21.4472 1008.27 Q25.4576 1004.45 33.6057 1004.45 Z" fill="#000000" fill-rule="nonzero" fill-opacity="1" /><path clip-path="url(#clip640)" d="M23.7071 968.929 L4.41896 968.929 L4.41896 963.072 L53.9442 963.072 L53.9442 968.929 L48.597 968.929 Q51.7798 970.775 53.3394 973.607 Q54.8672 976.408 54.8672 980.355 Q54.8672 986.816 49.711 990.89 Q44.5547 994.932 36.152 994.932 Q27.7493 994.932 22.5931 990.89 Q17.4368 986.816 17.4368 980.355 Q17.4368 976.408 18.9964 973.607 Q20.5242 970.775 23.7071 968.929 M36.152 988.885 Q42.6132 988.885 46.3053 986.243 Q49.9656 983.57 49.9656 978.923 Q49.9656 974.276 46.3053 971.602 Q42.6132 968.929 36.152 968.929 Q29.6908 968.929 26.0305 971.602 Q22.3384 974.276 22.3384 978.923 Q22.3384 983.57 26.0305 986.243 Q29.6908 988.885 36.152 988.885 Z" fill="#000000" fill-rule="nonzero" fill-opacity="1" /><path clip-path="url(#clip640)" d="M34.6561 920.517 L37.5206 920.517 L37.5206 947.444 Q43.5681 947.062 46.7509 943.816 Q49.9019 940.538 49.9019 934.713 Q49.9019 931.339 49.0744 928.188 Q48.2469 925.005 46.5918 921.886 L52.1299 921.886 Q53.4667 925.037 54.167 928.347 Q54.8672 931.657 54.8672 935.063 Q54.8672 943.593 49.9019 948.59 Q44.9367 953.555 36.4703 953.555 Q27.7174 953.555 22.5931 948.845 Q17.4368 944.102 17.4368 936.082 Q17.4368 928.888 22.0838 924.719 Q26.6989 920.517 34.6561 920.517 M32.9373 926.374 Q28.1312 926.437 25.2666 929.079 Q22.4021 931.689 22.4021 936.018 Q22.4021 940.919 25.1712 943.88 Q27.9402 946.808 32.9692 947.253 L32.9373 926.374 Z" fill="#000000" fill-rule="nonzero" fill-opacity="1" /><circle clip-path="url(#clip642)" cx="403.87" cy="2143.85" r="14.4" fill="#009af9" fill-rule="evenodd" fill-opacity="1" stroke="#000000" stroke-opacity="1" stroke-width="4.8"/>
<circle clip-path="url(#clip642)" cx="544.335" cy="1947.73" r="14.4" fill="#009af9" fill-rule="evenodd" fill-opacity="1" stroke="#000000" stroke-opacity="1" stroke-width="4.8"/>
<circle clip-path="url(#clip642)" cx="684.799" cy="1676.45" r="14.4" fill="#009af9" fill-rule="evenodd" fill-opacity="1" stroke="#000000" stroke-opacity="1" stroke-width="4.8"/>
<circle clip-path="url(#clip642)" cx="825.263" cy="1344.18" r="14.4" fill="#009af9" fill-rule="evenodd" fill-opacity="1" stroke="#000000" stroke-opacity="1" stroke-width="4.8"/>
<circle clip-path="url(#clip642)" cx="965.727" cy="921.226" r="14.4" fill="#009af9" fill-rule="evenodd" fill-opacity="1" stroke="#000000" stroke-opacity="1" stroke-width="4.8"/>
<circle clip-path="url(#clip642)" cx="1106.19" cy="479.58" r="14.4" fill="#009af9" fill-rule="evenodd" fill-opacity="1" stroke="#000000" stroke-opacity="1" stroke-width="4.8"/>
<circle clip-path="url(#clip642)" cx="1246.66" cy="166.807" r="14.4" fill="#009af9" fill-rule="evenodd" fill-opacity="1" stroke="#000000" stroke-opacity="1" stroke-width="4.8"/>
<circle clip-path="url(#clip642)" cx="1387.12" cy="112.74" r="14.4" fill="#009af9" fill-rule="evenodd" fill-opacity="1" stroke="#000000" stroke-opacity="1" stroke-width="4.8"/>
<circle clip-path="url(#clip642)" cx="1527.58" cy="108.31" r="14.4" fill="#009af9" fill-rule="evenodd" fill-opacity="1" stroke="#000000" stroke-opacity="1" stroke-width="4.8"/>
<circle clip-path="url(#clip642)" cx="1668.05" cy="111.658" r="14.4" fill="#009af9" fill-rule="evenodd" fill-opacity="1" stroke="#000000" stroke-opacity="1" stroke-width="4.8"/>
<circle clip-path="url(#clip642)" cx="1808.51" cy="113.476" r="14.4" fill="#009af9" fill-rule="evenodd" fill-opacity="1" stroke="#000000" stroke-opacity="1" stroke-width="4.8"/>
<circle clip-path="url(#clip642)" cx="1948.98" cy="117.873" r="14.4" fill="#009af9" fill-rule="evenodd" fill-opacity="1" stroke="#000000" stroke-opacity="1" stroke-width="4.8"/>
<circle clip-path="url(#clip642)" cx="2089.44" cy="115.093" r="14.4" fill="#009af9" fill-rule="evenodd" fill-opacity="1" stroke="#000000" stroke-opacity="1" stroke-width="4.8"/>
<circle clip-path="url(#clip642)" cx="2229.91" cy="123.7" r="14.4" fill="#009af9" fill-rule="evenodd" fill-opacity="1" stroke="#000000" stroke-opacity="1" stroke-width="4.8"/>
<circle clip-path="url(#clip642)" cx="2370.37" cy="121.791" r="14.4" fill="#009af9" fill-rule="evenodd" fill-opacity="1" stroke="#000000" stroke-opacity="1" stroke-width="4.8"/>
<circle clip-path="url(#clip642)" cx="2510.83" cy="132.867" r="14.4" fill="#009af9" fill-rule="evenodd" fill-opacity="1" stroke="#000000" stroke-opacity="1" stroke-width="4.8"/>
<circle clip-path="url(#clip642)" cx="2651.3" cy="157.481" r="14.4" fill="#009af9" fill-rule="evenodd" fill-opacity="1" stroke="#000000" stroke-opacity="1" stroke-width="4.8"/>
<circle clip-path="url(#clip642)" cx="2791.76" cy="197.97" r="14.4" fill="#009af9" fill-rule="evenodd" fill-opacity="1" stroke="#000000" stroke-opacity="1" stroke-width="4.8"/>
<circle clip-path="url(#clip642)" cx="2932.23" cy="262.499" r="14.4" fill="#009af9" fill-rule="evenodd" fill-opacity="1" stroke="#000000" stroke-opacity="1" stroke-width="4.8"/>
<circle clip-path="url(#clip642)" cx="3072.69" cy="471.307" r="14.4" fill="#009af9" fill-rule="evenodd" fill-opacity="1" stroke="#000000" stroke-opacity="1" stroke-width="4.8"/>
<path clip-path="url(#clip640)" d="M418.104 222.847 L753.429 222.847 L753.429 119.167 L418.104 119.167  Z" fill="#ffffff" fill-rule="evenodd" fill-opacity="1"/>
<polyline clip-path="url(#clip640)" style="stroke:#000000; stroke-linecap:round; stroke-linejoin:round; stroke-width:4; stroke-opacity:1; fill:none" points="418.104,222.847 753.429,222.847 753.429,119.167 418.104,119.167 418.104,222.847 "/>
<circle clip-path="url(#clip640)" cx="543.835" cy="171.007" r="20.48" fill="#009af9" fill-rule="evenodd" fill-opacity="1" stroke="#000000" stroke-opacity="1" stroke-width="6.82667"/>
<path clip-path="url(#clip640)" d="M683.409 190.694 Q681.603 195.324 679.89 196.736 Q678.177 198.148 675.307 198.148 L671.904 198.148 L671.904 194.583 L674.404 194.583 Q676.164 194.583 677.136 193.75 Q678.108 192.916 679.289 189.814 L680.052 187.87 L669.566 162.361 L674.08 162.361 L682.182 182.639 L690.284 162.361 L694.798 162.361 L683.409 190.694 Z" fill="#000000" fill-rule="nonzero" fill-opacity="1" /><path clip-path="url(#clip640)" d="M702.089 184.351 L709.728 184.351 L709.728 157.986 L701.418 159.653 L701.418 155.393 L709.682 153.727 L714.358 153.727 L714.358 184.351 L721.997 184.351 L721.997 188.287 L702.089 188.287 L702.089 184.351 Z" fill="#000000" fill-rule="nonzero" fill-opacity="1" /></svg>
